{
.appVersion = "930";
classes = (
{
automatic = 1;

glyphs = (
{
glyphname = A;
lastChange = "2016-07-26 19:57:28 +0000";
layers = (
{
anchors = (
{
name = bottom;
position = "{407, 0}";
},
{
name = ogonek;
position = "{781, 0}";
},
{
name = top;
position = "{407, 750}";
}
);
background = {
paths = (
{
closed = 1;
nodes = (
"737 1468 LINE",
"571 1468 LINE",
"0 0 LINE",
"186 0 LINE",
"360 453 LINE",
"940 453 LINE",
"1116 0 LINE",
"1307 0 LINE"
);
},
{
closed = 1;
nodes = (
"588 1059 LINE",
"610 1125 OFFCURVE",
"631 1198 OFFCURVE",
"651 1278 CURVE",
"721 1059 LINE",
"885 616 LINE",
"422 616 LINE"
);
}
);
};
layerId = "6418A72B-B7AF-4A99-B2A7-67092BA5BFD7";
paths = (
{
closed = 1;
nodes = (
"67 0 LINE",
"412 712 LINE",
"396 712 LINE",
"592 315 LINE",
"208 315 LINE",
"195 286 LINE",
"604 286 LINE",
"746 0 LINE",
"781 0 LINE",
"406 768 LINE",
"32 0 LINE"
);
}
);
width = 813;
}
);
leftKerningGroup = A;
note = A;
rightKerningGroup = A;
unicode = 0041;
},
{
glyphname = Aacute;
lastChange = "2016-07-13 21:35:07 +0000";
layers = (
{
background = {
paths = (
{
closed = 1;
nodes = (
"737 1468 LINE",
"571 1468 LINE",
"0 0 LINE",
"186 0 LINE",
"360 453 LINE",
"940 453 LINE",
"1116 0 LINE",
"1307 0 LINE"
);
},
{
closed = 1;
nodes = (
"588 1059 LINE",
"610 1125 OFFCURVE",
"631 1198 OFFCURVE",
"651 1278 CURVE",
"721 1059 LINE",
"885 616 LINE",
"422 616 LINE"
);
},
{
closed = 1;
nodes = (
"645 1579 LINE",
"729 1644 OFFCURVE",
"879 1801 OFFCURVE",
"938 1886 CURVE",
"938 1907 LINE",
"721 1907 LINE",
"668 1803 OFFCURVE",
"577 1668 OFFCURVE",
"526 1604 CURVE",
"526 1579 LINE"
);
}
);
};
components = (
{
name = A;
},
{
name = acutecomb.case;
transform = "{1, 0, 0, 1, 323, 0}";
}
);
layerId = "6418A72B-B7AF-4A99-B2A7-67092BA5BFD7";
width = 813;
}
);
leftKerningGroup = A;
note = Aacute;
rightKerningGroup = A;
unicode = 00C1;
},
{
glyphname = Abreve;
lastChange = "2016-07-13 21:35:07 +0000";
layers = (
{
background = {
paths = (
{
closed = 1;
nodes = (
"737 1468 LINE",
"571 1468 LINE",
"0 0 LINE",
"186 0 LINE",
"360 453 LINE",
"940 453 LINE",
"1116 0 LINE",
"1307 0 LINE"
);
},
{
closed = 1;
nodes = (
"588 1059 LINE",
"610 1125 OFFCURVE",
"631 1198 OFFCURVE",
"651 1278 CURVE",
"721 1059 LINE",
"885 616 LINE",
"422 616 LINE"
);
},
{
closed = 1;
nodes = (
"832 1579 OFFCURVE",
"954 1679 OFFCURVE",
"971 1854 CURVE",
"858 1854 LINE",
"847 1765 OFFCURVE",
"786 1724 OFFCURVE",
"651 1724 CURVE SMOOTH",
"498 1724 OFFCURVE",
"455 1759 OFFCURVE",
"444 1854 CURVE",
"334 1854 LINE",
"346 1671 OFFCURVE",
"459 1579 OFFCURVE",
"647 1579 CURVE SMOOTH"
);
}
);
};
components = (
{
name = A;
},
{
name = brevecomb;
transform = "{1, 0, 0, 1, 267, 300}";
}
);
layerId = "6418A72B-B7AF-4A99-B2A7-67092BA5BFD7";
width = 813;
}
);
leftKerningGroup = A;
note = Abreve;
rightKerningGroup = A;
unicode = 0102;
},
{
glyphname = Acircumflex;
lastChange = "2016-07-13 21:35:07 +0000";
layers = (
{
background = {
paths = (
{
closed = 1;
nodes = (
"737 1468 LINE",
"571 1468 LINE",
"0 0 LINE",
"186 0 LINE",
"360 453 LINE",
"940 453 LINE",
"1116 0 LINE",
"1307 0 LINE"
);
},
{
closed = 1;
nodes = (
"588 1059 LINE",
"610 1125 OFFCURVE",
"631 1198 OFFCURVE",
"651 1278 CURVE",
"721 1059 LINE",
"885 616 LINE",
"422 616 LINE"
);
},
{
closed = 1;
nodes = (
"422 1579 LINE",
"481 1616 OFFCURVE",
"554 1678 OFFCURVE",
"641 1763 CURVE",
"730 1676 OFFCURVE",
"804 1614 OFFCURVE",
"864 1579 CURVE",
"991 1579 LINE",
"991 1602 LINE",
"855 1738 OFFCURVE",
"770 1840 OFFCURVE",
"735 1907 CURVE",
"551 1907 LINE",
"535 1878 OFFCURVE",
"510 1843 OFFCURVE",
"476 1800 CURVE SMOOTH",
"441 1757 OFFCURVE",
"382 1691 OFFCURVE",
"299 1602 CURVE",
"299 1579 LINE"
);
}
);
};
components = (
{
name = A;
},
{
name = circumflexcomb;
transform = "{1, 0, 0, 1, 209, 300}";
}
);
layerId = "6418A72B-B7AF-4A99-B2A7-67092BA5BFD7";
width = 813;
}
);
leftKerningGroup = A;
note = Acircumflex;
rightKerningGroup = A;
unicode = 00C2;
},
{
glyphname = Adieresis;
lastChange = "2016-07-13 21:35:07 +0000";
layers = (
{
background = {
paths = (
{
closed = 1;
nodes = (
"737 1468 LINE",
"571 1468 LINE",
"0 0 LINE",
"186 0 LINE",
"360 453 LINE",
"940 453 LINE",
"1116 0 LINE",
"1307 0 LINE"
);
},
{
closed = 1;
nodes = (
"588 1059 LINE",
"610 1125 OFFCURVE",
"631 1198 OFFCURVE",
"651 1278 CURVE",
"721 1059 LINE",
"885 616 LINE",
"422 616 LINE"
);
},
{
closed = 1;
nodes = (
"362 1662 OFFCURVE",
"405 1630 OFFCURVE",
"458 1630 CURVE SMOOTH",
"510 1630 OFFCURVE",
"555 1662 OFFCURVE",
"555 1733 CURVE SMOOTH",
"555 1804 OFFCURVE",
"510 1833 OFFCURVE",
"458 1833 CURVE SMOOTH",
"405 1833 OFFCURVE",
"362 1804 OFFCURVE",
"362 1733 CURVE SMOOTH"
);
},
{
closed = 1;
nodes = (
"747 1662 OFFCURVE",
"790 1630 OFFCURVE",
"841 1630 CURVE SMOOTH",
"893 1630 OFFCURVE",
"938 1662 OFFCURVE",
"938 1733 CURVE SMOOTH",
"938 1804 OFFCURVE",
"893 1833 OFFCURVE",
"841 1833 CURVE SMOOTH",
"790 1833 OFFCURVE",
"747 1804 OFFCURVE",
"747 1733 CURVE SMOOTH"
);
}
);
};
components = (
{
name = A;
},
{
name = dieresiscomb.case;
transform = "{1, 0, 0, 1, 276, 0}";
}
);
layerId = "6418A72B-B7AF-4A99-B2A7-67092BA5BFD7";
width = 813;
}
);
leftKerningGroup = A;
note = Adieresis;
rightKerningGroup = A;
unicode = 00C4;
},
{
glyphname = Agrave;
lastChange = "2016-07-13 21:35:07 +0000";
layers = (
{
background = {
paths = (
{
closed = 1;
nodes = (
"737 1468 LINE",
"571 1468 LINE",
"0 0 LINE",
"186 0 LINE",
"360 453 LINE",
"940 453 LINE",
"1116 0 LINE",
"1307 0 LINE"
);
},
{
closed = 1;
nodes = (
"588 1059 LINE",
"610 1125 OFFCURVE",
"631 1198 OFFCURVE",
"651 1278 CURVE",
"721 1059 LINE",
"885 616 LINE",
"422 616 LINE"
);
},
{
closed = 1;
nodes = (
"682 1676 OFFCURVE",
"591 1819 OFFCURVE",
"548 1907 CURVE",
"333 1907 LINE",
"333 1886 LINE",
"382 1811 OFFCURVE",
"524 1659 OFFCURVE",
"624 1579 CURVE",
"745 1579 LINE",
"745 1604 LINE"
);
}
);
};
components = (
{
name = A;
},
{
name = gravecomb.case;
transform = "{1, 0, 0, 1, 266, 0}";
}
);
layerId = "6418A72B-B7AF-4A99-B2A7-67092BA5BFD7";
width = 813;
}
);
leftKerningGroup = A;
note = Agrave;
rightKerningGroup = A;
unicode = 00C0;
},
{
glyphname = Amacron;
lastChange = "2016-07-14 00:51:39 +0000";
layers = (
{
background = {
paths = (
{
closed = 1;
nodes = (
"737 1468 LINE",
"571 1468 LINE",
"0 0 LINE",
"186 0 LINE",
"360 453 LINE",
"940 453 LINE",
"1116 0 LINE",
"1307 0 LINE"
);
},
{
closed = 1;
nodes = (
"588 1059 LINE",
"610 1125 OFFCURVE",
"631 1198 OFFCURVE",
"651 1278 CURVE",
"721 1059 LINE",
"885 616 LINE",
"422 616 LINE"
);
},
{
closed = 1;
nodes = (
"973 1579 LINE",
"973 1724 LINE",
"365 1724 LINE",
"365 1579 LINE"
);
}
);
};
layerId = "6418A72B-B7AF-4A99-B2A7-67092BA5BFD7";
paths = (
{
closed = 1;
nodes = (
"52 0 LINE",
"192 286 LINE",
"593 286 LINE",
"735 0 LINE",
"770 0 LINE",
"395 768 LINE",
"21 0 LINE"
);
},
{
closed = 1;
nodes = (
"392 699 LINE",
"581 315 LINE",
"205 315 LINE"
);
}
);
width = 791;
}
);
leftKerningGroup = A;
note = Amacron;
rightKerningGroup = A;
unicode = 0100;
},
{
glyphname = Aogonek;
lastChange = "2016-07-26 19:57:33 +0000";
layers = (
{
background = {
paths = (
{
closed = 1;
nodes = (
"737 1468 LINE",
"571 1468 LINE",
"0 0 LINE",
"186 0 LINE",
"360 453 LINE",
"940 453 LINE",
"1116 0 LINE",
"1307 0 LINE"
);
},
{
closed = 1;
nodes = (
"588 1059 LINE",
"610 1125 OFFCURVE",
"631 1198 OFFCURVE",
"651 1278 CURVE",
"721 1059 LINE",
"885 616 LINE",
"422 616 LINE"
);
},
{
closed = 1;
nodes = (
"1106 -154 OFFCURVE",
"1153 -88 OFFCURVE",
"1246 0 CURVE",
"1119 0 LINE",
"1012 -79 OFFCURVE",
"959 -165 OFFCURVE",
"959 -258 CURVE SMOOTH",
"959 -387 OFFCURVE",
"1029 -451 OFFCURVE",
"1170 -451 CURVE SMOOTH",
"1209 -451 OFFCURVE",
"1251 -445 OFFCURVE",
"1297 -432 CURVE",
"1297 -317 LINE",
"1260 -326 OFFCURVE",
"1227 -330 OFFCURVE",
"1198 -330 CURVE SMOOTH",
"1141 -330 OFFCURVE",
"1106 -299 OFFCURVE",
"1106 -238 CURVE SMOOTH"
);
}
);
};
components = (
{
name = A;
},
{
name = ogonekcomb;
transform = "{1, 0, 0, 1, 651, 0}";
}
);
layerId = "6418A72B-B7AF-4A99-B2A7-67092BA5BFD7";
width = 813;
}
);
leftKerningGroup = A;
note = Aogonek;
rightKerningGroup = A;
unicode = 0104;
},
{
glyphname = Aring;
lastChange = "2016-07-13 21:35:07 +0000";
layers = (
{
background = {
paths = (
{
closed = 1;
nodes = (
"877 1712 OFFCURVE",
"785 1798 OFFCURVE",
"649 1798 CURVE SMOOTH",
"512 1798 OFFCURVE",
"426 1714 OFFCURVE",
"426 1583 CURVE SMOOTH",
"426 1487 OFFCURVE",
"468 1419 OFFCURVE",
"539 1386 CURVE",
"0 0 LINE",
"186 0 LINE",
"360 453 LINE",
"940 453 LINE",
"1116 0 LINE",
"1307 0 LINE",
"766 1393 LINE",
"834 1425 OFFCURVE",
"877 1493 OFFCURVE",
"877 1585 CURVE SMOOTH"
);
},
{
closed = 1;
nodes = (
"588 1059 LINE",
"610 1125 OFFCURVE",
"631 1198 OFFCURVE",
"651 1278 CURVE",
"721 1059 LINE",
"885 616 LINE",
"422 616 LINE"
);
},
{
closed = 1;
nodes = (
"764 1511 OFFCURVE",
"717 1468 OFFCURVE",
"649 1468 CURVE SMOOTH",
"574 1468 OFFCURVE",
"535 1511 OFFCURVE",
"535 1583 CURVE SMOOTH",
"535 1655 OFFCURVE",
"584 1698 OFFCURVE",
"649 1698 CURVE SMOOTH",
"716 1698 OFFCURVE",
"764 1655 OFFCURVE",
"764 1583 CURVE SMOOTH"
);
}
);
};
components = (
{
name = A;
},
{
name = ringcomb;
transform = "{1, 0, 0, 1, 316, 300}";
}
);
layerId = "6418A72B-B7AF-4A99-B2A7-67092BA5BFD7";
width = 813;
}
);
leftKerningGroup = A;
note = Aring;
rightKerningGroup = A;
unicode = 00C5;
},
{
glyphname = Aringacute;
lastChange = "2016-07-13 22:59:54 +0000";
layers = (
{
background = {
paths = (
{
closed = 1;
nodes = (
"881 1559 OFFCURVE",
"788 1647 OFFCURVE",
"651 1647 CURVE SMOOTH",
"514 1647 OFFCURVE",
"428 1561 OFFCURVE",
"428 1430 CURVE SMOOTH",
"428 1343 OFFCURVE",
"461 1281 OFFCURVE",
"528 1245 CURVE",
"0 0 LINE",
"188 0 LINE",
"348 393 LINE",
"952 393 LINE",
"1120 0 LINE",
"1311 0 LINE",
"782 1247 LINE",
"842 1282 OFFCURVE",
"881 1345 OFFCURVE",
"881 1432 CURVE SMOOTH"
);
},
{
closed = 1;
nodes = (
"582 977 LINE SMOOTH",
"609 1046 OFFCURVE",
"632 1117 OFFCURVE",
"653 1188 CURVE",
"684 1091 OFFCURVE",
"709 1022 OFFCURVE",
"727 981 CURVE SMOOTH",
"899 557 LINE",
"412 557 LINE"
);
},
{
closed = 1;
nodes = (
"676 1698 LINE",
"760 1754 OFFCURVE",
"906 1890 OFFCURVE",
"946 1946 CURVE",
"946 1962 LINE",
"729 1962 LINE",
"700 1910 OFFCURVE",
"631 1805 OFFCURVE",
"555 1716 CURVE",
"555 1698 LINE"
);
},
{
closed = 1;
nodes = (
"766 1355 OFFCURVE",
"719 1315 OFFCURVE",
"651 1315 CURVE SMOOTH",
"578 1315 OFFCURVE",
"537 1358 OFFCURVE",
"537 1430 CURVE SMOOTH",
"537 1503 OFFCURVE",
"586 1544 OFFCURVE",
"651 1544 CURVE SMOOTH",
"719 1544 OFFCURVE",
"766 1503 OFFCURVE",
"766 1430 CURVE SMOOTH"
);
}
);
};
components = (
{
name = A;
},
{
name = ringcomb;
transform = "{1, 0, 0, 1, 316, 300}";
},
{
name = acutecomb.i.case;
transform = "{1, 0, 0, 1, 315, 154}";
}
);
layerId = "6418A72B-B7AF-4A99-B2A7-67092BA5BFD7";
width = 813;
}
);
leftKerningGroup = A;
rightKerningGroup = A;
unicode = 01FA;
},
{
glyphname = Atilde;
lastChange = "2016-07-13 22:20:48 +0000";
layers = (
{
background = {
paths = (
{
closed = 1;
nodes = (
"737 1468 LINE",
"571 1468 LINE",
"0 0 LINE",
"186 0 LINE",
"360 453 LINE",
"940 453 LINE",
"1116 0 LINE",
"1307 0 LINE"
);
},
{
closed = 1;
nodes = (
"588 1059 LINE",
"610 1125 OFFCURVE",
"631 1198 OFFCURVE",
"651 1278 CURVE",
"721 1059 LINE",
"885 616 LINE",
"422 616 LINE"
);
},
{
closed = 1;
nodes = (
"926 1581 OFFCURVE",
"1006 1684 OFFCURVE",
"1022 1843 CURVE",
"919 1843 LINE",
"899 1763 OFFCURVE",
"871 1724 OFFCURVE",
"807 1724 CURVE SMOOTH",
"764 1724 OFFCURVE",
"716 1754 OFFCURVE",
"664 1783 CURVE SMOOTH",
"612 1811 OFFCURVE",
"555 1841 OFFCURVE",
"495 1841 CURVE SMOOTH",
"366 1841 OFFCURVE",
"286 1742 OFFCURVE",
"270 1579 CURVE",
"374 1579 LINE",
"393 1659 OFFCURVE",
"422 1698 OFFCURVE",
"487 1698 CURVE SMOOTH",
"532 1698 OFFCURVE",
"581 1668 OFFCURVE",
"634 1640 CURVE SMOOTH",
"686 1611 OFFCURVE",
"741 1581 OFFCURVE",
"798 1581 CURVE SMOOTH"
);
}
);
};
components = (
{
name = A;
},
{
name = tildecomb.i;
transform = "{1, 0, 0, 1, 250, 300}";
}
);
layerId = "6418A72B-B7AF-4A99-B2A7-67092BA5BFD7";
width = 813;
}
);
leftKerningGroup = A;
note = Atilde;
rightKerningGroup = A;
unicode = 00C3;
},
{
glyphname = AE;
lastChange = "2016-07-14 00:51:39 +0000";
layers = (
{
anchors = (
{
name = bottom;
position = "{347, 0}";
},
{
name = top;
position = "{475, 750}";
}
);
background = {
paths = (
{
closed = 1;
nodes = (
"1104 162 LINE",
"1104 684 LINE",
"1642 684 LINE",
"1642 844 LINE",
"1104 844 LINE",
"1104 1300 LINE",
"1681 1300 LINE",
"1681 1462 LINE",
"692 1462 LINE",
"-2 0 LINE",
"188 0 LINE",
"408 453 LINE",
"920 453 LINE",
"920 0 LINE",
"1681 0 LINE",
"1681 162 LINE"
);
},
{
closed = 1;
nodes = (
"920 1298 LINE",
"920 616 LINE",
"479 616 LINE",
"801 1298 LINE"
);
}
);
};
layerId = "6418A72B-B7AF-4A99-B2A7-67092BA5BFD7";
paths = (
{
closed = 1;
nodes = (
"63 0 LINE",
"398 680 LINE",
"398 315 LINE",
"202 315 LINE",
"189 286 LINE",
"398 286 LINE",
"398 0 LINE",
"667 0 LINE",
"667 29 LINE",
"431 29 LINE",
"431 287 LINE",
"628 287 LINE",
"628 316 LINE",
"431 316 LINE",
"431 721 LINE",
"667 721 LINE",
"667 750 LINE",
"398 750 LINE",
"26 0 LINE"
);
}
);
width = 693;
}
);
leftKerningGroup = A;
note = AE;
rightKerningGroup = E;
unicode = 00C6;
},
{
glyphname = AEacute;
lastChange = "2016-07-13 21:35:07 +0000";
layers = (
{
background = {
paths = (
{
closed = 1;
nodes = (
"1104 162 LINE",
"1104 684 LINE",
"1642 684 LINE",
"1642 844 LINE",
"1104 844 LINE",
"1104 1300 LINE",
"1681 1300 LINE",
"1681 1462 LINE",
"692 1462 LINE",
"-2 0 LINE",
"188 0 LINE",
"408 453 LINE",
"920 453 LINE",
"920 0 LINE",
"1681 0 LINE",
"1681 162 LINE"
);
},
{
closed = 1;
nodes = (
"920 1298 LINE",
"920 616 LINE",
"479 616 LINE",
"801 1298 LINE"
);
},
{
closed = 1;
nodes = (
"1102 1579 LINE",
"1186 1644 OFFCURVE",
"1336 1801 OFFCURVE",
"1395 1886 CURVE",
"1395 1907 LINE",
"1178 1907 LINE",
"1125 1803 OFFCURVE",
"1034 1668 OFFCURVE",
"983 1604 CURVE",
"983 1579 LINE"
);
}
);
};
components = (
{
name = AE;
},
{
name = acutecomb.case;
transform = "{1, 0, 0, 1, 391, 0}";
}
);
layerId = "6418A72B-B7AF-4A99-B2A7-67092BA5BFD7";
width = 693;
}
);
leftKerningGroup = A;
note = AEacute;
rightKerningGroup = E;
unicode = 01FC;
},
{
glyphname = B;
lastChange = "2016-07-14 00:51:39 +0000";
layers = (
{
background = {
paths = (
{
closed = 1;
nodes = (
"713 0 LINE SMOOTH",
"1033 0 OFFCURVE",
"1221 155 OFFCURVE",
"1221 416 CURVE SMOOTH",
"1221 609 OFFCURVE",
"1118 727 OFFCURVE",
"893 766 CURVE",
"893 776 LINE",
"1074 809 OFFCURVE",
"1171 927 OFFCURVE",
"1171 1100 CURVE SMOOTH",
"1171 1349 OFFCURVE",
"1008 1462 OFFCURVE",
"616 1462 CURVE SMOOTH",
"199 1462 LINE",
"199 0 LINE"
);
},
{
closed = 1;
nodes = (
"625 1305 LINE SMOOTH",
"872 1305 OFFCURVE",
"981 1239 OFFCURVE",
"981 1079 CURVE SMOOTH",
"981 907 OFFCURVE",
"882 840 OFFCURVE",
"653 840 CURVE SMOOTH",
"383 840 LINE",
"383 1305 LINE"
);
},
{
closed = 1;
nodes = (
"904 686 OFFCURVE",
"1024 605 OFFCURVE",
"1024 430 CURVE SMOOTH",
"1024 246 OFFCURVE",
"913 156 OFFCURVE",
"678 156 CURVE SMOOTH",
"383 156 LINE",
"383 686 LINE",
"664 686 LINE SMOOTH"
);
}
);
};
layerId = "6418A72B-B7AF-4A99-B2A7-67092BA5BFD7";
paths = (
{
closed = 1;
nodes = (
"111 0 LINE SMOOTH",
"252 0 OFFCURVE",
"362 100 OFFCURVE",
"362 253 CURVE SMOOTH",
"362 378 OFFCURVE",
"297 458 OFFCURVE",
"182 477 CURVE",
"228 494 OFFCURVE",
"264 551 OFFCURVE",
"264 606 CURVE SMOOTH",
"264 698 OFFCURVE",
"219 750 OFFCURVE",
"111 750 CURVE SMOOTH",
"79 750 LINE",
"79 0 LINE"
);
},
{
closed = 1;
nodes = (
"111 459 LINE",
"119 459 LINE SMOOTH",
"254 459 OFFCURVE",
"330 389 OFFCURVE",
"330 251 CURVE SMOOTH",
"330 120 OFFCURVE",
"237 28 OFFCURVE",
"119 28 CURVE SMOOTH",
"111 28 LINE"
);
},
{
closed = 1;
nodes = (
"111 722 LINE",
"119 722 LINE SMOOTH",
"200 722 OFFCURVE",
"233 681 OFFCURVE",
"233 607 CURVE SMOOTH",
"233 539 OFFCURVE",
"183 486 OFFCURVE",
"119 486 CURVE SMOOTH",
"111 486 LINE"
);
}
);
width = 403;
}
);
leftKerningGroup = H;
note = B;
rightKerningGroup = B;
unicode = 0042;
},
{
glyphname = C;
lastChange = "2016-07-13 22:00:16 +0000";
layers = (
{
anchors = (
{
name = bottom;
position = "{431, -20}";
},
{
name = top;
position = "{441, 750}";
}
);
background = {
paths = (
{
closed = 1;
nodes = (
"930 1321 OFFCURVE",
"1040 1294 OFFCURVE",
"1157 1241 CURVE",
"1231 1397 LINE",
"1116 1454 OFFCURVE",
"982 1483 OFFCURVE",
"827 1483 CURVE SMOOTH",
"683 1483 OFFCURVE",
"558 1452 OFFCURVE",
"452 1391 CURVE SMOOTH",
"239 1268 OFFCURVE",
"125 1034 OFFCURVE",
"125 733 CURVE SMOOTH",
"125 253 OFFCURVE",
"366 -20 OFFCURVE",
"797 -20 CURVE SMOOTH",
"946 -20 OFFCURVE",
"1050 -6 OFFCURVE",
"1174 39 CURVE",
"1174 199 LINE",
"1044 160 OFFCURVE",
"927 141 OFFCURVE",
"823 141 CURVE SMOOTH",
"500 141 OFFCURVE",
"319 354 OFFCURVE",
"319 731 CURVE SMOOTH",
"319 1096 OFFCURVE",
"510 1321 OFFCURVE",
"825 1321 CURVE SMOOTH"
);
}
);
};
layerId = "6418A72B-B7AF-4A99-B2A7-67092BA5BFD7";
paths = (
{
closed = 1;
nodes = (
"511 -20 OFFCURVE",
"576 -3 OFFCURVE",
"640 36 CURVE",
"640 73 LINE",
"577 30 OFFCURVE",
"518 9 OFFCURVE",
"427 9 CURVE SMOOTH",
"241 9 OFFCURVE",
"80 175 OFFCURVE",
"80 374 CURVE SMOOTH",
"80 570 OFFCURVE",
"235 741 OFFCURVE",
"437 741 CURVE SMOOTH",
"529 741 OFFCURVE",
"577 720 OFFCURVE",
"640 677 CURVE",
"640 714 LINE",
"576 751 OFFCURVE",
"535 770 OFFCURVE",
"434 770 CURVE SMOOTH",
"230 770 OFFCURVE",
"47 601 OFFCURVE",
"47 377 CURVE SMOOTH",
"47 146 OFFCURVE",
"220 -20 OFFCURVE",
"431 -20 CURVE SMOOTH"
);
}
);
width = 703;
},
{
associatedMasterId = "6418A72B-B7AF-4A99-B2A7-67092BA5BFD7";
layerId = "CDC60363-4EE9-4F10-B83A-0C7927044CEF";
name = "Regular Jul 8 16, 10:45";
paths = (
{
closed = 1;
nodes = (
"511 -11 OFFCURVE",
"577 8 OFFCURVE",
"638 45 CURVE",
"638 82 LINE",
"575 39 OFFCURVE",
"508 18 OFFCURVE",
"435 18 CURVE SMOOTH",
"239 18 OFFCURVE",
"78 181 OFFCURVE",
"78 378 CURVE SMOOTH",
"78 574 OFFCURVE",
"239 736 OFFCURVE",
"435 736 CURVE SMOOTH",
"508 736 OFFCURVE",
"575 715 OFFCURVE",
"638 672 CURVE",
"638 709 LINE",
"574 746 OFFCURVE",
"506 765 OFFCURVE",
"435 765 CURVE SMOOTH",
"222 765 OFFCURVE",
"45 589 OFFCURVE",
"45 377 CURVE SMOOTH",
"45 310 OFFCURVE",
"62 246 OFFCURVE",
"97 187 CURVE SMOOTH",
"165 67 OFFCURVE",
"292 -11 OFFCURVE",
"429 -11 CURVE SMOOTH",
"440 -11 LINE SMOOTH"
);
}
);
width = 698;
}
);
leftKerningGroup = O;
note = C;
rightKerningGroup = C;
unicode = 0043;
},
{
glyphname = Cacute;
lastChange = "2016-07-13 21:35:07 +0000";
layers = (
{
background = {
paths = (
{
closed = 1;
nodes = (
"930 1321 OFFCURVE",
"1040 1294 OFFCURVE",
"1157 1241 CURVE",
"1231 1397 LINE",
"1116 1454 OFFCURVE",
"982 1483 OFFCURVE",
"827 1483 CURVE SMOOTH",
"683 1483 OFFCURVE",
"558 1452 OFFCURVE",
"452 1391 CURVE SMOOTH",
"239 1268 OFFCURVE",
"125 1034 OFFCURVE",
"125 733 CURVE SMOOTH",
"125 253 OFFCURVE",
"366 -20 OFFCURVE",
"797 -20 CURVE SMOOTH",
"946 -20 OFFCURVE",
"1050 -6 OFFCURVE",
"1174 39 CURVE",
"1174 199 LINE",
"1044 160 OFFCURVE",
"927 141 OFFCURVE",
"823 141 CURVE SMOOTH",
"500 141 OFFCURVE",
"319 354 OFFCURVE",
"319 731 CURVE SMOOTH",
"319 1096 OFFCURVE",
"510 1321 OFFCURVE",
"825 1321 CURVE SMOOTH"
);
},
{
closed = 1;
nodes = (
"770 1579 LINE",
"854 1644 OFFCURVE",
"1004 1801 OFFCURVE",
"1063 1886 CURVE",
"1063 1907 LINE",
"846 1907 LINE",
"793 1803 OFFCURVE",
"702 1668 OFFCURVE",
"651 1604 CURVE",
"651 1579 LINE"
);
}
);
};
components = (
{
name = C;
},
{
name = acutecomb.case;
transform = "{1, 0, 0, 1, 357, 0}";
}
);
layerId = "6418A72B-B7AF-4A99-B2A7-67092BA5BFD7";
width = 703;
}
);
leftKerningGroup = O;
note = Cacute;
rightKerningGroup = C;
unicode = 0106;
},
{
glyphname = Ccaron;
lastChange = "2016-07-13 21:35:07 +0000";
layers = (
{
background = {
paths = (
{
closed = 1;
nodes = (
"930 1321 OFFCURVE",
"1040 1294 OFFCURVE",
"1157 1241 CURVE",
"1231 1397 LINE",
"1116 1454 OFFCURVE",
"982 1483 OFFCURVE",
"827 1483 CURVE SMOOTH",
"683 1483 OFFCURVE",
"558 1452 OFFCURVE",
"452 1391 CURVE SMOOTH",
"239 1268 OFFCURVE",
"125 1034 OFFCURVE",
"125 733 CURVE SMOOTH",
"125 253 OFFCURVE",
"366 -20 OFFCURVE",
"797 -20 CURVE SMOOTH",
"946 -20 OFFCURVE",
"1050 -6 OFFCURVE",
"1174 39 CURVE",
"1174 199 LINE",
"1044 160 OFFCURVE",
"927 141 OFFCURVE",
"823 141 CURVE SMOOTH",
"500 141 OFFCURVE",
"319 354 OFFCURVE",
"319 731 CURVE SMOOTH",
"319 1096 OFFCURVE",
"510 1321 OFFCURVE",
"825 1321 CURVE SMOOTH"
);
},
{
closed = 1;
nodes = (
"578 1747 OFFCURVE",
"662 1647 OFFCURVE",
"702 1579 CURVE",
"886 1579 LINE",
"920 1643 OFFCURVE",
"1005 1743 OFFCURVE",
"1142 1880 CURVE",
"1142 1907 LINE",
"1015 1907 LINE",
"950 1865 OFFCURVE",
"876 1802 OFFCURVE",
"792 1718 CURVE",
"722 1795 OFFCURVE",
"649 1858 OFFCURVE",
"573 1907 CURVE",
"450 1907 LINE",
"450 1880 LINE"
);
}
);
};
components = (
{
name = C;
},
{
name = caroncomb;
transform = "{1, 0, 0, 1, 275, 300}";
}
);
layerId = "6418A72B-B7AF-4A99-B2A7-67092BA5BFD7";
width = 703;
}
);
leftKerningGroup = O;
note = Ccaron;
rightKerningGroup = C;
unicode = 010C;
},
{
glyphname = Ccedilla;
lastChange = "2016-07-13 22:00:16 +0000";
layers = (
{
background = {
paths = (
{
closed = 1;
nodes = (
"930 1321 OFFCURVE",
"1040 1294 OFFCURVE",
"1157 1241 CURVE",
"1231 1397 LINE",
"1116 1454 OFFCURVE",
"982 1483 OFFCURVE",
"827 1483 CURVE SMOOTH",
"683 1483 OFFCURVE",
"558 1452 OFFCURVE",
"452 1391 CURVE SMOOTH",
"239 1268 OFFCURVE",
"125 1034 OFFCURVE",
"125 733 CURVE SMOOTH",
"125 253 OFFCURVE",
"366 -20 OFFCURVE",
"797 -20 CURVE SMOOTH",
"946 -20 OFFCURVE",
"1050 -6 OFFCURVE",
"1174 39 CURVE",
"1174 199 LINE",
"1044 160 OFFCURVE",
"927 141 OFFCURVE",
"823 141 CURVE SMOOTH",
"500 141 OFFCURVE",
"319 354 OFFCURVE",
"319 731 CURVE SMOOTH",
"319 1096 OFFCURVE",
"510 1321 OFFCURVE",
"825 1321 CURVE SMOOTH"
);
},
{
closed = 1;
nodes = (
"950 -193 OFFCURVE",
"891 -134 OFFCURVE",
"772 -109 CURVE",
"825 0 LINE",
"706 0 LINE",
"618 -176 LINE",
"743 -192 OFFCURVE",
"805 -230 OFFCURVE",
"805 -289 CURVE SMOOTH",
"805 -357 OFFCURVE",
"753 -379 OFFCURVE",
"653 -379 CURVE SMOOTH",
"605 -379 OFFCURVE",
"569 -376 OFFCURVE",
"545 -369 CURVE",
"545 -481 LINE",
"570 -488 OFFCURVE",
"604 -492 OFFCURVE",
"647 -492 CURVE SMOOTH",
"850 -492 OFFCURVE",
"950 -417 OFFCURVE",
"950 -285 CURVE SMOOTH"
);
}
);
};
components = (
{
name = C;
},
{
name = cedillacomb;
transform = "{1, 0, 0, 1, 359, -20}";
}
);
layerId = "6418A72B-B7AF-4A99-B2A7-67092BA5BFD7";
width = 703;
}
);
leftKerningGroup = O;
note = Ccedilla;
rightKerningGroup = C;
unicode = 00C7;
},
{
glyphname = Ccircumflex;
lastChange = "2016-07-13 21:35:07 +0000";
layers = (
{
background = {
paths = (
{
closed = 1;
nodes = (
"930 1321 OFFCURVE",
"1040 1294 OFFCURVE",
"1157 1241 CURVE",
"1231 1397 LINE",
"1116 1454 OFFCURVE",
"982 1483 OFFCURVE",
"827 1483 CURVE SMOOTH",
"683 1483 OFFCURVE",
"558 1452 OFFCURVE",
"452 1391 CURVE SMOOTH",
"239 1268 OFFCURVE",
"125 1034 OFFCURVE",
"125 733 CURVE SMOOTH",
"125 253 OFFCURVE",
"366 -20 OFFCURVE",
"797 -20 CURVE SMOOTH",
"946 -20 OFFCURVE",
"1050 -6 OFFCURVE",
"1174 39 CURVE",
"1174 199 LINE",
"1044 160 OFFCURVE",
"927 141 OFFCURVE",
"823 141 CURVE SMOOTH",
"500 141 OFFCURVE",
"319 354 OFFCURVE",
"319 731 CURVE SMOOTH",
"319 1096 OFFCURVE",
"510 1321 OFFCURVE",
"825 1321 CURVE SMOOTH"
);
},
{
closed = 1;
nodes = (
"573 1579 LINE",
"632 1616 OFFCURVE",
"705 1678 OFFCURVE",
"792 1763 CURVE",
"881 1676 OFFCURVE",
"955 1614 OFFCURVE",
"1015 1579 CURVE",
"1142 1579 LINE",
"1142 1602 LINE",
"1006 1738 OFFCURVE",
"921 1840 OFFCURVE",
"886 1907 CURVE",
"702 1907 LINE",
"686 1878 OFFCURVE",
"661 1843 OFFCURVE",
"627 1800 CURVE SMOOTH",
"592 1757 OFFCURVE",
"533 1691 OFFCURVE",
"450 1602 CURVE",
"450 1579 LINE"
);
}
);
};
components = (
{
name = C;
},
{
name = circumflexcomb;
transform = "{1, 0, 0, 1, 243, 300}";
}
);
layerId = "6418A72B-B7AF-4A99-B2A7-67092BA5BFD7";
width = 703;
}
);
leftKerningGroup = O;
note = Ccircumflex;
rightKerningGroup = C;
unicode = 0108;
},
{
glyphname = Cdotaccent;
lastChange = "2016-07-13 21:35:07 +0000";
layers = (
{
background = {
paths = (
{
closed = 1;
nodes = (
"930 1321 OFFCURVE",
"1040 1294 OFFCURVE",
"1157 1241 CURVE",
"1231 1397 LINE",
"1116 1454 OFFCURVE",
"982 1483 OFFCURVE",
"827 1483 CURVE SMOOTH",
"683 1483 OFFCURVE",
"558 1452 OFFCURVE",
"452 1391 CURVE SMOOTH",
"239 1268 OFFCURVE",
"125 1034 OFFCURVE",
"125 733 CURVE SMOOTH",
"125 253 OFFCURVE",
"366 -20 OFFCURVE",
"797 -20 CURVE SMOOTH",
"946 -20 OFFCURVE",
"1050 -6 OFFCURVE",
"1174 39 CURVE",
"1174 199 LINE",
"1044 160 OFFCURVE",
"927 141 OFFCURVE",
"823 141 CURVE SMOOTH",
"500 141 OFFCURVE",
"319 354 OFFCURVE",
"319 731 CURVE SMOOTH",
"319 1096 OFFCURVE",
"510 1321 OFFCURVE",
"825 1321 CURVE SMOOTH"
);
},
{
closed = 1;
nodes = (
"690 1654 OFFCURVE",
"736 1618 OFFCURVE",
"796 1618 CURVE SMOOTH",
"852 1618 OFFCURVE",
"901 1654 OFFCURVE",
"901 1733 CURVE SMOOTH",
"901 1813 OFFCURVE",
"852 1847 OFFCURVE",
"796 1847 CURVE SMOOTH",
"736 1847 OFFCURVE",
"690 1813 OFFCURVE",
"690 1733 CURVE SMOOTH"
);
}
);
};
components = (
{
name = C;
},
{
name = dotaccentcomb;
transform = "{1, 0, 0, 1, 397, 300}";
}
);
layerId = "6418A72B-B7AF-4A99-B2A7-67092BA5BFD7";
width = 703;
}
);
leftKerningGroup = O;
note = Cdotaccent;
rightKerningGroup = C;
unicode = 010A;
},
{
glyphname = D;
lastChange = "2016-07-14 00:51:39 +0000";
layers = (
{
anchors = (
{
name = bottom;
position = "{267, 0}";
},
{
name = center;
position = "{267, 375}";
},
{
name = top;
position = "{252, 750}";
}
);
background = {
paths = (
{
closed = 1;
nodes = (
"1370 1201 OFFCURVE",
"1104 1462 OFFCURVE",
"649 1462 CURVE SMOOTH",
"199 1462 LINE",
"199 0 LINE",
"606 0 LINE SMOOTH",
"1098 0 OFFCURVE",
"1370 262 OFFCURVE",
"1370 745 CURVE SMOOTH"
);
},
{
closed = 1;
nodes = (
"1176 352 OFFCURVE",
"978 158 OFFCURVE",
"582 158 CURVE SMOOTH",
"383 158 LINE",
"383 1305 LINE",
"623 1305 LINE SMOOTH",
"994 1305 OFFCURVE",
"1176 1111 OFFCURVE",
"1176 739 CURVE SMOOTH"
);
}
);
};
layerId = "6418A72B-B7AF-4A99-B2A7-67092BA5BFD7";
paths = (
{
closed = 1;
nodes = (
"111 0 LINE SMOOTH",
"320 0 OFFCURVE",
"485 165 OFFCURVE",
"485 375 CURVE SMOOTH",
"485 615 OFFCURVE",
"350 750 OFFCURVE",
"111 750 CURVE SMOOTH",
"79 750 LINE",
"79 0 LINE"
);
},
{
closed = 1;
nodes = (
"111 720 LINE",
"119 720 LINE SMOOTH",
"332 720 OFFCURVE",
"452 596 OFFCURVE",
"452 375 CURVE SMOOTH",
"452 182 OFFCURVE",
"305 31 OFFCURVE",
"119 31 CURVE SMOOTH",
"111 31 LINE"
);
}
);
width = 532;
}
);
leftKerningGroup = H;
note = D;
rightKerningGroup = O;
unicode = 0044;
},
{
glyphname = Eth;
lastChange = "2016-07-14 00:51:39 +0000";
layers = (
{
background = {
paths = (
{
closed = 1;
nodes = (
"1370 1198 OFFCURVE",
"1104 1462 OFFCURVE",
"649 1462 CURVE SMOOTH",
"213 1462 LINE",
"213 803 LINE",
"61 803 LINE",
"61 643 LINE",
"213 643 LINE",
"213 0 LINE",
"604 0 LINE SMOOTH",
"1101 0 OFFCURVE",
"1370 266 OFFCURVE",
"1370 745 CURVE SMOOTH"
);
},
{
closed = 1;
nodes = (
"1176 352 OFFCURVE",
"978 158 OFFCURVE",
"582 158 CURVE SMOOTH",
"397 158 LINE",
"397 643 LINE",
"762 643 LINE",
"762 803 LINE",
"397 803 LINE",
"397 1305 LINE",
"623 1305 LINE SMOOTH",
"990 1305 OFFCURVE",
"1176 1112 OFFCURVE",
"1176 739 CURVE SMOOTH"
);
}
);
};
layerId = "6418A72B-B7AF-4A99-B2A7-67092BA5BFD7";
paths = (
{
closed = 1;
nodes = (
"108 0 LINE SMOOTH",
"333 0 OFFCURVE",
"482 169 OFFCURVE",
"482 375 CURVE SMOOTH",
"482 581 OFFCURVE",
"332 750 OFFCURVE",
"108 750 CURVE SMOOTH",
"76 750 LINE",
"76 390 LINE",
"16 390 LINE",
"16 361 LINE",
"76 361 LINE",
"76 0 LINE"
);
},
{
closed = 1;
nodes = (
"108 361 LINE",
"232 361 LINE",
"232 390 LINE",
"108 390 LINE",
"108 720 LINE",
"116 720 LINE SMOOTH",
"311 720 OFFCURVE",
"449 563 OFFCURVE",
"449 375 CURVE SMOOTH",
"449 186 OFFCURVE",
"311 31 OFFCURVE",
"116 31 CURVE SMOOTH",
"108 31 LINE"
);
}
);
width = 529;
}
);
leftKerningGroup = H;
note = Eth;
rightKerningGroup = O;
unicode = 00D0;
},
{
glyphname = Dcaron;
lastChange = "2016-07-13 23:07:29 +0000";
layers = (
{
background = {
paths = (
{
closed = 1;
nodes = (
"1370 1201 OFFCURVE",
"1104 1462 OFFCURVE",
"649 1462 CURVE SMOOTH",
"199 1462 LINE",
"199 0 LINE",
"606 0 LINE SMOOTH",
"1098 0 OFFCURVE",
"1370 262 OFFCURVE",
"1370 745 CURVE SMOOTH"
);
},
{
closed = 1;
nodes = (
"1176 352 OFFCURVE",
"978 158 OFFCURVE",
"582 158 CURVE SMOOTH",
"383 158 LINE",
"383 1305 LINE",
"623 1305 LINE SMOOTH",
"994 1305 OFFCURVE",
"1176 1111 OFFCURVE",
"1176 739 CURVE SMOOTH"
);
},
{
closed = 1;
nodes = (
"476 1747 OFFCURVE",
"560 1647 OFFCURVE",
"600 1579 CURVE",
"784 1579 LINE",
"818 1643 OFFCURVE",
"903 1743 OFFCURVE",
"1040 1880 CURVE",
"1040 1907 LINE",
"913 1907 LINE",
"848 1865 OFFCURVE",
"774 1802 OFFCURVE",
"690 1718 CURVE",
"620 1795 OFFCURVE",
"547 1858 OFFCURVE",
"471 1907 CURVE",
"348 1907 LINE",
"348 1880 LINE"
);
}
);
};
components = (
{
name = D;
},
{
name = caroncomb;
transform = "{1, 0, 0, 1, 86, 300}";
}
);
layerId = "6418A72B-B7AF-4A99-B2A7-67092BA5BFD7";
width = 532;
}
);
leftKerningGroup = H;
note = Dcaron;
rightKerningGroup = O;
unicode = 010E;
},
{
glyphname = Dcroat;
lastChange = "2016-07-13 23:07:34 +0000";
layers = (
{
background = {
paths = (
{
closed = 1;
nodes = (
"1370 1198 OFFCURVE",
"1104 1462 OFFCURVE",
"649 1462 CURVE SMOOTH",
"213 1462 LINE",
"213 803 LINE",
"61 803 LINE",
"61 643 LINE",
"213 643 LINE",
"213 0 LINE",
"604 0 LINE SMOOTH",
"1101 0 OFFCURVE",
"1370 266 OFFCURVE",
"1370 745 CURVE SMOOTH"
);
},
{
closed = 1;
nodes = (
"1176 352 OFFCURVE",
"978 158 OFFCURVE",
"582 158 CURVE SMOOTH",
"397 158 LINE",
"397 643 LINE",
"762 643 LINE",
"762 803 LINE",
"397 803 LINE",
"397 1305 LINE",
"623 1305 LINE SMOOTH",
"990 1305 OFFCURVE",
"1176 1112 OFFCURVE",
"1176 739 CURVE SMOOTH"
);
}
);
};
components = (
{
name = Eth;
}
);
layerId = "6418A72B-B7AF-4A99-B2A7-67092BA5BFD7";
width = 529;
}
);
leftKerningGroup = H;
note = Dcroat;
rightKerningGroup = O;
unicode = 0110;
},
{
glyphname = E;
lastChange = "2016-07-26 19:57:40 +0000";
layers = (
{
anchors = (
{
name = bottom;
position = "{222, 0}";
},
{
name = ogonek;
position = "{348, 0}";
},
{
name = top;
position = "{229, 750}";
},
{
name = topleft;
position = "{79, 750}";
}
);
background = {
paths = (
{
closed = 1;
nodes = (
"383 162 LINE",
"383 684 LINE",
"979 684 LINE",
"979 844 LINE",
"383 844 LINE",
"383 1300 LINE",
"1016 1300 LINE",
"1016 1462 LINE",
"199 1462 LINE",
"199 0 LINE",
"1016 0 LINE",
"1016 162 LINE"
);
}
);
};
layerId = "6418A72B-B7AF-4A99-B2A7-67092BA5BFD7";
paths = (
{
closed = 1;
nodes = (
"348 0 LINE",
"348 29 LINE",
"112 29 LINE",
"112 284 LINE",
"309 284 LINE",
"309 313 LINE",
"112 313 LINE",
"112 721 LINE",
"348 721 LINE",
"348 750 LINE",
"79 750 LINE",
"79 0 LINE"
);
}
);
width = 374;
}
);
leftKerningGroup = H;
note = E;
rightKerningGroup = E;
unicode = 0045;
},
{
glyphname = Eacute;
lastChange = "2016-07-13 21:35:07 +0000";
layers = (
{
background = {
paths = (
{
closed = 1;
nodes = (
"383 162 LINE",
"383 684 LINE",
"979 684 LINE",
"979 844 LINE",
"383 844 LINE",
"383 1300 LINE",
"1016 1300 LINE",
"1016 1462 LINE",
"199 1462 LINE",
"199 0 LINE",
"1016 0 LINE",
"1016 162 LINE"
);
},
{
closed = 1;
nodes = (
"572 1579 LINE",
"656 1644 OFFCURVE",
"806 1801 OFFCURVE",
"865 1886 CURVE",
"865 1907 LINE",
"648 1907 LINE",
"595 1803 OFFCURVE",
"504 1668 OFFCURVE",
"453 1604 CURVE",
"453 1579 LINE"
);
}
);
};
components = (
{
name = E;
},
{
name = acutecomb.case;
transform = "{1, 0, 0, 1, 145, 0}";
}
);
layerId = "6418A72B-B7AF-4A99-B2A7-67092BA5BFD7";
width = 374;
}
);
leftKerningGroup = H;
note = Eacute;
rightKerningGroup = E;
unicode = 00C9;
},
{
glyphname = Ebreve;
lastChange = "2016-07-13 21:35:07 +0000";
layers = (
{
background = {
paths = (
{
closed = 1;
nodes = (
"383 162 LINE",
"383 684 LINE",
"979 684 LINE",
"979 844 LINE",
"383 844 LINE",
"383 1300 LINE",
"1016 1300 LINE",
"1016 1462 LINE",
"199 1462 LINE",
"199 0 LINE",
"1016 0 LINE",
"1016 162 LINE"
);
},
{
closed = 1;
nodes = (
"797 1579 OFFCURVE",
"919 1679 OFFCURVE",
"936 1854 CURVE",
"823 1854 LINE",
"812 1765 OFFCURVE",
"751 1724 OFFCURVE",
"616 1724 CURVE SMOOTH",
"463 1724 OFFCURVE",
"420 1759 OFFCURVE",
"409 1854 CURVE",
"299 1854 LINE",
"311 1671 OFFCURVE",
"424 1579 OFFCURVE",
"612 1579 CURVE SMOOTH"
);
}
);
};
components = (
{
name = E;
},
{
name = brevecomb;
transform = "{1, 0, 0, 1, 89, 300}";
}
);
layerId = "6418A72B-B7AF-4A99-B2A7-67092BA5BFD7";
width = 374;
}
);
leftKerningGroup = H;
note = Ebreve;
rightKerningGroup = E;
unicode = 0114;
},
{
glyphname = Ecaron;
lastChange = "2016-07-13 21:35:07 +0000";
layers = (
{
background = {
paths = (
{
closed = 1;
nodes = (
"383 162 LINE",
"383 684 LINE",
"979 684 LINE",
"979 844 LINE",
"383 844 LINE",
"383 1300 LINE",
"1016 1300 LINE",
"1016 1462 LINE",
"199 1462 LINE",
"199 0 LINE",
"1016 0 LINE",
"1016 162 LINE"
);
},
{
closed = 1;
nodes = (
"400 1747 OFFCURVE",
"484 1647 OFFCURVE",
"524 1579 CURVE",
"708 1579 LINE",
"742 1643 OFFCURVE",
"827 1743 OFFCURVE",
"964 1880 CURVE",
"964 1907 LINE",
"837 1907 LINE",
"772 1865 OFFCURVE",
"698 1802 OFFCURVE",
"614 1718 CURVE",
"544 1795 OFFCURVE",
"471 1858 OFFCURVE",
"395 1907 CURVE",
"272 1907 LINE",
"272 1880 LINE"
);
}
);
};
components = (
{
name = E;
},
{
name = caroncomb;
transform = "{1, 0, 0, 1, 63, 300}";
}
);
layerId = "6418A72B-B7AF-4A99-B2A7-67092BA5BFD7";
width = 374;
}
);
leftKerningGroup = H;
note = Ecaron;
rightKerningGroup = E;
unicode = 011A;
},
{
glyphname = Ecircumflex;
lastChange = "2016-07-13 21:35:07 +0000";
layers = (
{
background = {
paths = (
{
closed = 1;
nodes = (
"383 162 LINE",
"383 684 LINE",
"979 684 LINE",
"979 844 LINE",
"383 844 LINE",
"383 1300 LINE",
"1016 1300 LINE",
"1016 1462 LINE",
"199 1462 LINE",
"199 0 LINE",
"1016 0 LINE",
"1016 162 LINE"
);
},
{
closed = 1;
nodes = (
"378 1579 LINE",
"437 1616 OFFCURVE",
"510 1678 OFFCURVE",
"597 1763 CURVE",
"686 1676 OFFCURVE",
"760 1614 OFFCURVE",
"820 1579 CURVE",
"947 1579 LINE",
"947 1602 LINE",
"811 1738 OFFCURVE",
"726 1840 OFFCURVE",
"691 1907 CURVE",
"507 1907 LINE",
"491 1878 OFFCURVE",
"466 1843 OFFCURVE",
"432 1800 CURVE SMOOTH",
"397 1757 OFFCURVE",
"338 1691 OFFCURVE",
"255 1602 CURVE",
"255 1579 LINE"
);
}
);
};
components = (
{
name = E;
},
{
name = circumflexcomb;
transform = "{1, 0, 0, 1, 31, 300}";
}
);
layerId = "6418A72B-B7AF-4A99-B2A7-67092BA5BFD7";
width = 374;
}
);
leftKerningGroup = H;
note = Ecircumflex;
rightKerningGroup = E;
unicode = 00CA;
},
{
glyphname = Edieresis;
lastChange = "2016-07-13 21:35:07 +0000";
layers = (
{
background = {
paths = (
{
closed = 1;
nodes = (
"383 162 LINE",
"383 684 LINE",
"979 684 LINE",
"979 844 LINE",
"383 844 LINE",
"383 1300 LINE",
"1016 1300 LINE",
"1016 1462 LINE",
"199 1462 LINE",
"199 0 LINE",
"1016 0 LINE",
"1016 162 LINE"
);
},
{
closed = 1;
nodes = (
"319 1662 OFFCURVE",
"362 1630 OFFCURVE",
"415 1630 CURVE SMOOTH",
"467 1630 OFFCURVE",
"512 1662 OFFCURVE",
"512 1733 CURVE SMOOTH",
"512 1804 OFFCURVE",
"467 1833 OFFCURVE",
"415 1833 CURVE SMOOTH",
"362 1833 OFFCURVE",
"319 1804 OFFCURVE",
"319 1733 CURVE SMOOTH"
);
},
{
closed = 1;
nodes = (
"704 1662 OFFCURVE",
"747 1630 OFFCURVE",
"798 1630 CURVE SMOOTH",
"850 1630 OFFCURVE",
"895 1662 OFFCURVE",
"895 1733 CURVE SMOOTH",
"895 1804 OFFCURVE",
"850 1833 OFFCURVE",
"798 1833 CURVE SMOOTH",
"747 1833 OFFCURVE",
"704 1804 OFFCURVE",
"704 1733 CURVE SMOOTH"
);
}
);
};
components = (
{
name = E;
},
{
name = dieresiscomb.case;
transform = "{1, 0, 0, 1, 98, 0}";
}
);
layerId = "6418A72B-B7AF-4A99-B2A7-67092BA5BFD7";
width = 374;
}
);
leftKerningGroup = H;
note = Edieresis;
rightKerningGroup = E;
unicode = 00CB;
},
{
glyphname = Edotaccent;
lastChange = "2016-07-13 21:35:07 +0000";
layers = (
{
background = {
paths = (
{
closed = 1;
nodes = (
"383 162 LINE",
"383 684 LINE",
"979 684 LINE",
"979 844 LINE",
"383 844 LINE",
"383 1300 LINE",
"1016 1300 LINE",
"1016 1462 LINE",
"199 1462 LINE",
"199 0 LINE",
"1016 0 LINE",
"1016 162 LINE"
);
},
{
closed = 1;
nodes = (
"518 1625 OFFCURVE",
"564 1589 OFFCURVE",
"624 1589 CURVE SMOOTH",
"680 1589 OFFCURVE",
"729 1625 OFFCURVE",
"729 1704 CURVE SMOOTH",
"729 1784 OFFCURVE",
"680 1818 OFFCURVE",
"624 1818 CURVE SMOOTH",
"564 1818 OFFCURVE",
"518 1784 OFFCURVE",
"518 1704 CURVE SMOOTH"
);
}
);
};
components = (
{
name = E;
},
{
name = dotaccentcomb;
transform = "{1, 0, 0, 1, 185, 300}";
}
);
layerId = "6418A72B-B7AF-4A99-B2A7-67092BA5BFD7";
width = 374;
}
);
leftKerningGroup = H;
note = Edotaccent;
rightKerningGroup = E;
unicode = 0116;
},
{
glyphname = Egrave;
lastChange = "2016-07-13 21:35:07 +0000";
layers = (
{
background = {
paths = (
{
closed = 1;
nodes = (
"383 162 LINE",
"383 684 LINE",
"979 684 LINE",
"979 844 LINE",
"383 844 LINE",
"383 1300 LINE",
"1016 1300 LINE",
"1016 1462 LINE",
"199 1462 LINE",
"199 0 LINE",
"1016 0 LINE",
"1016 162 LINE"
);
},
{
closed = 1;
nodes = (
"663 1676 OFFCURVE",
"572 1819 OFFCURVE",
"529 1907 CURVE",
"314 1907 LINE",
"314 1886 LINE",
"363 1811 OFFCURVE",
"505 1659 OFFCURVE",
"605 1579 CURVE",
"726 1579 LINE",
"726 1604 LINE"
);
}
);
};
components = (
{
name = E;
},
{
name = gravecomb.case;
transform = "{1, 0, 0, 1, 88, 0}";
}
);
layerId = "6418A72B-B7AF-4A99-B2A7-67092BA5BFD7";
width = 374;
}
);
leftKerningGroup = H;
note = Egrave;
rightKerningGroup = E;
unicode = 00C8;
},
{
glyphname = Emacron;
lastChange = "2016-07-13 21:35:07 +0000";
layers = (
{
background = {
paths = (
{
closed = 1;
nodes = (
"383 162 LINE",
"383 684 LINE",
"979 684 LINE",
"979 844 LINE",
"383 844 LINE",
"383 1300 LINE",
"1016 1300 LINE",
"1016 1462 LINE",
"199 1462 LINE",
"199 0 LINE",
"1016 0 LINE",
"1016 162 LINE"
);
},
{
closed = 1;
nodes = (
"911 1579 LINE",
"911 1724 LINE",
"303 1724 LINE",
"303 1579 LINE"
);
}
);
};
layerId = "6418A72B-B7AF-4A99-B2A7-67092BA5BFD7";
paths = (
{
closed = 1;
nodes = (
"348 0 LINE",
"348 29 LINE",
"112 29 LINE",
"112 284 LINE",
"309 284 LINE",
"309 313 LINE",
"112 313 LINE",
"112 721 LINE",
"348 721 LINE",
"348 750 LINE",
"79 750 LINE",
"79 0 LINE"
);
}
);
width = 374;
}
);
leftKerningGroup = H;
note = Emacron;
rightKerningGroup = E;
unicode = 0112;
},
{
glyphname = Eogonek;
lastChange = "2016-07-26 19:57:40 +0000";
layers = (
{
background = {
paths = (
{
closed = 1;
nodes = (
"383 162 LINE",
"383 684 LINE",
"979 684 LINE",
"979 844 LINE",
"383 844 LINE",
"383 1300 LINE",
"1016 1300 LINE",
"1016 1462 LINE",
"199 1462 LINE",
"199 0 LINE",
"1016 0 LINE",
"1016 162 LINE"
);
},
{
closed = 1;
nodes = (
"803 -154 OFFCURVE",
"850 -88 OFFCURVE",
"943 0 CURVE",
"816 0 LINE",
"709 -79 OFFCURVE",
"656 -165 OFFCURVE",
"656 -258 CURVE SMOOTH",
"656 -387 OFFCURVE",
"726 -451 OFFCURVE",
"867 -451 CURVE SMOOTH",
"906 -451 OFFCURVE",
"948 -445 OFFCURVE",
"994 -432 CURVE",
"994 -317 LINE",
"957 -326 OFFCURVE",
"924 -330 OFFCURVE",
"895 -330 CURVE SMOOTH",
"838 -330 OFFCURVE",
"803 -299 OFFCURVE",
"803 -238 CURVE SMOOTH"
);
}
);
};
components = (
{
name = E;
},
{
name = ogonekcomb;
transform = "{1, 0, 0, 1, 218, 0}";
}
);
layerId = "6418A72B-B7AF-4A99-B2A7-67092BA5BFD7";
width = 374;
}
);
leftKerningGroup = H;
note = Eogonek;
rightKerningGroup = E;
unicode = 0118;
},
{
glyphname = F;
lastChange = "2016-07-13 21:35:07 +0000";
layers = (
{
background = {
paths = (
{
closed = 1;
nodes = (
"977 621 LINE",
"977 782 LINE",
"383 782 LINE",
"383 1300 LINE",
"1016 1300 LINE",
"1016 1462 LINE",
"199 1462 LINE",
"199 0 LINE",
"383 0 LINE",
"383 621 LINE"
);
}
);
};
layerId = "6418A72B-B7AF-4A99-B2A7-67092BA5BFD7";
paths = (
{
closed = 1;
nodes = (
"112 0 LINE",
"112 286 LINE",
"307 286 LINE",
"307 315 LINE",
"112 315 LINE",
"112 721 LINE",
"346 721 LINE",
"346 750 LINE",
"79 750 LINE",
"79 0 LINE"
);
}
);
width = 372;
}
);
leftKerningGroup = H;
note = F;
rightKerningGroup = F;
unicode = 0046;
},
{
glyphname = G;
lastChange = "2016-07-13 21:35:07 +0000";
layers = (
{
anchors = (
{
name = bottom;
position = "{438, 0}";
},
{
name = top;
position = "{422, 750}";
}
);
background = {
paths = (
{
closed = 1;
nodes = (
"1155 608 LINE",
"1155 174 LINE",
"1062 151 OFFCURVE",
"966 139 OFFCURVE",
"868 139 CURVE SMOOTH",
"509 139 OFFCURVE",
"317 344 OFFCURVE",
"317 731 CURVE SMOOTH",
"317 1096 OFFCURVE",
"524 1321 OFFCURVE",
"872 1321 CURVE SMOOTH",
"995 1321 OFFCURVE",
"1120 1293 OFFCURVE",
"1249 1237 CURVE",
"1319 1397 LINE",
"1184 1454 OFFCURVE",
"1039 1483 OFFCURVE",
"883 1483 CURVE SMOOTH",
"728 1483 OFFCURVE",
"593 1453 OFFCURVE",
"479 1393 CURVE SMOOTH",
"250 1272 OFFCURVE",
"125 1036 OFFCURVE",
"125 731 CURVE SMOOTH",
"125 258 OFFCURVE",
"380 -20 OFFCURVE",
"825 -20 CURVE SMOOTH",
"1036 -20 OFFCURVE",
"1184 6 OFFCURVE",
"1339 55 CURVE",
"1339 772 LINE",
"834 772 LINE",
"834 608 LINE"
);
}
);
};
components = (
{
name = C;
}
);
layerId = "6418A72B-B7AF-4A99-B2A7-67092BA5BFD7";
paths = (
{
closed = 1;
nodes = (
"638 315 LINE",
"357 315 LINE",
"357 286 LINE",
"605 286 LINE",
"605 47 LINE",
"638 44 LINE"
);
}
);
width = 696;
}
);
leftKerningGroup = O;
note = G;
rightKerningGroup = G;
unicode = 0047;
},
{
glyphname = Gbreve;
lastChange = "2016-07-13 21:35:07 +0000";
layers = (
{
background = {
paths = (
{
closed = 1;
nodes = (
"1155 608 LINE",
"1155 174 LINE",
"1062 151 OFFCURVE",
"966 139 OFFCURVE",
"868 139 CURVE SMOOTH",
"509 139 OFFCURVE",
"317 344 OFFCURVE",
"317 731 CURVE SMOOTH",
"317 1096 OFFCURVE",
"524 1321 OFFCURVE",
"872 1321 CURVE SMOOTH",
"995 1321 OFFCURVE",
"1120 1293 OFFCURVE",
"1249 1237 CURVE",
"1319 1397 LINE",
"1184 1454 OFFCURVE",
"1039 1483 OFFCURVE",
"883 1483 CURVE SMOOTH",
"728 1483 OFFCURVE",
"593 1453 OFFCURVE",
"479 1393 CURVE SMOOTH",
"250 1272 OFFCURVE",
"125 1036 OFFCURVE",
"125 731 CURVE SMOOTH",
"125 258 OFFCURVE",
"380 -20 OFFCURVE",
"825 -20 CURVE SMOOTH",
"1036 -20 OFFCURVE",
"1184 6 OFFCURVE",
"1339 55 CURVE",
"1339 772 LINE",
"834 772 LINE",
"834 608 LINE"
);
},
{
closed = 1;
nodes = (
"1033 1579 OFFCURVE",
"1155 1679 OFFCURVE",
"1172 1854 CURVE",
"1059 1854 LINE",
"1048 1765 OFFCURVE",
"987 1724 OFFCURVE",
"852 1724 CURVE SMOOTH",
"699 1724 OFFCURVE",
"656 1759 OFFCURVE",
"645 1854 CURVE",
"535 1854 LINE",
"547 1671 OFFCURVE",
"660 1579 OFFCURVE",
"848 1579 CURVE SMOOTH"
);
}
);
};
components = (
{
name = G;
},
{
name = brevecomb;
transform = "{1, 0, 0, 1, 282, 300}";
}
);
layerId = "6418A72B-B7AF-4A99-B2A7-67092BA5BFD7";
width = 696;
}
);
leftKerningGroup = O;
note = Gbreve;
rightKerningGroup = G;
unicode = 011E;
},
{
glyphname = Gcaron;
lastChange = "2016-07-13 22:59:54 +0000";
layers = (
{
background = {
paths = (
{
closed = 1;
nodes = (
"1155 608 LINE",
"1155 174 LINE",
"1062 151 OFFCURVE",
"966 139 OFFCURVE",
"868 139 CURVE SMOOTH",
"509 139 OFFCURVE",
"317 344 OFFCURVE",
"317 731 CURVE SMOOTH",
"317 1096 OFFCURVE",
"524 1321 OFFCURVE",
"872 1321 CURVE SMOOTH",
"995 1321 OFFCURVE",
"1120 1293 OFFCURVE",
"1249 1237 CURVE",
"1319 1397 LINE",
"1184 1454 OFFCURVE",
"1039 1483 OFFCURVE",
"883 1483 CURVE SMOOTH",
"728 1483 OFFCURVE",
"593 1453 OFFCURVE",
"479 1393 CURVE SMOOTH",
"250 1272 OFFCURVE",
"125 1036 OFFCURVE",
"125 731 CURVE SMOOTH",
"125 258 OFFCURVE",
"380 -20 OFFCURVE",
"825 -20 CURVE SMOOTH",
"1036 -20 OFFCURVE",
"1184 6 OFFCURVE",
"1339 55 CURVE",
"1339 772 LINE",
"834 772 LINE",
"834 608 LINE"
);
},
{
closed = 1;
nodes = (
"636 1747 OFFCURVE",
"720 1647 OFFCURVE",
"760 1579 CURVE",
"944 1579 LINE",
"978 1643 OFFCURVE",
"1063 1743 OFFCURVE",
"1200 1880 CURVE",
"1200 1907 LINE",
"1073 1907 LINE",
"1008 1865 OFFCURVE",
"934 1802 OFFCURVE",
"850 1718 CURVE",
"780 1795 OFFCURVE",
"707 1858 OFFCURVE",
"631 1907 CURVE",
"508 1907 LINE",
"508 1880 LINE"
);
}
);
};
components = (
{
name = G;
},
{
name = caroncomb;
transform = "{1, 0, 0, 1, 256, 300}";
}
);
layerId = "6418A72B-B7AF-4A99-B2A7-67092BA5BFD7";
width = 696;
}
);
leftKerningGroup = O;
rightKerningGroup = G;
unicode = 01E6;
},
{
glyphname = Gcircumflex;
lastChange = "2016-07-13 21:35:07 +0000";
layers = (
{
background = {
paths = (
{
closed = 1;
nodes = (
"1155 608 LINE",
"1155 174 LINE",
"1062 151 OFFCURVE",
"966 139 OFFCURVE",
"868 139 CURVE SMOOTH",
"509 139 OFFCURVE",
"317 344 OFFCURVE",
"317 731 CURVE SMOOTH",
"317 1096 OFFCURVE",
"524 1321 OFFCURVE",
"872 1321 CURVE SMOOTH",
"995 1321 OFFCURVE",
"1120 1293 OFFCURVE",
"1249 1237 CURVE",
"1319 1397 LINE",
"1184 1454 OFFCURVE",
"1039 1483 OFFCURVE",
"883 1483 CURVE SMOOTH",
"728 1483 OFFCURVE",
"593 1453 OFFCURVE",
"479 1393 CURVE SMOOTH",
"250 1272 OFFCURVE",
"125 1036 OFFCURVE",
"125 731 CURVE SMOOTH",
"125 258 OFFCURVE",
"380 -20 OFFCURVE",
"825 -20 CURVE SMOOTH",
"1036 -20 OFFCURVE",
"1184 6 OFFCURVE",
"1339 55 CURVE",
"1339 772 LINE",
"834 772 LINE",
"834 608 LINE"
);
},
{
closed = 1;
nodes = (
"631 1579 LINE",
"690 1616 OFFCURVE",
"763 1678 OFFCURVE",
"850 1763 CURVE",
"939 1676 OFFCURVE",
"1013 1614 OFFCURVE",
"1073 1579 CURVE",
"1200 1579 LINE",
"1200 1602 LINE",
"1064 1738 OFFCURVE",
"979 1840 OFFCURVE",
"944 1907 CURVE",
"760 1907 LINE",
"744 1878 OFFCURVE",
"719 1843 OFFCURVE",
"685 1800 CURVE SMOOTH",
"650 1757 OFFCURVE",
"591 1691 OFFCURVE",
"508 1602 CURVE",
"508 1579 LINE"
);
}
);
};
components = (
{
name = G;
},
{
name = circumflexcomb;
transform = "{1, 0, 0, 1, 224, 300}";
}
);
layerId = "6418A72B-B7AF-4A99-B2A7-67092BA5BFD7";
width = 696;
}
);
leftKerningGroup = O;
note = Gcircumflex;
rightKerningGroup = G;
unicode = 011C;
},
{
glyphname = Gcommaaccent;
lastChange = "2016-07-13 22:59:54 +0000";
layers = (
{
background = {
paths = (
{
closed = 1;
nodes = (
"1155 608 LINE",
"1155 174 LINE",
"1062 151 OFFCURVE",
"966 139 OFFCURVE",
"868 139 CURVE SMOOTH",
"509 139 OFFCURVE",
"317 344 OFFCURVE",
"317 731 CURVE SMOOTH",
"317 1096 OFFCURVE",
"524 1321 OFFCURVE",
"872 1321 CURVE SMOOTH",
"995 1321 OFFCURVE",
"1120 1293 OFFCURVE",
"1249 1237 CURVE",
"1319 1397 LINE",
"1184 1454 OFFCURVE",
"1039 1483 OFFCURVE",
"883 1483 CURVE SMOOTH",
"728 1483 OFFCURVE",
"593 1453 OFFCURVE",
"479 1393 CURVE SMOOTH",
"250 1272 OFFCURVE",
"125 1036 OFFCURVE",
"125 731 CURVE SMOOTH",
"125 258 OFFCURVE",
"380 -20 OFFCURVE",
"825 -20 CURVE SMOOTH",
"1036 -20 OFFCURVE",
"1184 6 OFFCURVE",
"1339 55 CURVE",
"1339 772 LINE",
"834 772 LINE",
"834 608 LINE"
);
},
{
closed = 1;
nodes = (
"758 -453 LINE",
"826 -373 OFFCURVE",
"901 -227 OFFCURVE",
"922 -143 CURVE",
"922 -125 LINE",
"744 -125 LINE",
"733 -213 OFFCURVE",
"689 -360 OFFCURVE",
"660 -428 CURVE",
"660 -453 LINE"
);
}
);
};
components = (
{
name = G;
},
{
name = commaaccentcomb.case;
transform = "{1, 0, 0, 1, 354, 0}";
}
);
layerId = "6418A72B-B7AF-4A99-B2A7-67092BA5BFD7";
width = 696;
}
);
leftKerningGroup = O;
rightKerningGroup = G;
unicode = 0122;
},
{
glyphname = Gdotaccent;
lastChange = "2016-07-13 21:35:07 +0000";
layers = (
{
background = {
paths = (
{
closed = 1;
nodes = (
"1155 608 LINE",
"1155 174 LINE",
"1062 151 OFFCURVE",
"966 139 OFFCURVE",
"868 139 CURVE SMOOTH",
"509 139 OFFCURVE",
"317 344 OFFCURVE",
"317 731 CURVE SMOOTH",
"317 1096 OFFCURVE",
"524 1321 OFFCURVE",
"872 1321 CURVE SMOOTH",
"995 1321 OFFCURVE",
"1120 1293 OFFCURVE",
"1249 1237 CURVE",
"1319 1397 LINE",
"1184 1454 OFFCURVE",
"1039 1483 OFFCURVE",
"883 1483 CURVE SMOOTH",
"728 1483 OFFCURVE",
"593 1453 OFFCURVE",
"479 1393 CURVE SMOOTH",
"250 1272 OFFCURVE",
"125 1036 OFFCURVE",
"125 731 CURVE SMOOTH",
"125 258 OFFCURVE",
"380 -20 OFFCURVE",
"825 -20 CURVE SMOOTH",
"1036 -20 OFFCURVE",
"1184 6 OFFCURVE",
"1339 55 CURVE",
"1339 772 LINE",
"834 772 LINE",
"834 608 LINE"
);
},
{
closed = 1;
nodes = (
"760 1654 OFFCURVE",
"806 1618 OFFCURVE",
"866 1618 CURVE SMOOTH",
"922 1618 OFFCURVE",
"971 1654 OFFCURVE",
"971 1733 CURVE SMOOTH",
"971 1813 OFFCURVE",
"922 1847 OFFCURVE",
"866 1847 CURVE SMOOTH",
"806 1847 OFFCURVE",
"760 1813 OFFCURVE",
"760 1733 CURVE SMOOTH"
);
}
);
};
components = (
{
name = G;
},
{
name = dotaccentcomb;
transform = "{1, 0, 0, 1, 378, 300}";
}
);
layerId = "6418A72B-B7AF-4A99-B2A7-67092BA5BFD7";
width = 696;
}
);
leftKerningGroup = O;
note = Gdotaccent;
rightKerningGroup = G;
unicode = 0120;
},
{
glyphname = H;
lastChange = "2016-07-14 00:51:39 +0000";
layers = (
{
anchors = (
{
name = bottom;
position = "{369, 0}";
},
{
name = center;
position = "{369, 375}";
},
{
name = top;
position = "{369, 750}";
},
{
name = topleft;
position = "{24, 750}";
}
);
background = {
paths = (
{
closed = 1;
nodes = (
"1133 1462 LINE",
"1133 844 LINE",
"383 844 LINE",
"383 1462 LINE",
"199 1462 LINE",
"199 0 LINE",
"383 0 LINE",
"383 682 LINE",
"1133 682 LINE",
"1133 0 LINE",
"1317 0 LINE",
"1317 1462 LINE"
);
}
);
};
layerId = "6418A72B-B7AF-4A99-B2A7-67092BA5BFD7";
paths = (
{
closed = 1;
nodes = (
"112 0 LINE",
"112 286 LINE",
"626 286 LINE",
"626 0 LINE",
"659 0 LINE",
"659 750 LINE",
"626 750 LINE",
"626 315 LINE",
"112 315 LINE",
"112 750 LINE",
"79 750 LINE",
"79 0 LINE"
);
}
);
width = 738;
}
);
leftKerningGroup = H;
note = H;
rightKerningGroup = H;
unicode = 0048;
},
{
glyphname = Hbar;
lastChange = "2016-07-14 00:51:39 +0000";
layers = (
{
background = {
paths = (
{
closed = 1;
nodes = (
"0 1071 LINE",
"199 1071 LINE",
"199 0 LINE",
"383 0 LINE",
"383 682 LINE",
"1133 682 LINE",
"1133 0 LINE",
"1317 0 LINE",
"1317 1071 LINE",
"1516 1071 LINE",
"1516 1219 LINE",
"1317 1219 LINE",
"1317 1462 LINE",
"1133 1462 LINE",
"1133 1219 LINE",
"383 1219 LINE",
"383 1462 LINE",
"199 1462 LINE",
"199 1219 LINE",
"0 1219 LINE"
);
},
{
closed = 1;
nodes = (
"383 1071 LINE",
"1133 1071 LINE",
"1133 844 LINE",
"383 844 LINE"
);
}
);
};
layerId = "6418A72B-B7AF-4A99-B2A7-67092BA5BFD7";
paths = (
{
closed = 1;
nodes = (
"109 0 LINE",
"109 286 LINE",
"623 286 LINE",
"623 0 LINE",
"656 0 LINE",
"656 529 LINE",
"712 529 LINE",
"712 558 LINE",
"656 558 LINE",
"656 750 LINE",
"623 750 LINE",
"623 558 LINE",
"109 558 LINE",
"109 750 LINE",
"76 750 LINE",
"76 558 LINE",
"21 558 LINE",
"21 529 LINE",
"76 529 LINE",
"76 0 LINE"
);
},
{
closed = 1;
nodes = (
"109 529 LINE",
"623 529 LINE",
"623 315 LINE",
"109 315 LINE"
);
}
);
width = 732;
}
);
leftKerningGroup = H;
note = Hbar;
rightKerningGroup = H;
unicode = 0126;
},
{
glyphname = Hcircumflex;
lastChange = "2016-07-13 21:35:07 +0000";
layers = (
{
background = {
paths = (
{
closed = 1;
nodes = (
"1133 1462 LINE",
"1133 844 LINE",
"383 844 LINE",
"383 1462 LINE",
"199 1462 LINE",
"199 0 LINE",
"383 0 LINE",
"383 682 LINE",
"1133 682 LINE",
"1133 0 LINE",
"1317 0 LINE",
"1317 1462 LINE"
);
},
{
closed = 1;
nodes = (
"533 1579 LINE",
"592 1616 OFFCURVE",
"665 1678 OFFCURVE",
"752 1763 CURVE",
"841 1676 OFFCURVE",
"915 1614 OFFCURVE",
"975 1579 CURVE",
"1102 1579 LINE",
"1102 1602 LINE",
"966 1738 OFFCURVE",
"881 1840 OFFCURVE",
"846 1907 CURVE",
"662 1907 LINE",
"646 1878 OFFCURVE",
"621 1843 OFFCURVE",
"587 1800 CURVE SMOOTH",
"552 1757 OFFCURVE",
"493 1691 OFFCURVE",
"410 1602 CURVE",
"410 1579 LINE"
);
}
);
};
components = (
{
name = H;
},
{
name = circumflexcomb;
transform = "{1, 0, 0, 1, 171, 300}";
}
);
layerId = "6418A72B-B7AF-4A99-B2A7-67092BA5BFD7";
width = 738;
}
);
leftKerningGroup = H;
note = Hcircumflex;
rightKerningGroup = H;
unicode = 0124;
},
{
glyphname = I;
lastChange = "2016-07-26 19:57:58 +0000";
layers = (
{
anchors = (
{
name = bottom;
position = "{101, 0}";
},
{
name = ogonek;
position = "{117, 0}";
},
{
name = top;
position = "{103, 750}";
},
{
name = topleft;
position = "{24, 750}";
}
);
background = {
paths = (
{
closed = 1;
nodes = (
"438 145 LINE",
"438 1315 LINE",
"610 1356 LINE",
"610 1462 LINE",
"82 1462 LINE",
"82 1356 LINE",
"254 1315 LINE",
"254 145 LINE",
"82 106 LINE",
"82 0 LINE",
"610 0 LINE",
"610 106 LINE"
);
}
);
};
layerId = "6418A72B-B7AF-4A99-B2A7-67092BA5BFD7";
paths = (
{
closed = 1;
nodes = (
"117 0 LINE",
"117 750 LINE",
"84 750 LINE",
"84 0 LINE"
);
}
);
width = 201;
}
);
leftKerningGroup = H;
note = I;
rightKerningGroup = H;
unicode = 0049;
},
{
glyphname = Iacute;
lastChange = "2016-07-13 21:35:07 +0000";
layers = (
{
background = {
paths = (
{
closed = 1;
nodes = (
"438 145 LINE",
"438 1315 LINE",
"610 1356 LINE",
"610 1462 LINE",
"82 1462 LINE",
"82 1356 LINE",
"254 1315 LINE",
"254 145 LINE",
"82 106 LINE",
"82 0 LINE",
"610 0 LINE",
"610 106 LINE"
);
},
{
closed = 1;
nodes = (
"355 1579 LINE",
"439 1644 OFFCURVE",
"589 1801 OFFCURVE",
"648 1886 CURVE",
"648 1907 LINE",
"431 1907 LINE",
"378 1803 OFFCURVE",
"287 1668 OFFCURVE",
"236 1604 CURVE",
"236 1579 LINE"
);
}
);
};
components = (
{
name = I;
},
{
name = acutecomb.case;
transform = "{1, 0, 0, 1, 19, 0}";
}
);
layerId = "6418A72B-B7AF-4A99-B2A7-67092BA5BFD7";
width = 201;
}
);
leftKerningGroup = H;
note = Iacute;
rightKerningGroup = H;
unicode = 00CD;
},
{
glyphname = Ibreve;
lastChange = "2016-07-13 21:35:07 +0000";
layers = (
{
background = {
paths = (
{
closed = 1;
nodes = (
"438 145 LINE",
"438 1315 LINE",
"610 1356 LINE",
"610 1462 LINE",
"82 1462 LINE",
"82 1356 LINE",
"254 1315 LINE",
"254 145 LINE",
"82 106 LINE",
"82 0 LINE",
"610 0 LINE",
"610 106 LINE"
);
},
{
closed = 1;
nodes = (
"528 1579 OFFCURVE",
"650 1679 OFFCURVE",
"667 1854 CURVE",
"554 1854 LINE",
"543 1765 OFFCURVE",
"482 1724 OFFCURVE",
"347 1724 CURVE SMOOTH",
"194 1724 OFFCURVE",
"151 1759 OFFCURVE",
"140 1854 CURVE",
"30 1854 LINE",
"42 1671 OFFCURVE",
"155 1579 OFFCURVE",
"343 1579 CURVE SMOOTH"
);
}
);
};
components = (
{
name = I;
},
{
name = brevecomb;
transform = "{1, 0, 0, 1, -37, 300}";
}
);
layerId = "6418A72B-B7AF-4A99-B2A7-67092BA5BFD7";
width = 201;
}
);
leftKerningGroup = H;
note = Ibreve;
rightKerningGroup = H;
unicode = 012C;
},
{
glyphname = Icircumflex;
lastChange = "2016-07-13 21:35:07 +0000";
layers = (
{
background = {
paths = (
{
closed = 1;
nodes = (
"438 145 LINE",
"438 1315 LINE",
"610 1356 LINE",
"610 1462 LINE",
"82 1462 LINE",
"82 1356 LINE",
"254 1315 LINE",
"254 145 LINE",
"82 106 LINE",
"82 0 LINE",
"610 0 LINE",
"610 106 LINE"
);
},
{
closed = 1;
nodes = (
"120 1579 LINE",
"179 1616 OFFCURVE",
"252 1678 OFFCURVE",
"339 1763 CURVE",
"428 1676 OFFCURVE",
"502 1614 OFFCURVE",
"562 1579 CURVE",
"689 1579 LINE",
"689 1602 LINE",
"553 1738 OFFCURVE",
"468 1840 OFFCURVE",
"433 1907 CURVE",
"249 1907 LINE",
"233 1878 OFFCURVE",
"208 1843 OFFCURVE",
"174 1800 CURVE SMOOTH",
"139 1757 OFFCURVE",
"80 1691 OFFCURVE",
"-3 1602 CURVE",
"-3 1579 LINE"
);
}
);
};
components = (
{
name = I;
},
{
name = circumflexcomb;
transform = "{1, 0, 0, 1, -95, 300}";
}
);
layerId = "6418A72B-B7AF-4A99-B2A7-67092BA5BFD7";
width = 201;
}
);
leftKerningGroup = H;
note = Icircumflex;
rightKerningGroup = H;
unicode = 00CE;
},
{
glyphname = Idieresis;
lastChange = "2016-07-13 21:35:07 +0000";
layers = (
{
background = {
paths = (
{
closed = 1;
nodes = (
"438 145 LINE",
"438 1315 LINE",
"610 1356 LINE",
"610 1462 LINE",
"82 1462 LINE",
"82 1356 LINE",
"254 1315 LINE",
"254 145 LINE",
"82 106 LINE",
"82 0 LINE",
"610 0 LINE",
"610 106 LINE"
);
},
{
closed = 1;
nodes = (
"60 1662 OFFCURVE",
"103 1630 OFFCURVE",
"156 1630 CURVE SMOOTH",
"208 1630 OFFCURVE",
"253 1662 OFFCURVE",
"253 1733 CURVE SMOOTH",
"253 1804 OFFCURVE",
"208 1833 OFFCURVE",
"156 1833 CURVE SMOOTH",
"103 1833 OFFCURVE",
"60 1804 OFFCURVE",
"60 1733 CURVE SMOOTH"
);
},
{
closed = 1;
nodes = (
"445 1662 OFFCURVE",
"488 1630 OFFCURVE",
"539 1630 CURVE SMOOTH",
"591 1630 OFFCURVE",
"636 1662 OFFCURVE",
"636 1733 CURVE SMOOTH",
"636 1804 OFFCURVE",
"591 1833 OFFCURVE",
"539 1833 CURVE SMOOTH",
"488 1833 OFFCURVE",
"445 1804 OFFCURVE",
"445 1733 CURVE SMOOTH"
);
}
);
};
components = (
{
name = I;
},
{
name = dieresiscomb.case;
transform = "{1, 0, 0, 1, -28, 0}";
}
);
layerId = "6418A72B-B7AF-4A99-B2A7-67092BA5BFD7";
width = 201;
}
);
leftKerningGroup = H;
note = Idieresis;
rightKerningGroup = H;
unicode = 00CF;
},
{
glyphname = Idotaccent;
lastChange = "2016-07-13 21:35:07 +0000";
layers = (
{
background = {
paths = (
{
closed = 1;
nodes = (
"438 145 LINE",
"438 1315 LINE",
"610 1356 LINE",
"610 1462 LINE",
"82 1462 LINE",
"82 1356 LINE",
"254 1315 LINE",
"254 145 LINE",
"82 106 LINE",
"82 0 LINE",
"610 0 LINE",
"610 106 LINE"
);
},
{
closed = 1;
nodes = (
"240 1654 OFFCURVE",
"286 1618 OFFCURVE",
"346 1618 CURVE SMOOTH",
"402 1618 OFFCURVE",
"451 1654 OFFCURVE",
"451 1733 CURVE SMOOTH",
"451 1813 OFFCURVE",
"402 1847 OFFCURVE",
"346 1847 CURVE SMOOTH",
"286 1847 OFFCURVE",
"240 1813 OFFCURVE",
"240 1733 CURVE SMOOTH"
);
}
);
};
components = (
{
name = I;
},
{
name = dotaccentcomb;
transform = "{1, 0, 0, 1, 59, 300}";
}
);
layerId = "6418A72B-B7AF-4A99-B2A7-67092BA5BFD7";
width = 201;
}
);
leftKerningGroup = H;
note = Idotaccent;
rightKerningGroup = H;
unicode = 0130;
},
{
glyphname = Igrave;
lastChange = "2016-07-13 21:35:07 +0000";
layers = (
{
background = {
paths = (
{
closed = 1;
nodes = (
"438 145 LINE",
"438 1315 LINE",
"610 1356 LINE",
"610 1462 LINE",
"82 1462 LINE",
"82 1356 LINE",
"254 1315 LINE",
"254 145 LINE",
"82 106 LINE",
"82 0 LINE",
"610 0 LINE",
"610 106 LINE"
);
},
{
closed = 1;
nodes = (
"409 1676 OFFCURVE",
"318 1819 OFFCURVE",
"275 1907 CURVE",
"60 1907 LINE",
"60 1886 LINE",
"109 1811 OFFCURVE",
"251 1659 OFFCURVE",
"351 1579 CURVE",
"472 1579 LINE",
"472 1604 LINE"
);
}
);
};
components = (
{
name = I;
},
{
name = gravecomb.i.case;
transform = "{1, 0, 0, 1, -63, 0}";
}
);
layerId = "6418A72B-B7AF-4A99-B2A7-67092BA5BFD7";
width = 201;
}
);
leftKerningGroup = H;
note = Igrave;
rightKerningGroup = H;
unicode = 00CC;
},
{
glyphname = Imacron;
lastChange = "2016-07-13 21:35:07 +0000";
layers = (
{
background = {
paths = (
{
closed = 1;
nodes = (
"438 145 LINE",
"438 1315 LINE",
"610 1356 LINE",
"610 1462 LINE",
"82 1462 LINE",
"82 1356 LINE",
"254 1315 LINE",
"254 145 LINE",
"82 106 LINE",
"82 0 LINE",
"610 0 LINE",
"610 106 LINE"
);
},
{
closed = 1;
nodes = (
"652 1579 LINE",
"652 1724 LINE",
"44 1724 LINE",
"44 1579 LINE"
);
}
);
};
components = (
{
name = I;
},
{
name = macroncomb.case;
transform = "{1, 0, 0, 1, -46, 0}";
}
);
layerId = "6418A72B-B7AF-4A99-B2A7-67092BA5BFD7";
width = 201;
}
);
leftKerningGroup = H;
note = Imacron;
rightKerningGroup = H;
unicode = 012A;
},
{
glyphname = Iogonek;
lastChange = "2016-07-26 19:57:58 +0000";
layers = (
{
background = {
paths = (
{
closed = 1;
nodes = (
"438 145 LINE",
"438 1315 LINE",
"610 1356 LINE",
"610 1462 LINE",
"82 1462 LINE",
"82 1356 LINE",
"254 1315 LINE",
"254 145 LINE",
"82 106 LINE",
"82 0 LINE",
"610 0 LINE",
"610 106 LINE"
);
},
{
closed = 1;
nodes = (
"327 -154 OFFCURVE",
"374 -88 OFFCURVE",
"467 0 CURVE",
"340 0 LINE",
"233 -79 OFFCURVE",
"180 -165 OFFCURVE",
"180 -258 CURVE SMOOTH",
"180 -387 OFFCURVE",
"250 -451 OFFCURVE",
"391 -451 CURVE SMOOTH",
"430 -451 OFFCURVE",
"472 -445 OFFCURVE",
"518 -432 CURVE",
"518 -317 LINE",
"481 -326 OFFCURVE",
"448 -330 OFFCURVE",
"419 -330 CURVE SMOOTH",
"362 -330 OFFCURVE",
"327 -299 OFFCURVE",
"327 -238 CURVE SMOOTH"
);
}
);
};
components = (
{
name = I;
},
{
name = ogonekcomb;
transform = "{1, 0, 0, 1, -13, 0}";
}
);
layerId = "6418A72B-B7AF-4A99-B2A7-67092BA5BFD7";
width = 201;
}
);
leftKerningGroup = H;
note = Iogonek;
rightKerningGroup = H;
unicode = 012E;
},
{
glyphname = Itilde;
lastChange = "2016-07-26 20:07:35 +0000";
layers = (
{
background = {
paths = (
{
closed = 1;
nodes = (
"438 145 LINE",
"438 1315 LINE",
"610 1356 LINE",
"610 1462 LINE",
"82 1462 LINE",
"82 1356 LINE",
"254 1315 LINE",
"254 145 LINE",
"82 106 LINE",
"82 0 LINE",
"610 0 LINE",
"610 106 LINE"
);
},
{
closed = 1;
nodes = (
"628 1581 OFFCURVE",
"708 1684 OFFCURVE",
"724 1843 CURVE",
"621 1843 LINE",
"601 1763 OFFCURVE",
"573 1724 OFFCURVE",
"509 1724 CURVE SMOOTH",
"466 1724 OFFCURVE",
"418 1754 OFFCURVE",
"366 1783 CURVE SMOOTH",
"314 1811 OFFCURVE",
"257 1841 OFFCURVE",
"197 1841 CURVE SMOOTH",
"68 1841 OFFCURVE",
"-12 1742 OFFCURVE",
"-28 1579 CURVE",
"76 1579 LINE",
"95 1659 OFFCURVE",
"124 1698 OFFCURVE",
"189 1698 CURVE SMOOTH",
"234 1698 OFFCURVE",
"283 1668 OFFCURVE",
"336 1640 CURVE SMOOTH",
"388 1611 OFFCURVE",
"443 1581 OFFCURVE",
"500 1581 CURVE SMOOTH"
);
}
);
};
components = (
{
name = I;
},
{
name = tildecomb.i;
transform = "{1, 0, 0, 1, -54, 300}";
}
);
layerId = "6418A72B-B7AF-4A99-B2A7-67092BA5BFD7";
width = 201;
}
);
leftKerningGroup = H;
note = Itilde;
rightKerningGroup = H;
unicode = 0128;
},
{
glyphname = J;
lastChange = "2016-07-14 00:51:39 +0000";
layers = (
{
anchors = (
{
name = bottom;
position = "{235, 0}";
},
{
name = top;
position = "{302, 750}";
}
);
background = {
paths = (
{
closed = 1;
nodes = (
"237 -389 OFFCURVE",
"373 -241 OFFCURVE",
"373 23 CURVE SMOOTH",
"373 1462 LINE",
"188 1462 LINE",
"188 8 LINE SMOOTH",
"188 -144 OFFCURVE",
"121 -227 OFFCURVE",
"-12 -227 CURVE SMOOTH",
"-63 -227 OFFCURVE",
"-113 -220 OFFCURVE",
"-160 -207 CURVE",
"-160 -362 LINE",
"-121 -380 OFFCURVE",
"-71 -389 OFFCURVE",
"-8 -389 CURVE SMOOTH"
);
}
);
};
layerId = "6418A72B-B7AF-4A99-B2A7-67092BA5BFD7";
paths = (
{
closed = 1;
nodes = (
"306 -15 OFFCURVE",
"393 65 OFFCURVE",
"393 230 CURVE SMOOTH",
"393 750 LINE",
"175 750 LINE",
"175 721 LINE",
"360 721 LINE",
"360 226 LINE SMOOTH",
"360 82 OFFCURVE",
"289 14 OFFCURVE",
"178 14 CURVE SMOOTH",
"113 14 OFFCURVE",
"63 37 OFFCURVE",
"21 83 CURVE",
"21 42 LINE",
"68 2 OFFCURVE",
"116 -15 OFFCURVE",
"176 -15 CURVE SMOOTH"
);
}
);
width = 472;
}
);
leftKerningGroup = J;
note = J;
rightKerningGroup = J;
unicode = 004A;
},
{
glyphname = Jcircumflex;
lastChange = "2016-07-13 21:35:07 +0000";
layers = (
{
background = {
paths = (
{
closed = 1;
nodes = (
"237 -389 OFFCURVE",
"373 -241 OFFCURVE",
"373 23 CURVE SMOOTH",
"373 1462 LINE",
"188 1462 LINE",
"188 8 LINE SMOOTH",
"188 -144 OFFCURVE",
"121 -227 OFFCURVE",
"-12 -227 CURVE SMOOTH",
"-63 -227 OFFCURVE",
"-113 -220 OFFCURVE",
"-160 -207 CURVE",
"-160 -362 LINE",
"-121 -380 OFFCURVE",
"-71 -389 OFFCURVE",
"-8 -389 CURVE SMOOTH"
);
},
{
closed = 1;
nodes = (
"60 1579 LINE",
"119 1616 OFFCURVE",
"192 1678 OFFCURVE",
"279 1763 CURVE",
"368 1676 OFFCURVE",
"442 1614 OFFCURVE",
"502 1579 CURVE",
"629 1579 LINE",
"629 1602 LINE",
"493 1738 OFFCURVE",
"408 1840 OFFCURVE",
"373 1907 CURVE",
"189 1907 LINE",
"173 1878 OFFCURVE",
"148 1843 OFFCURVE",
"114 1800 CURVE SMOOTH",
"79 1757 OFFCURVE",
"20 1691 OFFCURVE",
"-63 1602 CURVE",
"-63 1579 LINE"
);
}
);
};
components = (
{
name = J;
},
{
name = circumflexcomb;
transform = "{1, 0, 0, 1, 104, 300}";
}
);
layerId = "6418A72B-B7AF-4A99-B2A7-67092BA5BFD7";
width = 472;
}
);
leftKerningGroup = J;
note = Jcircumflex;
rightKerningGroup = J;
unicode = 0134;
},
{
glyphname = K;
lastChange = "2016-07-14 00:51:39 +0000";
layers = (
{
anchors = (
{
name = bottom;
position = "{290, 0}";
},
{
name = top;
position = "{290, 750}";
}
);
background = {
paths = (
{
closed = 1;
nodes = (
"1245 1462 LINE",
"1030 1462 LINE",
"509 880 LINE",
"383 741 LINE",
"383 1462 LINE",
"199 1462 LINE",
"199 0 LINE",
"383 0 LINE",
"383 567 LINE",
"532 698 LINE",
"1051 0 LINE",
"1268 0 LINE",
"666 825 LINE"
);
}
);
};
layerId = "6418A72B-B7AF-4A99-B2A7-67092BA5BFD7";
paths = (
{
closed = 1;
nodes = (
"553 0 LINE",
"88 485 LINE",
"88 442 LINE",
"509 0 LINE"
);
},
{
closed = 1;
nodes = (
"112 0 LINE",
"112 750 LINE",
"79 750 LINE",
"79 0 LINE"
);
},
{
closed = 1;
nodes = (
"472 750 LINE",
"425 750 LINE",
"93 461 LINE",
"93 426 LINE"
);
}
);
width = 577;
}
);
leftKerningGroup = H;
note = K;
rightKerningGroup = K;
unicode = 004B;
},
{
glyphname = Kcommaaccent;
lastChange = "2016-07-13 21:35:07 +0000";
layers = (
{
background = {
paths = (
{
closed = 1;
nodes = (
"1245 1462 LINE",
"1030 1462 LINE",
"509 880 LINE",
"383 741 LINE",
"383 1462 LINE",
"199 1462 LINE",
"199 0 LINE",
"383 0 LINE",
"383 567 LINE",
"532 698 LINE",
"1051 0 LINE",
"1268 0 LINE",
"666 825 LINE"
);
},
{
closed = 1;
nodes = (
"602 -453 LINE",
"670 -373 OFFCURVE",
"745 -227 OFFCURVE",
"766 -143 CURVE",
"766 -125 LINE",
"588 -125 LINE",
"577 -213 OFFCURVE",
"533 -360 OFFCURVE",
"504 -428 CURVE",
"504 -453 LINE"
);
}
);
};
components = (
{
name = K;
},
{
name = commaaccentcomb.case;
transform = "{1, 0, 0, 1, 206, 0}";
}
);
layerId = "6418A72B-B7AF-4A99-B2A7-67092BA5BFD7";
width = 577;
}
);
leftKerningGroup = H;
note = uni0136;
rightKerningGroup = K;
unicode = 0136;
},
{
glyphname = L;
lastChange = "2016-07-14 00:51:39 +0000";
layers = (
{
anchors = (
{
name = bottom;
position = "{204, 0}";
},
{
name = center;
position = "{184, 375}";
},
{
name = top;
position = "{184, 750}";
},
{
name = topright;
position = "{344, 750}";
}
);
background = {
paths = (
{
closed = 1;
nodes = (
"1022 164 LINE",
"383 164 LINE",
"383 1462 LINE",
"199 1462 LINE",
"199 0 LINE",
"1022 0 LINE"
);
}
);
};
layerId = "6418A72B-B7AF-4A99-B2A7-67092BA5BFD7";
paths = (
{
closed = 1;
nodes = (
"344 0 LINE",
"344 29 LINE",
"112 29 LINE",
"112 750 LINE",
"79 750 LINE",
"79 0 LINE"
);
}
);
width = 365;
}
);
leftKerningGroup = H;
note = L;
rightKerningGroup = L;
unicode = 004C;
},
{
glyphname = Lacute;
lastChange = "2016-07-13 21:35:07 +0000";
layers = (
{
background = {
paths = (
{
closed = 1;
nodes = (
"1022 164 LINE",
"383 164 LINE",
"383 1462 LINE",
"199 1462 LINE",
"199 0 LINE",
"1022 0 LINE"
);
},
{
closed = 1;
nodes = (
"360 1579 LINE",
"444 1644 OFFCURVE",
"594 1801 OFFCURVE",
"653 1886 CURVE",
"653 1907 LINE",
"436 1907 LINE",
"383 1803 OFFCURVE",
"292 1668 OFFCURVE",
"241 1604 CURVE",
"241 1579 LINE"
);
}
);
};
components = (
{
name = L;
},
{
name = acutecomb.case;
transform = "{1, 0, 0, 1, 100, 0}";
}
);
layerId = "6418A72B-B7AF-4A99-B2A7-67092BA5BFD7";
width = 365;
}
);
leftKerningGroup = H;
note = Lacute;
rightKerningGroup = L;
unicode = 0139;
},
{
glyphname = Lcaron;
lastChange = "2016-07-14 00:51:39 +0000";
layers = (
{
background = {
paths = (
{
closed = 1;
nodes = (
"1022 164 LINE",
"383 164 LINE",
"383 1462 LINE",
"199 1462 LINE",
"199 0 LINE",
"1022 0 LINE"
);
},
{
closed = 1;
nodes = (
"780 1136 LINE",
"845 1232 OFFCURVE",
"911 1374 OFFCURVE",
"928 1445 CURVE",
"928 1463 LINE",
"750 1463 LINE",
"742 1395 OFFCURVE",
"713 1248 OFFCURVE",
"682 1160 CURVE",
"682 1136 LINE"
);
}
);
};
layerId = "6418A72B-B7AF-4A99-B2A7-67092BA5BFD7";
paths = (
{
closed = 1;
nodes = (
"344 0 LINE",
"344 29 LINE",
"112 29 LINE",
"112 750 LINE",
"79 750 LINE",
"79 0 LINE"
);
},
{
closed = 1;
nodes = (
"260 631 LINE",
"291 702 LINE",
"293 708 OFFCURVE",
"294 713 OFFCURVE",
"294 718 CURVE SMOOTH",
"294 739 OFFCURVE",
"283 749 OFFCURVE",
"260 749 CURVE SMOOTH",
"237 749 OFFCURVE",
"225 739 OFFCURVE",
"225 718 CURVE SMOOTH",
"225 697 OFFCURVE",
"235 687 OFFCURVE",
"256 687 CURVE",
"256 631 LINE"
);
}
);
width = 365;
}
);
leftKerningGroup = H;
note = Lcaron;
rightKerningGroup = L;
unicode = 013D;
},
{
glyphname = Lcommaaccent;
lastChange = "2016-07-13 21:35:07 +0000";
layers = (
{
background = {
paths = (
{
closed = 1;
nodes = (
"1022 164 LINE",
"383 164 LINE",
"383 1462 LINE",
"199 1462 LINE",
"199 0 LINE",
"1022 0 LINE"
);
},
{
closed = 1;
nodes = (
"516 -453 LINE",
"584 -373 OFFCURVE",
"659 -227 OFFCURVE",
"680 -143 CURVE",
"680 -125 LINE",
"502 -125 LINE",
"491 -213 OFFCURVE",
"447 -360 OFFCURVE",
"418 -428 CURVE",
"418 -453 LINE"
);
}
);
};
components = (
{
name = L;
},
{
name = commaaccentcomb.case;
transform = "{1, 0, 0, 1, 120, 0}";
}
);
layerId = "6418A72B-B7AF-4A99-B2A7-67092BA5BFD7";
width = 365;
}
);
leftKerningGroup = H;
note = uni013B;
rightKerningGroup = L;
unicode = 013B;
},
{
glyphname = Ldot;
lastChange = "2016-07-13 21:35:07 +0000";
layers = (
{
background = {
paths = (
{
closed = 1;
nodes = (
"1022 164 LINE",
"383 164 LINE",
"383 1462 LINE",
"199 1462 LINE",
"199 0 LINE",
"1022 0 LINE"
);
},
{
closed = 1;
nodes = (
"680 653 OFFCURVE",
"726 617 OFFCURVE",
"786 617 CURVE SMOOTH",
"842 617 OFFCURVE",
"891 653 OFFCURVE",
"891 732 CURVE SMOOTH",
"891 812 OFFCURVE",
"842 846 OFFCURVE",
"786 846 CURVE SMOOTH",
"726 846 OFFCURVE",
"680 812 OFFCURVE",
"680 732 CURVE SMOOTH"
);
}
);
};
components = (
{
name = L;
},
{
name = periodcentered;
transform = "{1, 0, 0, 1, 155, 93}";
}
);
layerId = "6418A72B-B7AF-4A99-B2A7-67092BA5BFD7";
width = 361;
},
{
associatedMasterId = "6418A72B-B7AF-4A99-B2A7-67092BA5BFD7";
layerId = "D270B6F6-6BE9-499D-BE0C-FC2F4EF61531";
name = "Regular Jul 8 16, 13:42";
paths = (
{
closed = 1;
nodes = (
"75 0 LINE",
"340 0 LINE",
"340 29 LINE",
"108 29 LINE",
"108 750 LINE",
"75 750 LINE"
);
},
{
closed = 1;
nodes = (
"305 367 OFFCURVE",
"315 377 OFFCURVE",
"315 398 CURVE SMOOTH",
"315 419 OFFCURVE",
"305 429 OFFCURVE",
"284 429 CURVE SMOOTH",
"263 429 OFFCURVE",
"253 419 OFFCURVE",
"253 398 CURVE SMOOTH",
"253 377 OFFCURVE",
"263 367 OFFCURVE",
"284 367 CURVE SMOOTH"
);
}
);
width = 360;
}
);
leftKerningGroup = H;
note = Ldot;
rightKerningGroup = L;
unicode = 013F;
},
{
glyphname = Lslash;
lastChange = "2016-07-14 00:51:39 +0000";
layers = (
{
background = {
paths = (
{
closed = 1;
nodes = (
"1031 164 LINE",
"392 164 LINE",
"392 614 LINE",
"746 819 LINE",
"673 948 LINE",
"392 782 LINE",
"392 1462 LINE",
"208 1462 LINE",
"208 674 LINE",
"36 571 LINE",
"107 449 LINE",
"208 506 LINE",
"208 0 LINE",
"1031 0 LINE"
);
}
);
};
components = (
{
name = L;
transform = "{1, 0, 0, 1, 9, 0}";
}
);
layerId = "6418A72B-B7AF-4A99-B2A7-67092BA5BFD7";
paths = (
{
closed = 1;
nodes = (
"315 391 LINE",
"299 414 LINE",
"96 265 LINE",
"100 233 LINE"
);
},
{
closed = 1;
nodes = (
"92 227 LINE",
"96 265 LINE",
"0 194 LINE",
"17 172 LINE"
);
}
);
width = 374;
}
);
leftKerningGroup = H;
note = Lslash;
rightKerningGroup = L;
rightMetricsKey = L;
unicode = 0141;
},
{
glyphname = M;
lastChange = "2016-07-14 00:51:39 +0000";
layers = (
{
background = {
paths = (
{
closed = 1;
nodes = (
"1483 1280 LINE",
"1491 1280 LINE",
"1482 1126 OFFCURVE",
"1477 999 OFFCURVE",
"1477 899 CURVE SMOOTH",
"1477 0 LINE",
"1659 0 LINE",
"1659 1462 LINE",
"1389 1462 LINE",
"930 264 LINE",
"922 264 LINE",
"471 1462 LINE",
"199 1462 LINE",
"199 0 LINE",
"369 0 LINE",
"369 887 LINE SMOOTH",
"369 1044 OFFCURVE",
"364 1175 OFFCURVE",
"354 1282 CURVE",
"362 1282 LINE",
"844 0 LINE",
"995 0 LINE"
);
}
);
};
layerId = "6418A72B-B7AF-4A99-B2A7-67092BA5BFD7";
paths = (
{
closed = 1;
nodes = (
"826 724 LINE",
"815 726 LINE",
"815 0 LINE",
"848 0 LINE",
"848 750 LINE",
"802 750 LINE",
"457 45 LINE",
"467 42 LINE",
"123 750 LINE",
"76 750 LINE",
"76 0 LINE",
"109 0 LINE",
"109 711 LINE",
"461 -14 LINE"
);
}
);
width = 927;
}
);
leftKerningGroup = M;
note = M;
rightKerningGroup = M;
unicode = 004D;
},
{
glyphname = N;
lastChange = "2016-07-14 00:51:39 +0000";
layers = (
{
anchors = (
{
name = bottom;
position = "{350, 0}";
},
{
name = top;
position = "{370, 750}";
}
);
background = {
paths = (
{
closed = 1;
nodes = (
"1186 1462 LINE",
"1186 637 LINE SMOOTH",
"1186 549 OFFCURVE",
"1197 284 OFFCURVE",
"1200 252 CURVE",
"1192 252 LINE",
"937 649 LINE",
"457 1391 LINE",
"412 1462 LINE",
"199 1462 LINE",
"199 0 LINE",
"369 0 LINE",
"369 817 LINE SMOOTH",
"369 906 OFFCURVE",
"365 1012 OFFCURVE",
"357 1133 CURVE SMOOTH",
"352 1214 LINE",
"360 1214 LINE",
"1143 0 LINE",
"1358 0 LINE",
"1358 1462 LINE"
);
}
);
};
layerId = "6418A72B-B7AF-4A99-B2A7-67092BA5BFD7";
paths = (
{
closed = 1;
nodes = (
"660 750 LINE",
"631 750 LINE",
"631 76 LINE",
"79 761 LINE",
"79 0 LINE",
"108 0 LINE",
"108 675 LINE",
"660 -11 LINE"
);
}
);
width = 739;
}
);
leftKerningGroup = H;
note = N;
rightKerningGroup = H;
unicode = 004E;
},
{
glyphname = Nacute;
lastChange = "2016-07-13 21:35:07 +0000";
layers = (
{
background = {
paths = (
{
closed = 1;
nodes = (
"1186 1462 LINE",
"1186 637 LINE SMOOTH",
"1186 549 OFFCURVE",
"1197 284 OFFCURVE",
"1200 252 CURVE",
"1192 252 LINE",
"937 649 LINE",
"457 1391 LINE",
"412 1462 LINE",
"199 1462 LINE",
"199 0 LINE",
"369 0 LINE",
"369 817 LINE SMOOTH",
"369 906 OFFCURVE",
"365 1012 OFFCURVE",
"357 1133 CURVE SMOOTH",
"352 1214 LINE",
"360 1214 LINE",
"1143 0 LINE",
"1358 0 LINE",
"1358 1462 LINE"
);
},
{
closed = 1;
nodes = (
"770 1579 LINE",
"854 1644 OFFCURVE",
"1004 1801 OFFCURVE",
"1063 1886 CURVE",
"1063 1907 LINE",
"846 1907 LINE",
"793 1803 OFFCURVE",
"702 1668 OFFCURVE",
"651 1604 CURVE",
"651 1579 LINE"
);
}
);
};
components = (
{
name = N;
},
{
name = acutecomb.case;
transform = "{1, 0, 0, 1, 286, 0}";
}
);
layerId = "6418A72B-B7AF-4A99-B2A7-67092BA5BFD7";
width = 739;
}
);
leftKerningGroup = N;
note = Nacute;
rightKerningGroup = N;
unicode = 0143;
},
{
glyphname = Ncaron;
lastChange = "2016-07-13 21:35:07 +0000";
layers = (
{
background = {
paths = (
{
closed = 1;
nodes = (
"1186 1462 LINE",
"1186 637 LINE SMOOTH",
"1186 549 OFFCURVE",
"1197 284 OFFCURVE",
"1200 252 CURVE",
"1192 252 LINE",
"937 649 LINE",
"457 1391 LINE",
"412 1462 LINE",
"199 1462 LINE",
"199 0 LINE",
"369 0 LINE",
"369 817 LINE SMOOTH",
"369 906 OFFCURVE",
"365 1012 OFFCURVE",
"357 1133 CURVE SMOOTH",
"352 1214 LINE",
"360 1214 LINE",
"1143 0 LINE",
"1358 0 LINE",
"1358 1462 LINE"
);
},
{
closed = 1;
nodes = (
"560 1747 OFFCURVE",
"644 1647 OFFCURVE",
"684 1579 CURVE",
"868 1579 LINE",
"902 1643 OFFCURVE",
"987 1743 OFFCURVE",
"1124 1880 CURVE",
"1124 1907 LINE",
"997 1907 LINE",
"932 1865 OFFCURVE",
"858 1802 OFFCURVE",
"774 1718 CURVE",
"704 1795 OFFCURVE",
"631 1858 OFFCURVE",
"555 1907 CURVE",
"432 1907 LINE",
"432 1880 LINE"
);
}
);
};
components = (
{
name = N;
},
{
name = caroncomb;
transform = "{1, 0, 0, 1, 204, 300}";
}
);
layerId = "6418A72B-B7AF-4A99-B2A7-67092BA5BFD7";
width = 739;
}
);
leftKerningGroup = N;
note = Ncaron;
rightKerningGroup = N;
unicode = 0147;
},
{
glyphname = Ncommaaccent;
lastChange = "2016-07-13 21:35:07 +0000";
layers = (
{
background = {
paths = (
{
closed = 1;
nodes = (
"1186 1462 LINE",
"1186 637 LINE SMOOTH",
"1186 549 OFFCURVE",
"1197 284 OFFCURVE",
"1200 252 CURVE",
"1192 252 LINE",
"937 649 LINE",
"457 1391 LINE",
"412 1462 LINE",
"199 1462 LINE",
"199 0 LINE",
"369 0 LINE",
"369 817 LINE SMOOTH",
"369 906 OFFCURVE",
"365 1012 OFFCURVE",
"357 1133 CURVE SMOOTH",
"352 1214 LINE",
"360 1214 LINE",
"1143 0 LINE",
"1358 0 LINE",
"1358 1462 LINE"
);
},
{
closed = 1;
nodes = (
"674 -453 LINE",
"742 -373 OFFCURVE",
"817 -227 OFFCURVE",
"838 -143 CURVE",
"838 -125 LINE",
"660 -125 LINE",
"649 -213 OFFCURVE",
"605 -360 OFFCURVE",
"576 -428 CURVE",
"576 -453 LINE"
);
}
);
};
components = (
{
name = N;
},
{
name = commaaccentcomb.case;
transform = "{1, 0, 0, 1, 266, 0}";
}
);
layerId = "6418A72B-B7AF-4A99-B2A7-67092BA5BFD7";
width = 739;
}
);
leftKerningGroup = N;
note = uni0145;
rightKerningGroup = N;
unicode = 0145;
},
{
glyphname = Eng;
lastChange = "2016-07-14 00:51:39 +0000";
layers = (
{
anchors = (
{
name = bottom;
position = "{350, 0}";
},
{
name = top;
position = "{370, 750}";
}
);
background = {
paths = (
{
closed = 1;
nodes = (
"1221 -389 OFFCURVE",
"1358 -249 OFFCURVE",
"1358 12 CURVE SMOOTH",
"1358 1462 LINE",
"1186 1462 LINE",
"1186 700 LINE SMOOTH",
"1186 530 OFFCURVE",
"1191 394 OFFCURVE",
"1200 291 CURVE",
"1192 291 LINE",
"412 1462 LINE",
"199 1462 LINE",
"199 0 LINE",
"369 0 LINE",
"369 793 LINE SMOOTH",
"369 904 OFFCURVE",
"363 1044 OFFCURVE",
"352 1214 CURVE",
"360 1214 LINE",
"1186 0 LINE",
"1183 -147 OFFCURVE",
"1109 -227 OFFCURVE",
"973 -227 CURVE SMOOTH",
"916 -227 OFFCURVE",
"864 -220 OFFCURVE",
"817 -207 CURVE",
"817 -362 LINE",
"856 -380 OFFCURVE",
"908 -389 OFFCURVE",
"973 -389 CURVE SMOOTH"
);
}
);
};
layerId = "6418A72B-B7AF-4A99-B2A7-67092BA5BFD7";
paths = (
{
closed = 1;
nodes = (
"108 0 LINE",
"108 675 LINE",
"640 13 LINE",
"660 50 LINE",
"660 750 LINE",
"631 750 LINE",
"631 76 LINE",
"79 761 LINE",
"79 0 LINE"
);
},
{
closed = 1;
nodes = (
"577 -195 OFFCURVE",
"660 -115 OFFCURVE",
"660 50 CURVE",
"631 46 LINE",
"631 -98 OFFCURVE",
"560 -166 OFFCURVE",
"443 -166 CURVE SMOOTH",
"384 -166 OFFCURVE",
"334 -143 OFFCURVE",
"292 -97 CURVE",
"292 -138 LINE",
"339 -178 OFFCURVE",
"387 -195 OFFCURVE",
"443 -195 CURVE SMOOTH"
);
}
);
width = 739;
}
);
leftKerningGroup = H;
rightKerningGroup = H;
unicode = 014A;
},
{
glyphname = Ntilde;
lastChange = "2016-07-13 21:35:07 +0000";
layers = (
{
background = {
paths = (
{
closed = 1;
nodes = (
"1186 1462 LINE",
"1186 637 LINE SMOOTH",
"1186 549 OFFCURVE",
"1197 284 OFFCURVE",
"1200 252 CURVE",
"1192 252 LINE",
"937 649 LINE",
"457 1391 LINE",
"412 1462 LINE",
"199 1462 LINE",
"199 0 LINE",
"369 0 LINE",
"369 817 LINE SMOOTH",
"369 906 OFFCURVE",
"365 1012 OFFCURVE",
"357 1133 CURVE SMOOTH",
"352 1214 LINE",
"360 1214 LINE",
"1143 0 LINE",
"1358 0 LINE",
"1358 1462 LINE"
);
},
{
closed = 1;
nodes = (
"1068 1581 OFFCURVE",
"1148 1684 OFFCURVE",
"1164 1843 CURVE",
"1061 1843 LINE",
"1041 1763 OFFCURVE",
"1013 1724 OFFCURVE",
"949 1724 CURVE SMOOTH",
"906 1724 OFFCURVE",
"858 1754 OFFCURVE",
"806 1783 CURVE SMOOTH",
"754 1811 OFFCURVE",
"697 1841 OFFCURVE",
"637 1841 CURVE SMOOTH",
"508 1841 OFFCURVE",
"428 1742 OFFCURVE",
"412 1579 CURVE",
"516 1579 LINE",
"535 1659 OFFCURVE",
"564 1698 OFFCURVE",
"629 1698 CURVE SMOOTH",
"674 1698 OFFCURVE",
"723 1668 OFFCURVE",
"776 1640 CURVE SMOOTH",
"828 1611 OFFCURVE",
"883 1581 OFFCURVE",
"940 1581 CURVE SMOOTH"
);
}
);
};
components = (
{
name = N;
},
{
name = tildecomb;
transform = "{1, 0, 0, 1, 184, 300}";
}
);
layerId = "6418A72B-B7AF-4A99-B2A7-67092BA5BFD7";
width = 739;
}
);
leftKerningGroup = N;
note = Ntilde;
rightKerningGroup = N;
unicode = 00D1;
},
{
glyphname = O;
lastChange = "2016-07-26 19:58:10 +0000";
layers = (
{
anchors = (
{
name = bottom;
position = "{437, 0}";
},
{
name = center;
position = "{437, 375}";
},
{
name = ogonek;
position = "{584, 10}";
},
{
name = top;
position = "{437, 750}";
},
{
name = topleft;
position = "{22, 750}";
},
{
name = topright;
position = "{584, 741}";
}
);
background = {
paths = (
{
closed = 1;
nodes = (
"1475 1204 OFFCURVE",
"1227 1485 OFFCURVE",
"803 1485 CURVE SMOOTH",
"367 1485 OFFCURVE",
"125 1211 OFFCURVE",
"125 735 CURVE SMOOTH",
"125 255 OFFCURVE",
"370 -20 OFFCURVE",
"801 -20 CURVE SMOOTH",
"1226 -20 OFFCURVE",
"1475 265 OFFCURVE",
"1475 733 CURVE SMOOTH"
);
},
{
closed = 1;
nodes = (
"319 1118 OFFCURVE",
"486 1323 OFFCURVE",
"803 1323 CURVE SMOOTH",
"1116 1323 OFFCURVE",
"1280 1124 OFFCURVE",
"1280 733 CURVE SMOOTH",
"1280 341 OFFCURVE",
"1114 139 OFFCURVE",
"801 139 CURVE SMOOTH",
"486 139 OFFCURVE",
"319 346 OFFCURVE",
"319 733 CURVE SMOOTH"
);
}
);
};
layerId = "6418A72B-B7AF-4A99-B2A7-67092BA5BFD7";
paths = (
{
closed = 1;
nodes = (
"653 -20 OFFCURVE",
"827 158 OFFCURVE",
"827 378 CURVE SMOOTH",
"827 592 OFFCURVE",
"653 770 OFFCURVE",
"438 770 CURVE SMOOTH",
"223 770 OFFCURVE",
"47 590 OFFCURVE",
"47 378 CURVE SMOOTH",
"47 165 OFFCURVE",
"222 -20 OFFCURVE",
"437 -20 CURVE SMOOTH"
);
},
{
closed = 1;
nodes = (
"241 9 OFFCURVE",
"80 175 OFFCURVE",
"80 376 CURVE SMOOTH",
"80 576 OFFCURVE",
"241 741 OFFCURVE",
"438 741 CURVE SMOOTH",
"634 741 OFFCURVE",
"794 576 OFFCURVE",
"794 376 CURVE SMOOTH",
"794 175 OFFCURVE",
"633 9 OFFCURVE",
"437 9 CURVE SMOOTH"
);
}
);
width = 874;
},
{
anchors = (
{
name = bottom;
position = "{435, 0}";
},
{
name = center;
position = "{435, 375}";
},
{
name = ogonek;
position = "{783, 10}";
},
{
name = top;
position = "{435, 750}";
},
{
name = topleft;
position = "{20, 750}";
},
{
name = topright;
position = "{850, 750}";
}
);
associatedMasterId = "6418A72B-B7AF-4A99-B2A7-67092BA5BFD7";
layerId = "0EF912AA-9EA3-4978-A993-E43EAD3DDE19";
name = "Regular Jul 8 16, 12:06";
paths = (
{
closed = 1;
nodes = (
"651 -13 OFFCURVE",
"825 168 OFFCURVE",
"825 378 CURVE SMOOTH",
"825 588 OFFCURVE",
"651 763 OFFCURVE",
"436 763 CURVE SMOOTH",
"221 763 OFFCURVE",
"45 586 OFFCURVE",
"45 378 CURVE SMOOTH",
"45 169 OFFCURVE",
"220 -13 OFFCURVE",
"427 -13 CURVE SMOOTH",
"442 -13 LINE SMOOTH"
);
},
{
closed = 1;
nodes = (
"792 179 OFFCURVE",
"631 16 OFFCURVE",
"435 16 CURVE SMOOTH",
"239 16 OFFCURVE",
"78 179 OFFCURVE",
"78 376 CURVE SMOOTH",
"78 572 OFFCURVE",
"239 734 OFFCURVE",
"436 734 CURVE SMOOTH",
"632 734 OFFCURVE",
"792 572 OFFCURVE",
"792 376 CURVE SMOOTH"
);
}
);
width = 870;
}
);
leftKerningGroup = O;
note = O;
rightKerningGroup = O;
unicode = 004F;
},
{
glyphname = Oacute;
lastChange = "2016-07-13 21:35:07 +0000";
layers = (
{
background = {
paths = (
{
closed = 1;
nodes = (
"1475 1204 OFFCURVE",
"1227 1485 OFFCURVE",
"803 1485 CURVE SMOOTH",
"367 1485 OFFCURVE",
"125 1211 OFFCURVE",
"125 735 CURVE SMOOTH",
"125 255 OFFCURVE",
"370 -20 OFFCURVE",
"801 -20 CURVE SMOOTH",
"1226 -20 OFFCURVE",
"1475 265 OFFCURVE",
"1475 733 CURVE SMOOTH"
);
},
{
closed = 1;
nodes = (
"319 1118 OFFCURVE",
"486 1323 OFFCURVE",
"803 1323 CURVE SMOOTH",
"1116 1323 OFFCURVE",
"1280 1124 OFFCURVE",
"1280 733 CURVE SMOOTH",
"1280 341 OFFCURVE",
"1114 139 OFFCURVE",
"801 139 CURVE SMOOTH",
"486 139 OFFCURVE",
"319 346 OFFCURVE",
"319 733 CURVE SMOOTH"
);
},
{
closed = 1;
nodes = (
"776 1579 LINE",
"860 1644 OFFCURVE",
"1010 1801 OFFCURVE",
"1069 1886 CURVE",
"1069 1907 LINE",
"852 1907 LINE",
"799 1803 OFFCURVE",
"708 1668 OFFCURVE",
"657 1604 CURVE",
"657 1579 LINE"
);
}
);
};
components = (
{
name = O;
},
{
name = acutecomb.case;
transform = "{1, 0, 0, 1, 353, 0}";
}
);
layerId = "6418A72B-B7AF-4A99-B2A7-67092BA5BFD7";
width = 874;
}
);
leftKerningGroup = O;
note = Oacute;
rightKerningGroup = O;
unicode = 00D3;
},
{
glyphname = Obreve;
lastChange = "2016-07-13 21:35:07 +0000";
layers = (
{
background = {
paths = (
{
closed = 1;
nodes = (
"1475 1204 OFFCURVE",
"1227 1485 OFFCURVE",
"803 1485 CURVE SMOOTH",
"367 1485 OFFCURVE",
"125 1211 OFFCURVE",
"125 735 CURVE SMOOTH",
"125 255 OFFCURVE",
"370 -20 OFFCURVE",
"801 -20 CURVE SMOOTH",
"1226 -20 OFFCURVE",
"1475 265 OFFCURVE",
"1475 733 CURVE SMOOTH"
);
},
{
closed = 1;
nodes = (
"319 1118 OFFCURVE",
"486 1323 OFFCURVE",
"803 1323 CURVE SMOOTH",
"1116 1323 OFFCURVE",
"1280 1124 OFFCURVE",
"1280 733 CURVE SMOOTH",
"1280 341 OFFCURVE",
"1114 139 OFFCURVE",
"801 139 CURVE SMOOTH",
"486 139 OFFCURVE",
"319 346 OFFCURVE",
"319 733 CURVE SMOOTH"
);
},
{
closed = 1;
nodes = (
"978 1579 OFFCURVE",
"1100 1679 OFFCURVE",
"1117 1854 CURVE",
"1004 1854 LINE",
"993 1765 OFFCURVE",
"932 1724 OFFCURVE",
"797 1724 CURVE SMOOTH",
"644 1724 OFFCURVE",
"601 1759 OFFCURVE",
"590 1854 CURVE",
"480 1854 LINE",
"492 1671 OFFCURVE",
"605 1579 OFFCURVE",
"793 1579 CURVE SMOOTH"
);
}
);
};
components = (
{
name = O;
},
{
name = brevecomb;
transform = "{1, 0, 0, 1, 297, 300}";
}
);
layerId = "6418A72B-B7AF-4A99-B2A7-67092BA5BFD7";
width = 874;
}
);
leftKerningGroup = O;
note = Obreve;
rightKerningGroup = O;
unicode = 014E;
},
{
glyphname = Ocircumflex;
lastChange = "2016-07-13 21:35:07 +0000";
layers = (
{
background = {
paths = (
{
closed = 1;
nodes = (
"1475 1204 OFFCURVE",
"1227 1485 OFFCURVE",
"803 1485 CURVE SMOOTH",
"367 1485 OFFCURVE",
"125 1211 OFFCURVE",
"125 735 CURVE SMOOTH",
"125 255 OFFCURVE",
"370 -20 OFFCURVE",
"801 -20 CURVE SMOOTH",
"1226 -20 OFFCURVE",
"1475 265 OFFCURVE",
"1475 733 CURVE SMOOTH"
);
},
{
closed = 1;
nodes = (
"319 1118 OFFCURVE",
"486 1323 OFFCURVE",
"803 1323 CURVE SMOOTH",
"1116 1323 OFFCURVE",
"1280 1124 OFFCURVE",
"1280 733 CURVE SMOOTH",
"1280 341 OFFCURVE",
"1114 139 OFFCURVE",
"801 139 CURVE SMOOTH",
"486 139 OFFCURVE",
"319 346 OFFCURVE",
"319 733 CURVE SMOOTH"
);
},
{
closed = 1;
nodes = (
"563 1579 LINE",
"622 1616 OFFCURVE",
"695 1678 OFFCURVE",
"782 1763 CURVE",
"871 1676 OFFCURVE",
"945 1614 OFFCURVE",
"1005 1579 CURVE",
"1132 1579 LINE",
"1132 1602 LINE",
"996 1738 OFFCURVE",
"911 1840 OFFCURVE",
"876 1907 CURVE",
"692 1907 LINE",
"676 1878 OFFCURVE",
"651 1843 OFFCURVE",
"617 1800 CURVE SMOOTH",
"582 1757 OFFCURVE",
"523 1691 OFFCURVE",
"440 1602 CURVE",
"440 1579 LINE"
);
}
);
};
components = (
{
name = O;
},
{
name = circumflexcomb;
transform = "{1, 0, 0, 1, 239, 300}";
}
);
layerId = "6418A72B-B7AF-4A99-B2A7-67092BA5BFD7";
width = 874;
}
);
leftKerningGroup = O;
note = Ocircumflex;
rightKerningGroup = O;
unicode = 00D4;
},
{
glyphname = Odieresis;
lastChange = "2016-07-13 21:35:07 +0000";
layers = (
{
background = {
paths = (
{
closed = 1;
nodes = (
"1475 1204 OFFCURVE",
"1227 1485 OFFCURVE",
"803 1485 CURVE SMOOTH",
"367 1485 OFFCURVE",
"125 1211 OFFCURVE",
"125 735 CURVE SMOOTH",
"125 255 OFFCURVE",
"370 -20 OFFCURVE",
"801 -20 CURVE SMOOTH",
"1226 -20 OFFCURVE",
"1475 265 OFFCURVE",
"1475 733 CURVE SMOOTH"
);
},
{
closed = 1;
nodes = (
"319 1118 OFFCURVE",
"486 1323 OFFCURVE",
"803 1323 CURVE SMOOTH",
"1116 1323 OFFCURVE",
"1280 1124 OFFCURVE",
"1280 733 CURVE SMOOTH",
"1280 341 OFFCURVE",
"1114 139 OFFCURVE",
"801 139 CURVE SMOOTH",
"486 139 OFFCURVE",
"319 346 OFFCURVE",
"319 733 CURVE SMOOTH"
);
},
{
closed = 1;
nodes = (
"516 1662 OFFCURVE",
"559 1630 OFFCURVE",
"612 1630 CURVE SMOOTH",
"664 1630 OFFCURVE",
"709 1662 OFFCURVE",
"709 1733 CURVE SMOOTH",
"709 1804 OFFCURVE",
"664 1833 OFFCURVE",
"612 1833 CURVE SMOOTH",
"559 1833 OFFCURVE",
"516 1804 OFFCURVE",
"516 1733 CURVE SMOOTH"
);
},
{
closed = 1;
nodes = (
"901 1662 OFFCURVE",
"944 1630 OFFCURVE",
"995 1630 CURVE SMOOTH",
"1047 1630 OFFCURVE",
"1092 1662 OFFCURVE",
"1092 1733 CURVE SMOOTH",
"1092 1804 OFFCURVE",
"1047 1833 OFFCURVE",
"995 1833 CURVE SMOOTH",
"944 1833 OFFCURVE",
"901 1804 OFFCURVE",
"901 1733 CURVE SMOOTH"
);
}
);
};
components = (
{
name = O;
},
{
name = dieresiscomb.case;
transform = "{1, 0, 0, 1, 306, 0}";
}
);
layerId = "6418A72B-B7AF-4A99-B2A7-67092BA5BFD7";
width = 874;
}
);
leftKerningGroup = O;
note = Odieresis;
rightKerningGroup = O;
unicode = 00D6;
},
{
glyphname = Ograve;
lastChange = "2016-07-13 21:35:07 +0000";
layers = (
{
background = {
paths = (
{
closed = 1;
nodes = (
"1475 1204 OFFCURVE",
"1227 1485 OFFCURVE",
"803 1485 CURVE SMOOTH",
"367 1485 OFFCURVE",
"125 1211 OFFCURVE",
"125 735 CURVE SMOOTH",
"125 255 OFFCURVE",
"370 -20 OFFCURVE",
"801 -20 CURVE SMOOTH",
"1226 -20 OFFCURVE",
"1475 265 OFFCURVE",
"1475 733 CURVE SMOOTH"
);
},
{
closed = 1;
nodes = (
"319 1118 OFFCURVE",
"486 1323 OFFCURVE",
"803 1323 CURVE SMOOTH",
"1116 1323 OFFCURVE",
"1280 1124 OFFCURVE",
"1280 733 CURVE SMOOTH",
"1280 341 OFFCURVE",
"1114 139 OFFCURVE",
"801 139 CURVE SMOOTH",
"486 139 OFFCURVE",
"319 346 OFFCURVE",
"319 733 CURVE SMOOTH"
);
},
{
closed = 1;
nodes = (
"855 1676 OFFCURVE",
"764 1819 OFFCURVE",
"721 1907 CURVE",
"506 1907 LINE",
"506 1886 LINE",
"555 1811 OFFCURVE",
"697 1659 OFFCURVE",
"797 1579 CURVE",
"918 1579 LINE",
"918 1604 LINE"
);
}
);
};
components = (
{
name = O;
},
{
name = gravecomb.case;
transform = "{1, 0, 0, 1, 296, 0}";
}
);
layerId = "6418A72B-B7AF-4A99-B2A7-67092BA5BFD7";
width = 874;
}
);
leftKerningGroup = O;
note = Ograve;
rightKerningGroup = O;
unicode = 00D2;
},
{
glyphname = Ohorn;
lastChange = "2016-07-13 22:59:54 +0000";
layers = (
{
background = {
paths = (
{
closed = 1;
nodes = (
"1473 902 OFFCURVE",
"1442 1045 OFFCURVE",
"1380 1161 CURVE",
"1519 1213 OFFCURVE",
"1608 1321 OFFCURVE",
"1649 1534 CURVE",
"1634 1556 LINE",
"1440 1556 LINE",
"1440 1368 OFFCURVE",
"1400 1297 OFFCURVE",
"1309 1272 CURVE",
"1188 1414 OFFCURVE",
"1020 1485 OFFCURVE",
"803 1485 CURVE SMOOTH",
"370 1485 OFFCURVE",
"125 1215 OFFCURVE",
"125 735 CURVE SMOOTH",
"125 252 OFFCURVE",
"370 -20 OFFCURVE",
"801 -20 CURVE SMOOTH",
"1224 -20 OFFCURVE",
"1473 261 OFFCURVE",
"1473 733 CURVE SMOOTH"
);
},
{
closed = 1;
nodes = (
"319 1117 OFFCURVE",
"482 1323 OFFCURVE",
"803 1323 CURVE SMOOTH",
"1118 1323 OFFCURVE",
"1278 1122 OFFCURVE",
"1278 733 CURVE SMOOTH",
"1278 340 OFFCURVE",
"1117 139 OFFCURVE",
"801 139 CURVE SMOOTH",
"484 139 OFFCURVE",
"319 345 OFFCURVE",
"319 733 CURVE SMOOTH"
);
}
);
};
components = (
{
name = O;
},
{
name = horncomb;
transform = "{1, 0, 0, 1, 534, 289}";
}
);
layerId = "6418A72B-B7AF-4A99-B2A7-67092BA5BFD7";
width = 874;
}
);
leftKerningGroup = O;
rightKerningGroup = O;
unicode = 01A0;
},
{
glyphname = Ohungarumlaut;
lastChange = "2016-07-13 21:35:07 +0000";
layers = (
{
background = {
paths = (
{
closed = 1;
nodes = (
"1475 1204 OFFCURVE",
"1227 1485 OFFCURVE",
"803 1485 CURVE SMOOTH",
"367 1485 OFFCURVE",
"125 1211 OFFCURVE",
"125 735 CURVE SMOOTH",
"125 255 OFFCURVE",
"370 -20 OFFCURVE",
"801 -20 CURVE SMOOTH",
"1226 -20 OFFCURVE",
"1475 265 OFFCURVE",
"1475 733 CURVE SMOOTH"
);
},
{
closed = 1;
nodes = (
"319 1118 OFFCURVE",
"486 1323 OFFCURVE",
"803 1323 CURVE SMOOTH",
"1116 1323 OFFCURVE",
"1280 1124 OFFCURVE",
"1280 733 CURVE SMOOTH",
"1280 341 OFFCURVE",
"1114 139 OFFCURVE",
"801 139 CURVE SMOOTH",
"486 139 OFFCURVE",
"319 346 OFFCURVE",
"319 733 CURVE SMOOTH"
);
},
{
closed = 1;
nodes = (
"607 1579 LINE",
"695 1652 OFFCURVE",
"835 1811 OFFCURVE",
"879 1886 CURVE",
"879 1907 LINE",
"682 1907 LINE",
"630 1800 OFFCURVE",
"551 1665 OFFCURVE",
"504 1604 CURVE",
"504 1579 LINE"
);
},
{
closed = 1;
nodes = (
"967 1579 LINE",
"1055 1652 OFFCURVE",
"1195 1811 OFFCURVE",
"1239 1886 CURVE",
"1239 1907 LINE",
"1043 1907 LINE",
"1010 1832 OFFCURVE",
"928 1691 OFFCURVE",
"865 1604 CURVE",
"865 1579 LINE"
);
}
);
};
components = (
{
name = O;
},
{
name = hungarumlautcomb.case;
transform = "{1, 0, 0, 1, 264, 0}";
}
);
layerId = "6418A72B-B7AF-4A99-B2A7-67092BA5BFD7";
width = 874;
}
);
leftKerningGroup = O;
note = Ohungarumlaut;
rightKerningGroup = O;
unicode = 0150;
},
{
glyphname = Omacron;
lastChange = "2016-07-13 21:35:07 +0000";
layers = (
{
background = {
paths = (
{
closed = 1;
nodes = (
"1475 1204 OFFCURVE",
"1227 1485 OFFCURVE",
"803 1485 CURVE SMOOTH",
"367 1485 OFFCURVE",
"125 1211 OFFCURVE",
"125 735 CURVE SMOOTH",
"125 255 OFFCURVE",
"370 -20 OFFCURVE",
"801 -20 CURVE SMOOTH",
"1226 -20 OFFCURVE",
"1475 265 OFFCURVE",
"1475 733 CURVE SMOOTH"
);
},
{
closed = 1;
nodes = (
"319 1118 OFFCURVE",
"486 1323 OFFCURVE",
"803 1323 CURVE SMOOTH",
"1116 1323 OFFCURVE",
"1280 1124 OFFCURVE",
"1280 733 CURVE SMOOTH",
"1280 341 OFFCURVE",
"1114 139 OFFCURVE",
"801 139 CURVE SMOOTH",
"486 139 OFFCURVE",
"319 346 OFFCURVE",
"319 733 CURVE SMOOTH"
);
},
{
closed = 1;
nodes = (
"1104 1579 LINE",
"1104 1724 LINE",
"496 1724 LINE",
"496 1579 LINE"
);
}
);
};
components = (
{
name = O;
},
{
name = macroncomb.case;
transform = "{1, 0, 0, 1, 288, 0}";
}
);
layerId = "6418A72B-B7AF-4A99-B2A7-67092BA5BFD7";
width = 874;
}
);
leftKerningGroup = O;
note = Omacron;
rightKerningGroup = O;
unicode = 014C;
},
{
glyphname = Oslash;
lastChange = "2016-07-14 00:51:39 +0000";
layers = (
{
background = {
paths = (
{
closed = 1;
nodes = (
"1475 974 OFFCURVE",
"1411 1163 OFFCURVE",
"1282 1298 CURVE",
"1386 1444 LINE",
"1262 1528 LINE",
"1167 1393 LINE",
"1060 1454 OFFCURVE",
"939 1485 OFFCURVE",
"803 1485 CURVE SMOOTH",
"367 1485 OFFCURVE",
"125 1211 OFFCURVE",
"125 735 CURVE SMOOTH",
"125 490 OFFCURVE",
"185 302 OFFCURVE",
"305 170 CURVE",
"199 18 LINE",
"324 -63 LINE",
"422 76 LINE",
"520 12 OFFCURVE",
"646 -20 OFFCURVE",
"801 -20 CURVE SMOOTH",
"1226 -20 OFFCURVE",
"1475 265 OFFCURVE",
"1475 733 CURVE SMOOTH"
);
},
{
closed = 1;
nodes = (
"1280 341 OFFCURVE",
"1114 139 OFFCURVE",
"801 139 CURVE SMOOTH",
"690 139 OFFCURVE",
"596 165 OFFCURVE",
"520 217 CURVE",
"1176 1147 LINE",
"1245 1047 OFFCURVE",
"1280 909 OFFCURVE",
"1280 733 CURVE SMOOTH"
);
},
{
closed = 1;
nodes = (
"319 1118 OFFCURVE",
"486 1323 OFFCURVE",
"803 1323 CURVE SMOOTH",
"908 1323 OFFCURVE",
"996 1299 OFFCURVE",
"1069 1251 CURVE",
"416 328 LINE",
"351 425 OFFCURVE",
"319 560 OFFCURVE",
"319 733 CURVE SMOOTH"
);
}
);
};
components = (
{
name = O;
transform = "{1, 0, 0, 1, 2, 0}";
}
);
layerId = "6418A72B-B7AF-4A99-B2A7-67092BA5BFD7";
paths = (
{
closed = 1;
nodes = (
"183 0 LINE",
"742 748 LINE",
"703 748 LINE",
"146 0 LINE"
);
}
);
width = 885;
}
);
leftKerningGroup = O;
note = Oslash;
rightKerningGroup = O;
unicode = 00D8;
},
{
glyphname = Oslashacute;
lastChange = "2016-07-13 21:35:07 +0000";
layers = (
{
background = {
paths = (
{
closed = 1;
nodes = (
"1475 974 OFFCURVE",
"1411 1163 OFFCURVE",
"1282 1298 CURVE",
"1386 1444 LINE",
"1262 1528 LINE",
"1167 1393 LINE",
"1060 1454 OFFCURVE",
"939 1485 OFFCURVE",
"803 1485 CURVE SMOOTH",
"367 1485 OFFCURVE",
"125 1211 OFFCURVE",
"125 735 CURVE SMOOTH",
"125 490 OFFCURVE",
"185 302 OFFCURVE",
"305 170 CURVE",
"199 18 LINE",
"324 -63 LINE",
"422 76 LINE",
"520 12 OFFCURVE",
"646 -20 OFFCURVE",
"801 -20 CURVE SMOOTH",
"1226 -20 OFFCURVE",
"1475 265 OFFCURVE",
"1475 733 CURVE SMOOTH"
);
},
{
closed = 1;
nodes = (
"1280 341 OFFCURVE",
"1114 139 OFFCURVE",
"801 139 CURVE SMOOTH",
"690 139 OFFCURVE",
"596 165 OFFCURVE",
"520 217 CURVE",
"1176 1147 LINE",
"1245 1047 OFFCURVE",
"1280 909 OFFCURVE",
"1280 733 CURVE SMOOTH"
);
},
{
closed = 1;
nodes = (
"319 1118 OFFCURVE",
"486 1323 OFFCURVE",
"803 1323 CURVE SMOOTH",
"908 1323 OFFCURVE",
"996 1299 OFFCURVE",
"1069 1251 CURVE",
"416 328 LINE",
"351 425 OFFCURVE",
"319 560 OFFCURVE",
"319 733 CURVE SMOOTH"
);
},
{
closed = 1;
nodes = (
"789 1579 LINE",
"873 1644 OFFCURVE",
"1023 1801 OFFCURVE",
"1082 1886 CURVE",
"1082 1907 LINE",
"865 1907 LINE",
"812 1803 OFFCURVE",
"721 1668 OFFCURVE",
"670 1604 CURVE",
"670 1579 LINE"
);
}
);
};
components = (
{
name = Oslash;
},
{
name = acutecomb.case;
transform = "{1, 0, 0, 1, 355, 0}";
}
);
layerId = "6418A72B-B7AF-4A99-B2A7-67092BA5BFD7";
width = 885;
}
);
leftKerningGroup = O;
note = Oslashacute;
rightKerningGroup = O;
unicode = 01FE;
},
{
glyphname = Otilde;
lastChange = "2016-07-13 21:35:07 +0000";
layers = (
{
background = {
paths = (
{
closed = 1;
nodes = (
"1475 1204 OFFCURVE",
"1227 1485 OFFCURVE",
"803 1485 CURVE SMOOTH",
"367 1485 OFFCURVE",
"125 1211 OFFCURVE",
"125 735 CURVE SMOOTH",
"125 255 OFFCURVE",
"370 -20 OFFCURVE",
"801 -20 CURVE SMOOTH",
"1226 -20 OFFCURVE",
"1475 265 OFFCURVE",
"1475 733 CURVE SMOOTH"
);
},
{
closed = 1;
nodes = (
"319 1118 OFFCURVE",
"486 1323 OFFCURVE",
"803 1323 CURVE SMOOTH",
"1116 1323 OFFCURVE",
"1280 1124 OFFCURVE",
"1280 733 CURVE SMOOTH",
"1280 341 OFFCURVE",
"1114 139 OFFCURVE",
"801 139 CURVE SMOOTH",
"486 139 OFFCURVE",
"319 346 OFFCURVE",
"319 733 CURVE SMOOTH"
);
},
{
closed = 1;
nodes = (
"1072 1581 OFFCURVE",
"1152 1684 OFFCURVE",
"1168 1843 CURVE",
"1065 1843 LINE",
"1045 1763 OFFCURVE",
"1017 1724 OFFCURVE",
"953 1724 CURVE SMOOTH",
"910 1724 OFFCURVE",
"862 1754 OFFCURVE",
"810 1783 CURVE SMOOTH",
"758 1811 OFFCURVE",
"701 1841 OFFCURVE",
"641 1841 CURVE SMOOTH",
"512 1841 OFFCURVE",
"432 1742 OFFCURVE",
"416 1579 CURVE",
"520 1579 LINE",
"539 1659 OFFCURVE",
"568 1698 OFFCURVE",
"633 1698 CURVE SMOOTH",
"678 1698 OFFCURVE",
"727 1668 OFFCURVE",
"780 1640 CURVE SMOOTH",
"832 1611 OFFCURVE",
"887 1581 OFFCURVE",
"944 1581 CURVE SMOOTH"
);
}
);
};
components = (
{
name = O;
},
{
name = tildecomb;
transform = "{1, 0, 0, 1, 251, 300}";
}
);
layerId = "6418A72B-B7AF-4A99-B2A7-67092BA5BFD7";
width = 874;
}
);
leftKerningGroup = O;
note = Otilde;
rightKerningGroup = O;
unicode = 00D5;
},
{
glyphname = OE;
lastChange = "2016-07-14 00:51:39 +0000";
layers = (
{
background = {
paths = (
{
closed = 1;
nodes = (
"1190 162 LINE",
"1190 684 LINE",
"1739 684 LINE",
"1739 844 LINE",
"1190 844 LINE",
"1190 1300 LINE",
"1778 1300 LINE",
"1778 1462 LINE",
"987 1462 LINE",
"927 1477 OFFCURVE",
"862 1485 OFFCURVE",
"791 1485 CURVE SMOOTH",
"363 1485 OFFCURVE",
"125 1214 OFFCURVE",
"125 735 CURVE SMOOTH",
"125 254 OFFCURVE",
"368 -20 OFFCURVE",
"801 -20 CURVE SMOOTH",
"865 -20 OFFCURVE",
"931 -13 OFFCURVE",
"999 0 CURVE",
"1778 0 LINE",
"1778 162 LINE"
);
},
{
closed = 1;
nodes = (
"884 1323 OFFCURVE",
"951 1312 OFFCURVE",
"1008 1290 CURVE",
"1008 174 LINE",
"951 151 OFFCURVE",
"883 139 OFFCURVE",
"805 139 CURVE SMOOTH",
"485 139 OFFCURVE",
"317 348 OFFCURVE",
"317 733 CURVE SMOOTH",
"317 1117 OFFCURVE",
"484 1323 OFFCURVE",
"807 1323 CURVE SMOOTH"
);
}
);
};
layerId = "6418A72B-B7AF-4A99-B2A7-67092BA5BFD7";
paths = (
{
closed = 1;
nodes = (
"727 0 LINE",
"727 29 LINE",
"491 29 LINE",
"491 284 LINE",
"688 284 LINE",
"688 313 LINE",
"491 313 LINE",
"491 721 LINE",
"727 721 LINE",
"727 750 LINE",
"438 750 LINE SMOOTH",
"223 750 OFFCURVE",
"53 587 OFFCURVE",
"53 379 CURVE SMOOTH",
"53 171 OFFCURVE",
"222 0 OFFCURVE",
"430 0 CURVE SMOOTH"
);
},
{
closed = 1;
nodes = (
"242 29 OFFCURVE",
"86 181 OFFCURVE",
"86 377 CURVE SMOOTH",
"86 573 OFFCURVE",
"241 721 OFFCURVE",
"438 721 CURVE SMOOTH",
"458 721 LINE",
"458 29 LINE",
"438 29 LINE SMOOTH"
);
}
);
width = 764;
}
);
leftKerningGroup = O;
note = OE;
rightKerningGroup = E;
unicode = 0152;
},
{
glyphname = P;
lastChange = "2016-07-14 00:51:39 +0000";
layers = (
{
background = {
paths = (
{
closed = 1;
nodes = (
"1135 1319 OFFCURVE",
"952 1462 OFFCURVE",
"586 1462 CURVE SMOOTH",
"199 1462 LINE",
"199 0 LINE",
"383 0 LINE",
"383 569 LINE",
"551 569 LINE SMOOTH",
"922 569 OFFCURVE",
"1135 733 OFFCURVE",
"1135 1032 CURVE SMOOTH"
);
},
{
closed = 1;
nodes = (
"569 1305 LINE SMOOTH",
"826 1305 OFFCURVE",
"944 1212 OFFCURVE",
"944 1024 CURVE SMOOTH",
"944 816 OFFCURVE",
"821 727 OFFCURVE",
"530 727 CURVE SMOOTH",
"383 727 LINE",
"383 1305 LINE"
);
}
);
};
layerId = "6418A72B-B7AF-4A99-B2A7-67092BA5BFD7";
paths = (
{
closed = 1;
nodes = (
"111 0 LINE",
"111 273 LINE",
"119 273 LINE SMOOTH",
"255 273 OFFCURVE",
"361 370 OFFCURVE",
"361 520 CURVE SMOOTH",
"361 657 OFFCURVE",
"271 750 OFFCURVE",
"111 750 CURVE SMOOTH",
"78 750 LINE",
"78 0 LINE"
);
},
{
closed = 1;
nodes = (
"111 721 LINE",
"119 721 LINE SMOOTH",
"253 721 OFFCURVE",
"328 648 OFFCURVE",
"328 518 CURVE SMOOTH",
"328 376 OFFCURVE",
"238 302 OFFCURVE",
"121 302 CURVE SMOOTH",
"111 302 LINE"
);
}
);
width = 396;
}
);
leftKerningGroup = H;
note = P;
rightKerningGroup = P;
unicode = 0050;
},
{
glyphname = Thorn;
lastChange = "2016-07-14 00:51:39 +0000";
layers = (
{
background = {
paths = (
{
closed = 1;
nodes = (
"1135 1069 OFFCURVE",
"955 1208 OFFCURVE",
"580 1208 CURVE SMOOTH",
"383 1208 LINE",
"383 1462 LINE",
"199 1462 LINE",
"199 0 LINE",
"383 0 LINE",
"383 317 LINE",
"549 317 LINE SMOOTH",
"929 317 OFFCURVE",
"1135 481 OFFCURVE",
"1135 782 CURVE SMOOTH"
);
},
{
closed = 1;
nodes = (
"565 1051 LINE SMOOTH",
"828 1051 OFFCURVE",
"944 964 OFFCURVE",
"944 772 CURVE SMOOTH",
"944 563 OFFCURVE",
"825 473 OFFCURVE",
"530 473 CURVE SMOOTH",
"383 473 LINE",
"383 1051 LINE"
);
}
);
};
layerId = "6418A72B-B7AF-4A99-B2A7-67092BA5BFD7";
paths = (
{
closed = 1;
nodes = (
"111 0 LINE",
"111 153 LINE",
"120 153 LINE SMOOTH",
"257 153 OFFCURVE",
"364 258 OFFCURVE",
"364 391 CURVE SMOOTH",
"364 545 OFFCURVE",
"276 631 OFFCURVE",
"120 631 CURVE SMOOTH",
"111 631 LINE",
"111 749 LINE",
"79 749 LINE",
"79 0 LINE"
);
},
{
closed = 1;
nodes = (
"111 602 LINE",
"120 602 LINE SMOOTH",
"256 602 OFFCURVE",
"332 526 OFFCURVE",
"332 390 CURVE SMOOTH",
"332 274 OFFCURVE",
"239 182 OFFCURVE",
"120 182 CURVE SMOOTH",
"111 182 LINE"
);
}
);
width = 417;
}
);
leftKerningGroup = H;
note = Thorn;
rightKerningGroup = P;
unicode = 00DE;
},
{
glyphname = Q;
lastChange = "2016-07-14 00:51:39 +0000";
layers = (
{
background = {
paths = (
{
closed = 1;
nodes = (
"1475 1204 OFFCURVE",
"1227 1485 OFFCURVE",
"803 1485 CURVE SMOOTH",
"367 1485 OFFCURVE",
"125 1211 OFFCURVE",
"125 735 CURVE SMOOTH",
"125 255 OFFCURVE",
"370 -20 OFFCURVE",
"801 -20 CURVE",
"852 -18 LINE",
"1135 -348 LINE",
"1399 -348 LINE",
"1049 16 LINE",
"1321 109 OFFCURVE",
"1475 364 OFFCURVE",
"1475 733 CURVE SMOOTH"
);
},
{
closed = 1;
nodes = (
"319 1118 OFFCURVE",
"486 1323 OFFCURVE",
"803 1323 CURVE SMOOTH",
"1116 1323 OFFCURVE",
"1280 1124 OFFCURVE",
"1280 733 CURVE SMOOTH",
"1280 341 OFFCURVE",
"1114 139 OFFCURVE",
"801 139 CURVE SMOOTH",
"486 139 OFFCURVE",
"319 346 OFFCURVE",
"319 733 CURVE SMOOTH"
);
}
);
};
components = (
{
name = O;
transform = "{1, 0, 0, 1, 2, 0}";
}
);
layerId = "6418A72B-B7AF-4A99-B2A7-67092BA5BFD7";
paths = (
{
closed = 1;
nodes = (
"756 -12 LINE",
"498 243 LINE",
"455 243 LINE",
"712 -12 LINE"
);
}
);
width = 874;
}
);
leftKerningGroup = O;
note = Q;
rightKerningGroup = O;
unicode = 0051;
},
{
glyphname = R;
lastChange = "2016-07-14 00:51:39 +0000";
layers = (
{
anchors = (
{
name = bottom;
position = "{198, 0}";
},
{
name = top;
position = "{172, 750}";
}
);
background = {
paths = (
{
closed = 1;
nodes = (
"592 1303 LINE SMOOTH",
"840 1303 OFFCURVE",
"944 1222 OFFCURVE",
"944 1038 CURVE SMOOTH",
"944 854 OFFCURVE",
"839 760 OFFCURVE",
"602 760 CURVE SMOOTH",
"383 760 LINE",
"383 1303 LINE"
);
},
{
closed = 1;
nodes = (
"1028 0 LINE",
"1243 0 LINE",
"842 655 LINE",
"1037 722 OFFCURVE",
"1135 853 OFFCURVE",
"1135 1047 CURVE SMOOTH",
"1135 1324 OFFCURVE",
"965 1462 OFFCURVE",
"602 1462 CURVE SMOOTH",
"199 1462 LINE",
"199 0 LINE",
"383 0 LINE",
"383 604 LINE",
"674 604 LINE"
);
}
);
};
layerId = "6418A72B-B7AF-4A99-B2A7-67092BA5BFD7";
paths = (
{
closed = 1;
nodes = (
"111 0 LINE",
"111 238 LINE",
"338 0 LINE",
"381 0 LINE",
"123 272 LINE",
"130 272 LINE SMOOTH",
"262 272 OFFCURVE",
"366 377 OFFCURVE",
"366 511 CURVE SMOOTH",
"366 664 OFFCURVE",
"278 750 OFFCURVE",
"122 750 CURVE SMOOTH",
"79 750 LINE",
"79 0 LINE"
);
},
{
closed = 1;
nodes = (
"111 721 LINE",
"124 721 LINE SMOOTH",
"258 721 OFFCURVE",
"334 645 OFFCURVE",
"334 510 CURVE SMOOTH",
"334 393 OFFCURVE",
"244 301 OFFCURVE",
"129 301 CURVE SMOOTH",
"111 301 LINE"
);
}
);
width = 413;
}
);
leftKerningGroup = H;
note = R;
rightKerningGroup = R;
unicode = 0052;
},
{
glyphname = Racute;
lastChange = "2016-07-13 21:35:07 +0000";
layers = (
{
background = {
paths = (
{
closed = 1;
nodes = (
"592 1303 LINE SMOOTH",
"840 1303 OFFCURVE",
"944 1222 OFFCURVE",
"944 1038 CURVE SMOOTH",
"944 854 OFFCURVE",
"839 760 OFFCURVE",
"602 760 CURVE SMOOTH",
"383 760 LINE",
"383 1303 LINE"
);
},
{
closed = 1;
nodes = (
"1028 0 LINE",
"1243 0 LINE",
"842 655 LINE",
"1037 722 OFFCURVE",
"1135 853 OFFCURVE",
"1135 1047 CURVE SMOOTH",
"1135 1324 OFFCURVE",
"965 1462 OFFCURVE",
"602 1462 CURVE SMOOTH",
"199 1462 LINE",
"199 0 LINE",
"383 0 LINE",
"383 604 LINE",
"674 604 LINE"
);
},
{
closed = 1;
nodes = (
"629 1579 LINE",
"713 1644 OFFCURVE",
"863 1801 OFFCURVE",
"922 1886 CURVE",
"922 1907 LINE",
"705 1907 LINE",
"652 1803 OFFCURVE",
"561 1668 OFFCURVE",
"510 1604 CURVE",
"510 1579 LINE"
);
}
);
};
components = (
{
name = R;
},
{
name = acutecomb.case;
transform = "{1, 0, 0, 1, 88, 0}";
}
);
layerId = "6418A72B-B7AF-4A99-B2A7-67092BA5BFD7";
width = 413;
}
);
leftKerningGroup = H;
note = Racute;
rightKerningGroup = R;
unicode = 0154;
},
{
glyphname = Rcaron;
lastChange = "2016-07-13 21:35:07 +0000";
layers = (
{
background = {
paths = (
{
closed = 1;
nodes = (
"592 1303 LINE SMOOTH",
"840 1303 OFFCURVE",
"944 1222 OFFCURVE",
"944 1038 CURVE SMOOTH",
"944 854 OFFCURVE",
"839 760 OFFCURVE",
"602 760 CURVE SMOOTH",
"383 760 LINE",
"383 1303 LINE"
);
},
{
closed = 1;
nodes = (
"1028 0 LINE",
"1243 0 LINE",
"842 655 LINE",
"1037 722 OFFCURVE",
"1135 853 OFFCURVE",
"1135 1047 CURVE SMOOTH",
"1135 1324 OFFCURVE",
"965 1462 OFFCURVE",
"602 1462 CURVE SMOOTH",
"199 1462 LINE",
"199 0 LINE",
"383 0 LINE",
"383 604 LINE",
"674 604 LINE"
);
},
{
closed = 1;
nodes = (
"417 1747 OFFCURVE",
"501 1647 OFFCURVE",
"541 1579 CURVE",
"725 1579 LINE",
"759 1643 OFFCURVE",
"844 1743 OFFCURVE",
"981 1880 CURVE",
"981 1907 LINE",
"854 1907 LINE",
"789 1865 OFFCURVE",
"715 1802 OFFCURVE",
"631 1718 CURVE",
"561 1795 OFFCURVE",
"488 1858 OFFCURVE",
"412 1907 CURVE",
"289 1907 LINE",
"289 1880 LINE"
);
}
);
};
components = (
{
name = R;
},
{
name = caroncomb;
transform = "{1, 0, 0, 1, 6, 300}";
}
);
layerId = "6418A72B-B7AF-4A99-B2A7-67092BA5BFD7";
width = 413;
}
);
leftKerningGroup = H;
note = Rcaron;
rightKerningGroup = R;
unicode = 0158;
},
{
glyphname = Rcommaaccent;
lastChange = "2016-07-13 21:35:07 +0000";
layers = (
{
background = {
paths = (
{
closed = 1;
nodes = (
"592 1303 LINE SMOOTH",
"840 1303 OFFCURVE",
"944 1222 OFFCURVE",
"944 1038 CURVE SMOOTH",
"944 854 OFFCURVE",
"839 760 OFFCURVE",
"602 760 CURVE SMOOTH",
"383 760 LINE",
"383 1303 LINE"
);
},
{
closed = 1;
nodes = (
"1028 0 LINE",
"1243 0 LINE",
"842 655 LINE",
"1037 722 OFFCURVE",
"1135 853 OFFCURVE",
"1135 1047 CURVE SMOOTH",
"1135 1324 OFFCURVE",
"965 1462 OFFCURVE",
"602 1462 CURVE SMOOTH",
"199 1462 LINE",
"199 0 LINE",
"383 0 LINE",
"383 604 LINE",
"674 604 LINE"
);
},
{
closed = 1;
nodes = (
"594 -453 LINE",
"662 -373 OFFCURVE",
"737 -227 OFFCURVE",
"758 -143 CURVE",
"758 -125 LINE",
"580 -125 LINE",
"569 -213 OFFCURVE",
"525 -360 OFFCURVE",
"496 -428 CURVE",
"496 -453 LINE"
);
}
);
};
components = (
{
name = R;
},
{
name = commaaccentcomb.case;
transform = "{1, 0, 0, 1, 114, 0}";
}
);
layerId = "6418A72B-B7AF-4A99-B2A7-67092BA5BFD7";
width = 413;
}
);
leftKerningGroup = H;
note = uni0156;
rightKerningGroup = R;
unicode = 0156;
},
{
glyphname = S;
lastChange = "2016-07-14 00:51:39 +0000";
layers = (
{
anchors = (
{
name = bottom;
position = "{241, 0}";
},
{
name = top;
position = "{251, 750}";
}
);
background = {
paths = (
{
closed = 1;
nodes = (
"1028 459 OFFCURVE",
"1015 518 OFFCURVE",
"990 567 CURVE SMOOTH",
"939 665 OFFCURVE",
"846 733 OFFCURVE",
"629 813 CURVE SMOOTH",
"538 846 OFFCURVE",
"472 876 OFFCURVE",
"430 902 CURVE SMOOTH",
"345 954 OFFCURVE",
"309 1012 OFFCURVE",
"309 1108 CURVE SMOOTH",
"309 1243 OFFCURVE",
"413 1321 OFFCURVE",
"586 1321 CURVE SMOOTH",
"694 1321 OFFCURVE",
"811 1295 OFFCURVE",
"936 1243 CURVE",
"993 1401 LINE",
"870 1456 OFFCURVE",
"736 1483 OFFCURVE",
"590 1483 CURVE SMOOTH",
"310 1483 OFFCURVE",
"123 1338 OFFCURVE",
"123 1110 CURVE SMOOTH",
"123 898 OFFCURVE",
"229 775 OFFCURVE",
"500 676 CURVE SMOOTH",
"595 641 OFFCURVE",
"667 610 OFFCURVE",
"714 583 CURVE SMOOTH",
"808 528 OFFCURVE",
"844 472 OFFCURVE",
"844 375 CURVE SMOOTH",
"844 228 OFFCURVE",
"733 139 OFFCURVE",
"514 139 CURVE SMOOTH",
"386 139 OFFCURVE",
"228 172 OFFCURVE",
"104 225 CURVE",
"104 49 LINE",
"199 3 OFFCURVE",
"333 -20 OFFCURVE",
"506 -20 CURVE SMOOTH",
"834 -20 OFFCURVE",
"1028 136 OFFCURVE",
"1028 391 CURVE SMOOTH"
);
}
);
};
layerId = "6418A72B-B7AF-4A99-B2A7-67092BA5BFD7";
paths = (
{
closed = 1;
nodes = (
"363 -14 OFFCURVE",
"460 66 OFFCURVE",
"460 193 CURVE SMOOTH",
"460 258 OFFCURVE",
"439 310 OFFCURVE",
"391 355 CURVE SMOOTH",
"350 391 OFFCURVE",
"298 424 OFFCURVE",
"248 453 CURVE SMOOTH",
"151 508 OFFCURVE",
"110 550 OFFCURVE",
"110 620 CURVE SMOOTH",
"110 691 OFFCURVE",
"163 734 OFFCURVE",
"228 734 CURVE SMOOTH",
"293 734 OFFCURVE",
"348 700 OFFCURVE",
"379 644 CURVE",
"379 695 LINE",
"343 740 OFFCURVE",
"294 763 OFFCURVE",
"233 763 CURVE SMOOTH",
"145 763 OFFCURVE",
"77 712 OFFCURVE",
"77 619 CURVE SMOOTH",
"77 583 OFFCURVE",
"85 556 OFFCURVE",
"103 529 CURVE SMOOTH",
"138 478 OFFCURVE",
"192 451 OFFCURVE",
"253 412 CURVE SMOOTH",
"387 330 OFFCURVE",
"429 285 OFFCURVE",
"429 191 CURVE SMOOTH",
"429 84 OFFCURVE",
"344 15 OFFCURVE",
"244 15 CURVE SMOOTH",
"144 15 OFFCURVE",
"77 67 OFFCURVE",
"42 143 CURVE",
"42 89 LINE",
"88 20 OFFCURVE",
"153 -14 OFFCURVE",
"236 -14 CURVE SMOOTH"
);
}
);
width = 502;
}
);
leftKerningGroup = S;
note = S;
rightKerningGroup = S;
unicode = 0053;
},
{
glyphname = Sacute;
lastChange = "2016-07-13 21:35:07 +0000";
layers = (
{
background = {
paths = (
{
closed = 1;
nodes = (
"1028 459 OFFCURVE",
"1015 518 OFFCURVE",
"990 567 CURVE SMOOTH",
"939 665 OFFCURVE",
"846 733 OFFCURVE",
"629 813 CURVE SMOOTH",
"538 846 OFFCURVE",
"472 876 OFFCURVE",
"430 902 CURVE SMOOTH",
"345 954 OFFCURVE",
"309 1012 OFFCURVE",
"309 1108 CURVE SMOOTH",
"309 1243 OFFCURVE",
"413 1321 OFFCURVE",
"586 1321 CURVE SMOOTH",
"694 1321 OFFCURVE",
"811 1295 OFFCURVE",
"936 1243 CURVE",
"993 1401 LINE",
"870 1456 OFFCURVE",
"736 1483 OFFCURVE",
"590 1483 CURVE SMOOTH",
"310 1483 OFFCURVE",
"123 1338 OFFCURVE",
"123 1110 CURVE SMOOTH",
"123 898 OFFCURVE",
"229 775 OFFCURVE",
"500 676 CURVE SMOOTH",
"595 641 OFFCURVE",
"667 610 OFFCURVE",
"714 583 CURVE SMOOTH",
"808 528 OFFCURVE",
"844 472 OFFCURVE",
"844 375 CURVE SMOOTH",
"844 228 OFFCURVE",
"733 139 OFFCURVE",
"514 139 CURVE SMOOTH",
"386 139 OFFCURVE",
"228 172 OFFCURVE",
"104 225 CURVE",
"104 49 LINE",
"199 3 OFFCURVE",
"333 -20 OFFCURVE",
"506 -20 CURVE SMOOTH",
"834 -20 OFFCURVE",
"1028 136 OFFCURVE",
"1028 391 CURVE SMOOTH"
);
},
{
closed = 1;
nodes = (
"584 1579 LINE",
"668 1644 OFFCURVE",
"818 1801 OFFCURVE",
"877 1886 CURVE",
"877 1907 LINE",
"660 1907 LINE",
"607 1803 OFFCURVE",
"516 1668 OFFCURVE",
"465 1604 CURVE",
"465 1579 LINE"
);
}
);
};
components = (
{
name = S;
},
{
name = acutecomb.case;
transform = "{1, 0, 0, 1, 167, 0}";
}
);
layerId = "6418A72B-B7AF-4A99-B2A7-67092BA5BFD7";
width = 502;
}
);
leftKerningGroup = S;
note = Sacute;
rightKerningGroup = S;
unicode = 015A;
},
{
glyphname = Scaron;
lastChange = "2016-07-13 21:35:07 +0000";
layers = (
{
background = {
paths = (
{
closed = 1;
nodes = (
"1028 459 OFFCURVE",
"1015 518 OFFCURVE",
"990 567 CURVE SMOOTH",
"939 665 OFFCURVE",
"846 733 OFFCURVE",
"629 813 CURVE SMOOTH",
"538 846 OFFCURVE",
"472 876 OFFCURVE",
"430 902 CURVE SMOOTH",
"345 954 OFFCURVE",
"309 1012 OFFCURVE",
"309 1108 CURVE SMOOTH",
"309 1243 OFFCURVE",
"413 1321 OFFCURVE",
"586 1321 CURVE SMOOTH",
"694 1321 OFFCURVE",
"811 1295 OFFCURVE",
"936 1243 CURVE",
"993 1401 LINE",
"870 1456 OFFCURVE",
"736 1483 OFFCURVE",
"590 1483 CURVE SMOOTH",
"310 1483 OFFCURVE",
"123 1338 OFFCURVE",
"123 1110 CURVE SMOOTH",
"123 898 OFFCURVE",
"229 775 OFFCURVE",
"500 676 CURVE SMOOTH",
"595 641 OFFCURVE",
"667 610 OFFCURVE",
"714 583 CURVE SMOOTH",
"808 528 OFFCURVE",
"844 472 OFFCURVE",
"844 375 CURVE SMOOTH",
"844 228 OFFCURVE",
"733 139 OFFCURVE",
"514 139 CURVE SMOOTH",
"386 139 OFFCURVE",
"228 172 OFFCURVE",
"104 225 CURVE",
"104 49 LINE",
"199 3 OFFCURVE",
"333 -20 OFFCURVE",
"506 -20 CURVE SMOOTH",
"834 -20 OFFCURVE",
"1028 136 OFFCURVE",
"1028 391 CURVE SMOOTH"
);
},
{
closed = 1;
nodes = (
"362 1747 OFFCURVE",
"446 1647 OFFCURVE",
"486 1579 CURVE",
"670 1579 LINE",
"704 1643 OFFCURVE",
"789 1743 OFFCURVE",
"926 1880 CURVE",
"926 1907 LINE",
"799 1907 LINE",
"734 1865 OFFCURVE",
"660 1802 OFFCURVE",
"576 1718 CURVE",
"506 1795 OFFCURVE",
"433 1858 OFFCURVE",
"357 1907 CURVE",
"234 1907 LINE",
"234 1880 LINE"
);
}
);
};
components = (
{
name = S;
},
{
name = caroncomb;
transform = "{1, 0, 0, 1, 85, 300}";
}
);
layerId = "6418A72B-B7AF-4A99-B2A7-67092BA5BFD7";
width = 502;
}
);
leftKerningGroup = S;
note = Scaron;
rightKerningGroup = S;
unicode = 0160;
},
{
glyphname = Scedilla;
lastChange = "2016-07-13 21:35:07 +0000";
layers = (
{
background = {
paths = (
{
closed = 1;
nodes = (
"1028 459 OFFCURVE",
"1015 518 OFFCURVE",
"990 567 CURVE SMOOTH",
"939 665 OFFCURVE",
"846 733 OFFCURVE",
"629 813 CURVE SMOOTH",
"538 846 OFFCURVE",
"472 876 OFFCURVE",
"430 902 CURVE SMOOTH",
"345 954 OFFCURVE",
"309 1012 OFFCURVE",
"309 1108 CURVE SMOOTH",
"309 1243 OFFCURVE",
"413 1321 OFFCURVE",
"586 1321 CURVE SMOOTH",
"694 1321 OFFCURVE",
"811 1295 OFFCURVE",
"936 1243 CURVE",
"993 1401 LINE",
"870 1456 OFFCURVE",
"736 1483 OFFCURVE",
"590 1483 CURVE SMOOTH",
"310 1483 OFFCURVE",
"123 1338 OFFCURVE",
"123 1110 CURVE SMOOTH",
"123 898 OFFCURVE",
"229 775 OFFCURVE",
"500 676 CURVE SMOOTH",
"595 641 OFFCURVE",
"667 610 OFFCURVE",
"714 583 CURVE SMOOTH",
"808 528 OFFCURVE",
"844 472 OFFCURVE",
"844 375 CURVE SMOOTH",
"844 228 OFFCURVE",
"733 139 OFFCURVE",
"514 139 CURVE SMOOTH",
"386 139 OFFCURVE",
"228 172 OFFCURVE",
"104 225 CURVE",
"104 49 LINE",
"199 3 OFFCURVE",
"333 -20 OFFCURVE",
"506 -20 CURVE SMOOTH",
"834 -20 OFFCURVE",
"1028 136 OFFCURVE",
"1028 391 CURVE SMOOTH"
);
},
{
closed = 1;
nodes = (
"733 -193 OFFCURVE",
"674 -134 OFFCURVE",
"555 -109 CURVE",
"608 0 LINE",
"489 0 LINE",
"401 -176 LINE",
"526 -192 OFFCURVE",
"588 -230 OFFCURVE",
"588 -289 CURVE SMOOTH",
"588 -357 OFFCURVE",
"536 -379 OFFCURVE",
"436 -379 CURVE SMOOTH",
"388 -379 OFFCURVE",
"352 -376 OFFCURVE",
"328 -369 CURVE",
"328 -481 LINE",
"353 -488 OFFCURVE",
"387 -492 OFFCURVE",
"430 -492 CURVE SMOOTH",
"633 -492 OFFCURVE",
"733 -417 OFFCURVE",
"733 -285 CURVE SMOOTH"
);
}
);
};
components = (
{
name = S;
},
{
name = cedillacomb;
transform = "{1, 0, 0, 1, 169, 0}";
}
);
layerId = "6418A72B-B7AF-4A99-B2A7-67092BA5BFD7";
width = 502;
}
);
leftKerningGroup = S;
note = Scedilla;
rightKerningGroup = S;
unicode = 015E;
},
{
glyphname = Scircumflex;
lastChange = "2016-07-13 21:35:07 +0000";
layers = (
{
background = {
paths = (
{
closed = 1;
nodes = (
"1028 459 OFFCURVE",
"1015 518 OFFCURVE",
"990 567 CURVE SMOOTH",
"939 665 OFFCURVE",
"846 733 OFFCURVE",
"629 813 CURVE SMOOTH",
"538 846 OFFCURVE",
"472 876 OFFCURVE",
"430 902 CURVE SMOOTH",
"345 954 OFFCURVE",
"309 1012 OFFCURVE",
"309 1108 CURVE SMOOTH",
"309 1243 OFFCURVE",
"413 1321 OFFCURVE",
"586 1321 CURVE SMOOTH",
"694 1321 OFFCURVE",
"811 1295 OFFCURVE",
"936 1243 CURVE",
"993 1401 LINE",
"870 1456 OFFCURVE",
"736 1483 OFFCURVE",
"590 1483 CURVE SMOOTH",
"310 1483 OFFCURVE",
"123 1338 OFFCURVE",
"123 1110 CURVE SMOOTH",
"123 898 OFFCURVE",
"229 775 OFFCURVE",
"500 676 CURVE SMOOTH",
"595 641 OFFCURVE",
"667 610 OFFCURVE",
"714 583 CURVE SMOOTH",
"808 528 OFFCURVE",
"844 472 OFFCURVE",
"844 375 CURVE SMOOTH",
"844 228 OFFCURVE",
"733 139 OFFCURVE",
"514 139 CURVE SMOOTH",
"386 139 OFFCURVE",
"228 172 OFFCURVE",
"104 225 CURVE",
"104 49 LINE",
"199 3 OFFCURVE",
"333 -20 OFFCURVE",
"506 -20 CURVE SMOOTH",
"834 -20 OFFCURVE",
"1028 136 OFFCURVE",
"1028 391 CURVE SMOOTH"
);
},
{
closed = 1;
nodes = (
"361 1579 LINE",
"420 1616 OFFCURVE",
"493 1678 OFFCURVE",
"580 1763 CURVE",
"669 1676 OFFCURVE",
"743 1614 OFFCURVE",
"803 1579 CURVE",
"930 1579 LINE",
"930 1602 LINE",
"794 1738 OFFCURVE",
"709 1840 OFFCURVE",
"674 1907 CURVE",
"490 1907 LINE",
"474 1878 OFFCURVE",
"449 1843 OFFCURVE",
"415 1800 CURVE SMOOTH",
"380 1757 OFFCURVE",
"321 1691 OFFCURVE",
"238 1602 CURVE",
"238 1579 LINE"
);
}
);
};
components = (
{
name = S;
},
{
name = circumflexcomb;
transform = "{1, 0, 0, 1, 53, 300}";
}
);
layerId = "6418A72B-B7AF-4A99-B2A7-67092BA5BFD7";
width = 502;
}
);
leftKerningGroup = S;
note = Scircumflex;
rightKerningGroup = S;
unicode = 015C;
},
{
glyphname = Scommaaccent;
lastChange = "2016-07-13 21:35:07 +0000";
layers = (
{
background = {
paths = (
{
closed = 1;
nodes = (
"1028 459 OFFCURVE",
"1015 518 OFFCURVE",
"990 567 CURVE SMOOTH",
"939 665 OFFCURVE",
"846 733 OFFCURVE",
"629 813 CURVE SMOOTH",
"538 846 OFFCURVE",
"472 876 OFFCURVE",
"430 902 CURVE SMOOTH",
"345 954 OFFCURVE",
"309 1012 OFFCURVE",
"309 1108 CURVE SMOOTH",
"309 1243 OFFCURVE",
"413 1321 OFFCURVE",
"586 1321 CURVE SMOOTH",
"694 1321 OFFCURVE",
"811 1295 OFFCURVE",
"936 1243 CURVE",
"993 1401 LINE",
"870 1456 OFFCURVE",
"736 1483 OFFCURVE",
"590 1483 CURVE SMOOTH",
"310 1483 OFFCURVE",
"123 1338 OFFCURVE",
"123 1110 CURVE SMOOTH",
"123 898 OFFCURVE",
"229 775 OFFCURVE",
"500 676 CURVE SMOOTH",
"595 641 OFFCURVE",
"667 610 OFFCURVE",
"714 583 CURVE SMOOTH",
"808 528 OFFCURVE",
"844 472 OFFCURVE",
"844 375 CURVE SMOOTH",
"844 228 OFFCURVE",
"733 139 OFFCURVE",
"514 139 CURVE SMOOTH",
"386 139 OFFCURVE",
"228 172 OFFCURVE",
"104 225 CURVE",
"104 49 LINE",
"199 3 OFFCURVE",
"333 -20 OFFCURVE",
"506 -20 CURVE SMOOTH",
"834 -20 OFFCURVE",
"1028 136 OFFCURVE",
"1028 391 CURVE SMOOTH"
);
},
{
closed = 1;
nodes = (
"488 -453 LINE",
"556 -373 OFFCURVE",
"631 -227 OFFCURVE",
"652 -143 CURVE",
"652 -125 LINE",
"474 -125 LINE",
"463 -213 OFFCURVE",
"419 -360 OFFCURVE",
"390 -428 CURVE",
"390 -453 LINE"
);
}
);
};
components = (
{
name = S;
},
{
name = commaaccentcomb.case;
transform = "{1, 0, 0, 1, 157, 0}";
}
);
layerId = "6418A72B-B7AF-4A99-B2A7-67092BA5BFD7";
width = 502;
}
);
leftKerningGroup = S;
note = uni0218;
rightKerningGroup = S;
unicode = 0218;
},
{
glyphname = Germandbls;
lastChange = "2016-07-14 00:51:39 +0000";
layers = (
{
anchors = (
{
name = bottom;
position = "{292, 0}";
}
);
background = {
paths = (
{
closed = 1;
nodes = (
"79 610 LINE",
"79 0 LINE",
"111 0 LINE",
"111 610 LINE"
);
},
{
closed = 1;
nodes = (
"224 751 CURVE SMOOTH",
"141 751 OFFCURVE",
"79 689 OFFCURVE",
"79 611 CURVE SMOOTH",
"79 610 LINE",
"111 610 LINE",
"111 611 LINE SMOOTH",
"111 672 OFFCURVE",
"158 723 OFFCURVE",
"224 723 CURVE SMOOTH",
"290 723 OFFCURVE",
"334 680 OFFCURVE",
"334 605 CURVE",
"366 610 LINE",
"366 693 OFFCURVE",
"307 751 OFFCURVE"
);
}
);
};
layerId = "6418A72B-B7AF-4A99-B2A7-67092BA5BFD7";
paths = (
{
closed = 1;
nodes = (
"398 -13 OFFCURVE",
"489 75 OFFCURVE",
"489 245 CURVE SMOOTH",
"489 392 OFFCURVE",
"394 478 OFFCURVE",
"276 476 CURVE",
"343 532 OFFCURVE",
"369 566 OFFCURVE",
"369 629 CURVE SMOOTH",
"369 698 OFFCURVE",
"323 760 OFFCURVE",
"234 760 CURVE SMOOTH",
"144 760 OFFCURVE",
"79 692 OFFCURVE",
"79 590 CURVE SMOOTH",
"79 0 LINE",
"111 0 LINE",
"111 590 LINE SMOOTH",
"111 671 OFFCURVE",
"163 732 OFFCURVE",
"235 732 CURVE SMOOTH",
"297 732 OFFCURVE",
"337 692 OFFCURVE",
"337 624 CURVE SMOOTH",
"337 549 OFFCURVE",
"260 500 OFFCURVE",
"212 453 CURVE",
"372 471 OFFCURVE",
"456 382 OFFCURVE",
"456 248 CURVE SMOOTH",
"456 92 OFFCURVE",
"382 16 OFFCURVE",
"284 16 CURVE SMOOTH",
"238 16 OFFCURVE",
"199 31 OFFCURVE",
"167 67 CURVE",
"167 23 LINE",
"200 0 OFFCURVE",
"240 -13 OFFCURVE",
"284 -13 CURVE SMOOTH"
);
}
);
width = 530;
}
);
leftKerningGroup = H;
leftMetricsKey = B;
rightKerningGroup = B;
rightMetricsKey = B;
unicode = 1E9E;
},
{
glyphname = T;
lastChange = "2016-07-14 00:51:39 +0000";
layers = (
{
anchors = (
{
name = bottom;
position = "{210, 0}";
},
{
name = center;
position = "{210, 375}";
},
{
name = top;
position = "{210, 750}";
}
);
background = {
paths = (
{
closed = 1;
nodes = (
"1116 1300 LINE",
"1116 1462 LINE",
"20 1462 LINE",
"20 1300 LINE",
"477 1300 LINE",
"477 0 LINE",
"662 0 LINE",
"662 1300 LINE"
);
}
);
};
layerId = "6418A72B-B7AF-4A99-B2A7-67092BA5BFD7";
paths = (
{
closed = 1;
nodes = (
"227 0 LINE",
"227 721 LINE",
"398 721 LINE",
"398 750 LINE",
"21 750 LINE",
"21 721 LINE",
"194 721 LINE",
"194 0 LINE"
);
}
);
width = 419;
}
);
leftKerningGroup = T;
note = T;
rightKerningGroup = T;
unicode = 0054;
},
{
glyphname = Tbar;
lastChange = "2016-07-14 00:51:39 +0000";
layers = (
{
background = {
paths = (
{
closed = 1;
nodes = (
"170 666 LINE",
"475 666 LINE",
"475 0 LINE",
"659 0 LINE",
"659 666 LINE",
"963 666 LINE",
"963 817 LINE",
"659 817 LINE",
"659 1298 LINE",
"1116 1298 LINE",
"1116 1462 LINE",
"20 1462 LINE",
"20 1298 LINE",
"475 1298 LINE",
"475 817 LINE",
"170 817 LINE"
);
}
);
};
layerId = "6418A72B-B7AF-4A99-B2A7-67092BA5BFD7";
paths = (
{
closed = 1;
nodes = (
"227 0 LINE",
"227 275 LINE",
"345 275 LINE",
"345 304 LINE",
"227 304 LINE",
"227 721 LINE",
"398 721 LINE",
"398 750 LINE",
"21 750 LINE",
"21 721 LINE",
"194 721 LINE",
"194 304 LINE",
"76 304 LINE",
"76 275 LINE",
"194 275 LINE",
"194 0 LINE"
);
}
);
width = 419;
}
);
leftKerningGroup = T;
note = Tbar;
rightKerningGroup = T;
unicode = 0166;
},
{
glyphname = Tcaron;
lastChange = "2016-07-13 21:35:07 +0000";
layers = (
{
background = {
paths = (
{
closed = 1;
nodes = (
"1116 1300 LINE",
"1116 1462 LINE",
"20 1462 LINE",
"20 1300 LINE",
"477 1300 LINE",
"477 0 LINE",
"662 0 LINE",
"662 1300 LINE"
);
},
{
closed = 1;
nodes = (
"354 1747 OFFCURVE",
"438 1647 OFFCURVE",
"478 1579 CURVE",
"662 1579 LINE",
"696 1643 OFFCURVE",
"781 1743 OFFCURVE",
"918 1880 CURVE",
"918 1907 LINE",
"791 1907 LINE",
"726 1865 OFFCURVE",
"652 1802 OFFCURVE",
"568 1718 CURVE",
"498 1795 OFFCURVE",
"425 1858 OFFCURVE",
"349 1907 CURVE",
"226 1907 LINE",
"226 1880 LINE"
);
}
);
};
components = (
{
name = T;
},
{
name = caroncomb;
transform = "{1, 0, 0, 1, 44, 300}";
}
);
layerId = "6418A72B-B7AF-4A99-B2A7-67092BA5BFD7";
width = 419;
}
);
leftKerningGroup = T;
note = Tcaron;
rightKerningGroup = T;
unicode = 0164;
},
{
glyphname = Tcedilla;
lastChange = "2016-07-14 00:51:39 +0000";
layers = (
{
layerId = "6418A72B-B7AF-4A99-B2A7-67092BA5BFD7";
paths = (
{
closed = 1;
nodes = (
"227 0 LINE",
"227 721 LINE",
"398 721 LINE",
"398 750 LINE",
"21 750 LINE",
"21 721 LINE",
"194 721 LINE",
"194 0 LINE"
);
},
{
closed = 1;
nodes = (
"210 -195 LINE",
"241 -124 LINE",
"243 -118 OFFCURVE",
"244 -113 OFFCURVE",
"244 -108 CURVE SMOOTH",
"244 -87 OFFCURVE",
"233 -77 OFFCURVE",
"210 -77 CURVE SMOOTH",
"187 -77 OFFCURVE",
"175 -87 OFFCURVE",
"175 -108 CURVE SMOOTH",
"175 -129 OFFCURVE",
"185 -139 OFFCURVE",
"206 -139 CURVE",
"206 -195 LINE"
);
}
);
width = 419;
}
);
leftKerningGroup = T;
note = uni0162;
rightKerningGroup = T;
unicode = 0162;
},
{
glyphname = Tcommaaccent;
lastChange = "2016-07-13 22:59:54 +0000";
layers = (
{
background = {
paths = (
{
closed = 1;
nodes = (
"1116 1300 LINE",
"1116 1462 LINE",
"20 1462 LINE",
"20 1300 LINE",
"477 1300 LINE",
"477 0 LINE",
"662 0 LINE",
"662 1300 LINE"
);
},
{
closed = 1;
nodes = (
"760 -193 OFFCURVE",
"701 -134 OFFCURVE",
"582 -109 CURVE",
"635 0 LINE",
"516 0 LINE",
"428 -176 LINE",
"553 -192 OFFCURVE",
"615 -230 OFFCURVE",
"615 -289 CURVE SMOOTH",
"615 -357 OFFCURVE",
"563 -379 OFFCURVE",
"463 -379 CURVE SMOOTH",
"415 -379 OFFCURVE",
"379 -376 OFFCURVE",
"355 -369 CURVE",
"355 -481 LINE",
"380 -488 OFFCURVE",
"414 -492 OFFCURVE",
"457 -492 CURVE SMOOTH",
"660 -492 OFFCURVE",
"760 -417 OFFCURVE",
"760 -285 CURVE SMOOTH"
);
}
);
};
components = (
{
name = T;
},
{
name = commaaccentcomb.case;
transform = "{1, 0, 0, 1, 126, 0}";
}
);
layerId = "6418A72B-B7AF-4A99-B2A7-67092BA5BFD7";
width = 419;
}
);
leftKerningGroup = T;
rightKerningGroup = T;
unicode = 021A;
},
{
glyphname = U;
lastChange = "2016-07-26 19:58:24 +0000";
layers = (
{
anchors = (
{
name = bottom;
position = "{303, 0}";
},
{
name = ogonek;
position = "{421, 9}";
},
{
name = top;
position = "{303, 750}";
},
{
name = topright;
position = "{526, 750}";
}
);
background = {
paths = (
{
closed = 1;
nodes = (
"1128 516 LINE SMOOTH",
"1128 272 OFFCURVE",
"993 139 OFFCURVE",
"752 139 CURVE SMOOTH",
"496 139 OFFCURVE",
"369 275 OFFCURVE",
"369 514 CURVE SMOOTH",
"369 1462 LINE",
"184 1462 LINE",
"184 520 LINE SMOOTH",
"184 185 OFFCURVE",
"388 -20 OFFCURVE",
"741 -20 CURVE SMOOTH",
"1098 -20 OFFCURVE",
"1311 183 OFFCURVE",
"1311 516 CURVE SMOOTH",
"1311 1462 LINE",
"1128 1462 LINE"
);
}
);
};
layerId = "6418A72B-B7AF-4A99-B2A7-67092BA5BFD7";
paths = (
{
closed = 1;
nodes = (
"434 -20 OFFCURVE",
"526 66 OFFCURVE",
"526 207 CURVE SMOOTH",
"526 750 LINE",
"493 750 LINE",
"493 206 LINE SMOOTH",
"493 81 OFFCURVE",
"411 9 OFFCURVE",
"303 9 CURVE SMOOTH",
"195 9 OFFCURVE",
"112 83 OFFCURVE",
"112 206 CURVE SMOOTH",
"112 750 LINE",
"79 750 LINE",
"79 205 LINE SMOOTH",
"79 66 OFFCURVE",
"175 -20 OFFCURVE",
"304 -20 CURVE SMOOTH"
);
}
);
width = 605;
}
);
leftKerningGroup = U;
note = U;
rightKerningGroup = U;
unicode = 0055;
},
{
glyphname = Uacute;
lastChange = "2016-07-13 21:35:07 +0000";
layers = (
{
background = {
paths = (
{
closed = 1;
nodes = (
"1128 516 LINE SMOOTH",
"1128 272 OFFCURVE",
"993 139 OFFCURVE",
"752 139 CURVE SMOOTH",
"496 139 OFFCURVE",
"369 275 OFFCURVE",
"369 514 CURVE SMOOTH",
"369 1462 LINE",
"184 1462 LINE",
"184 520 LINE SMOOTH",
"184 185 OFFCURVE",
"388 -20 OFFCURVE",
"741 -20 CURVE SMOOTH",
"1098 -20 OFFCURVE",
"1311 183 OFFCURVE",
"1311 516 CURVE SMOOTH",
"1311 1462 LINE",
"1128 1462 LINE"
);
},
{
closed = 1;
nodes = (
"719 1579 LINE",
"803 1644 OFFCURVE",
"953 1801 OFFCURVE",
"1012 1886 CURVE",
"1012 1907 LINE",
"795 1907 LINE",
"742 1803 OFFCURVE",
"651 1668 OFFCURVE",
"600 1604 CURVE",
"600 1579 LINE"
);
}
);
};
components = (
{
name = U;
},
{
name = acutecomb.case;
transform = "{1, 0, 0, 1, 219, 0}";
}
);
layerId = "6418A72B-B7AF-4A99-B2A7-67092BA5BFD7";
width = 605;
}
);
leftKerningGroup = U;
note = Uacute;
rightKerningGroup = U;
unicode = 00DA;
},
{
glyphname = Ubreve;
lastChange = "2016-07-13 21:35:07 +0000";
layers = (
{
background = {
paths = (
{
closed = 1;
nodes = (
"1128 516 LINE SMOOTH",
"1128 272 OFFCURVE",
"993 139 OFFCURVE",
"752 139 CURVE SMOOTH",
"496 139 OFFCURVE",
"369 275 OFFCURVE",
"369 514 CURVE SMOOTH",
"369 1462 LINE",
"184 1462 LINE",
"184 520 LINE SMOOTH",
"184 185 OFFCURVE",
"388 -20 OFFCURVE",
"741 -20 CURVE SMOOTH",
"1098 -20 OFFCURVE",
"1311 183 OFFCURVE",
"1311 516 CURVE SMOOTH",
"1311 1462 LINE",
"1128 1462 LINE"
);
},
{
closed = 1;
nodes = (
"924 1579 OFFCURVE",
"1046 1679 OFFCURVE",
"1063 1854 CURVE",
"950 1854 LINE",
"939 1765 OFFCURVE",
"878 1724 OFFCURVE",
"743 1724 CURVE SMOOTH",
"590 1724 OFFCURVE",
"547 1759 OFFCURVE",
"536 1854 CURVE",
"426 1854 LINE",
"438 1671 OFFCURVE",
"551 1579 OFFCURVE",
"739 1579 CURVE SMOOTH"
);
}
);
};
components = (
{
name = U;
},
{
name = brevecomb;
transform = "{1, 0, 0, 1, 163, 300}";
}
);
layerId = "6418A72B-B7AF-4A99-B2A7-67092BA5BFD7";
width = 605;
}
);
leftKerningGroup = U;
note = Ubreve;
rightKerningGroup = U;
unicode = 016C;
},
{
glyphname = Ucircumflex;
lastChange = "2016-07-13 21:35:07 +0000";
layers = (
{
background = {
paths = (
{
closed = 1;
nodes = (
"1128 516 LINE SMOOTH",
"1128 272 OFFCURVE",
"993 139 OFFCURVE",
"752 139 CURVE SMOOTH",
"496 139 OFFCURVE",
"369 275 OFFCURVE",
"369 514 CURVE SMOOTH",
"369 1462 LINE",
"184 1462 LINE",
"184 520 LINE SMOOTH",
"184 185 OFFCURVE",
"388 -20 OFFCURVE",
"741 -20 CURVE SMOOTH",
"1098 -20 OFFCURVE",
"1311 183 OFFCURVE",
"1311 516 CURVE SMOOTH",
"1311 1462 LINE",
"1128 1462 LINE"
);
},
{
closed = 1;
nodes = (
"510 1579 LINE",
"569 1616 OFFCURVE",
"642 1678 OFFCURVE",
"729 1763 CURVE",
"818 1676 OFFCURVE",
"892 1614 OFFCURVE",
"952 1579 CURVE",
"1079 1579 LINE",
"1079 1602 LINE",
"943 1738 OFFCURVE",
"858 1840 OFFCURVE",
"823 1907 CURVE",
"639 1907 LINE",
"623 1878 OFFCURVE",
"598 1843 OFFCURVE",
"564 1800 CURVE SMOOTH",
"529 1757 OFFCURVE",
"470 1691 OFFCURVE",
"387 1602 CURVE",
"387 1579 LINE"
);
}
);
};
components = (
{
name = U;
},
{
name = circumflexcomb;
transform = "{1, 0, 0, 1, 105, 300}";
}
);
layerId = "6418A72B-B7AF-4A99-B2A7-67092BA5BFD7";
width = 605;
}
);
leftKerningGroup = U;
note = Ucircumflex;
rightKerningGroup = U;
unicode = 00DB;
},
{
glyphname = Udieresis;
lastChange = "2016-07-13 21:35:07 +0000";
layers = (
{
background = {
paths = (
{
closed = 1;
nodes = (
"1128 516 LINE SMOOTH",
"1128 272 OFFCURVE",
"993 139 OFFCURVE",
"752 139 CURVE SMOOTH",
"496 139 OFFCURVE",
"369 275 OFFCURVE",
"369 514 CURVE SMOOTH",
"369 1462 LINE",
"184 1462 LINE",
"184 520 LINE SMOOTH",
"184 185 OFFCURVE",
"388 -20 OFFCURVE",
"741 -20 CURVE SMOOTH",
"1098 -20 OFFCURVE",
"1311 183 OFFCURVE",
"1311 516 CURVE SMOOTH",
"1311 1462 LINE",
"1128 1462 LINE"
);
},
{
closed = 1;
nodes = (
"457 1662 OFFCURVE",
"500 1630 OFFCURVE",
"553 1630 CURVE SMOOTH",
"605 1630 OFFCURVE",
"650 1662 OFFCURVE",
"650 1733 CURVE SMOOTH",
"650 1804 OFFCURVE",
"605 1833 OFFCURVE",
"553 1833 CURVE SMOOTH",
"500 1833 OFFCURVE",
"457 1804 OFFCURVE",
"457 1733 CURVE SMOOTH"
);
},
{
closed = 1;
nodes = (
"842 1662 OFFCURVE",
"885 1630 OFFCURVE",
"936 1630 CURVE SMOOTH",
"988 1630 OFFCURVE",
"1033 1662 OFFCURVE",
"1033 1733 CURVE SMOOTH",
"1033 1804 OFFCURVE",
"988 1833 OFFCURVE",
"936 1833 CURVE SMOOTH",
"885 1833 OFFCURVE",
"842 1804 OFFCURVE",
"842 1733 CURVE SMOOTH"
);
}
);
};
components = (
{
name = U;
},
{
name = dieresiscomb.case;
transform = "{1, 0, 0, 1, 172, 0}";
}
);
layerId = "6418A72B-B7AF-4A99-B2A7-67092BA5BFD7";
width = 605;
}
);
leftKerningGroup = U;
note = Udieresis;
rightKerningGroup = U;
unicode = 00DC;
},
{
glyphname = Ugrave;
lastChange = "2016-07-13 21:35:07 +0000";
layers = (
{
background = {
paths = (
{
closed = 1;
nodes = (
"1128 516 LINE SMOOTH",
"1128 272 OFFCURVE",
"993 139 OFFCURVE",
"752 139 CURVE SMOOTH",
"496 139 OFFCURVE",
"369 275 OFFCURVE",
"369 514 CURVE SMOOTH",
"369 1462 LINE",
"184 1462 LINE",
"184 520 LINE SMOOTH",
"184 185 OFFCURVE",
"388 -20 OFFCURVE",
"741 -20 CURVE SMOOTH",
"1098 -20 OFFCURVE",
"1311 183 OFFCURVE",
"1311 516 CURVE SMOOTH",
"1311 1462 LINE",
"1128 1462 LINE"
);
},
{
closed = 1;
nodes = (
"802 1676 OFFCURVE",
"711 1819 OFFCURVE",
"668 1907 CURVE",
"453 1907 LINE",
"453 1886 LINE",
"502 1811 OFFCURVE",
"644 1659 OFFCURVE",
"744 1579 CURVE",
"865 1579 LINE",
"865 1604 LINE"
);
}
);
};
components = (
{
name = U;
},
{
name = gravecomb.case;
transform = "{1, 0, 0, 1, 162, 0}";
}
);
layerId = "6418A72B-B7AF-4A99-B2A7-67092BA5BFD7";
width = 605;
}
);
leftKerningGroup = U;
note = Ugrave;
rightKerningGroup = U;
unicode = 00D9;
},
{
glyphname = Uhorn;
lastChange = "2016-07-13 22:59:54 +0000";
layers = (
{
background = {
paths = (
{
closed = 1;
nodes = (
"1128 514 LINE SMOOTH",
"1128 267 OFFCURVE",
"1000 139 OFFCURVE",
"760 139 CURVE SMOOTH",
"497 139 OFFCURVE",
"369 276 OFFCURVE",
"369 512 CURVE SMOOTH",
"369 1462 LINE",
"184 1462 LINE",
"184 520 LINE SMOOTH",
"184 184 OFFCURVE",
"393 -20 OFFCURVE",
"756 -20 CURVE SMOOTH",
"1111 -20 OFFCURVE",
"1311 175 OFFCURVE",
"1311 516 CURVE SMOOTH",
"1311 1137 LINE",
"1518 1172 OFFCURVE",
"1631 1287 OFFCURVE",
"1675 1534 CURVE",
"1661 1556 LINE",
"1470 1556 LINE",
"1470 1353 OFFCURVE",
"1420 1279 OFFCURVE",
"1311 1264 CURVE",
"1311 1462 LINE",
"1128 1462 LINE"
);
}
);
};
components = (
{
name = U;
},
{
alignment = -1;
name = horncomb;
transform = "{1, 0, 0, 1, 476, 298}";
}
);
layerId = "6418A72B-B7AF-4A99-B2A7-67092BA5BFD7";
width = 654;
}
);
leftKerningGroup = U;
rightKerningGroup = U;
unicode = 01AF;
},
{
glyphname = Uhungarumlaut;
lastChange = "2016-07-13 21:35:07 +0000";
layers = (
{
background = {
paths = (
{
closed = 1;
nodes = (
"1128 516 LINE SMOOTH",
"1128 272 OFFCURVE",
"993 139 OFFCURVE",
"752 139 CURVE SMOOTH",
"496 139 OFFCURVE",
"369 275 OFFCURVE",
"369 514 CURVE SMOOTH",
"369 1462 LINE",
"184 1462 LINE",
"184 520 LINE SMOOTH",
"184 185 OFFCURVE",
"388 -20 OFFCURVE",
"741 -20 CURVE SMOOTH",
"1098 -20 OFFCURVE",
"1311 183 OFFCURVE",
"1311 516 CURVE SMOOTH",
"1311 1462 LINE",
"1128 1462 LINE"
);
},
{
closed = 1;
nodes = (
"555 1579 LINE",
"643 1652 OFFCURVE",
"783 1811 OFFCURVE",
"827 1886 CURVE",
"827 1907 LINE",
"630 1907 LINE",
"578 1800 OFFCURVE",
"499 1665 OFFCURVE",
"452 1604 CURVE",
"452 1579 LINE"
);
},
{
closed = 1;
nodes = (
"915 1579 LINE",
"1003 1652 OFFCURVE",
"1143 1811 OFFCURVE",
"1187 1886 CURVE",
"1187 1907 LINE",
"991 1907 LINE",
"958 1832 OFFCURVE",
"876 1691 OFFCURVE",
"813 1604 CURVE",
"813 1579 LINE"
);
}
);
};
components = (
{
name = U;
},
{
name = hungarumlautcomb.case;
transform = "{1, 0, 0, 1, 130, 0}";
}
);
layerId = "6418A72B-B7AF-4A99-B2A7-67092BA5BFD7";
width = 605;
}
);
leftKerningGroup = U;
note = Uhungarumlaut;
rightKerningGroup = U;
unicode = 0170;
},
{
glyphname = Umacron;
lastChange = "2016-07-13 21:35:07 +0000";
layers = (
{
background = {
paths = (
{
closed = 1;
nodes = (
"1128 516 LINE SMOOTH",
"1128 272 OFFCURVE",
"993 139 OFFCURVE",
"752 139 CURVE SMOOTH",
"496 139 OFFCURVE",
"369 275 OFFCURVE",
"369 514 CURVE SMOOTH",
"369 1462 LINE",
"184 1462 LINE",
"184 520 LINE SMOOTH",
"184 185 OFFCURVE",
"388 -20 OFFCURVE",
"741 -20 CURVE SMOOTH",
"1098 -20 OFFCURVE",
"1311 183 OFFCURVE",
"1311 516 CURVE SMOOTH",
"1311 1462 LINE",
"1128 1462 LINE"
);
},
{
closed = 1;
nodes = (
"1052 1579 LINE",
"1052 1724 LINE",
"444 1724 LINE",
"444 1579 LINE"
);
}
);
};
components = (
{
name = U;
},
{
name = macroncomb.case;
transform = "{1, 0, 0, 1, 154, 0}";
}
);
layerId = "6418A72B-B7AF-4A99-B2A7-67092BA5BFD7";
width = 605;
}
);
leftKerningGroup = U;
note = Umacron;
rightKerningGroup = U;
unicode = 016A;
},
{
glyphname = Uogonek;
lastChange = "2016-07-26 19:58:24 +0000";
layers = (
{
background = {
paths = (
{
closed = 1;
nodes = (
"1128 516 LINE SMOOTH",
"1128 272 OFFCURVE",
"993 139 OFFCURVE",
"752 139 CURVE SMOOTH",
"496 139 OFFCURVE",
"369 275 OFFCURVE",
"369 514 CURVE SMOOTH",
"369 1462 LINE",
"184 1462 LINE",
"184 520 LINE SMOOTH",
"184 185 OFFCURVE",
"388 -20 OFFCURVE",
"741 -20 CURVE SMOOTH",
"1098 -20 OFFCURVE",
"1311 183 OFFCURVE",
"1311 516 CURVE SMOOTH",
"1311 1462 LINE",
"1128 1462 LINE"
);
},
{
closed = 1;
nodes = (
"729 -154 OFFCURVE",
"776 -88 OFFCURVE",
"869 0 CURVE",
"742 0 LINE",
"635 -79 OFFCURVE",
"582 -165 OFFCURVE",
"582 -258 CURVE SMOOTH",
"582 -387 OFFCURVE",
"652 -451 OFFCURVE",
"793 -451 CURVE SMOOTH",
"832 -451 OFFCURVE",
"874 -445 OFFCURVE",
"920 -432 CURVE",
"920 -317 LINE",
"883 -326 OFFCURVE",
"850 -330 OFFCURVE",
"821 -330 CURVE SMOOTH",
"764 -330 OFFCURVE",
"729 -299 OFFCURVE",
"729 -238 CURVE SMOOTH"
);
}
);
};
components = (
{
name = U;
},
{
name = ogonekcomb;
transform = "{1, 0, 0, 1, 291, 9}";
}
);
layerId = "6418A72B-B7AF-4A99-B2A7-67092BA5BFD7";
width = 605;
}
);
leftKerningGroup = U;
note = Uogonek;
rightKerningGroup = U;
unicode = 0172;
},
{
glyphname = Uring;
lastChange = "2016-07-13 21:35:07 +0000";
layers = (
{
background = {
paths = (
{
closed = 1;
nodes = (
"1128 516 LINE SMOOTH",
"1128 272 OFFCURVE",
"993 139 OFFCURVE",
"752 139 CURVE SMOOTH",
"496 139 OFFCURVE",
"369 275 OFFCURVE",
"369 514 CURVE SMOOTH",
"369 1462 LINE",
"184 1462 LINE",
"184 520 LINE SMOOTH",
"184 185 OFFCURVE",
"388 -20 OFFCURVE",
"741 -20 CURVE SMOOTH",
"1098 -20 OFFCURVE",
"1311 183 OFFCURVE",
"1311 516 CURVE SMOOTH",
"1311 1462 LINE",
"1128 1462 LINE"
);
},
{
closed = 1;
nodes = (
"973 1925 OFFCURVE",
"881 2011 OFFCURVE",
"746 2011 CURVE SMOOTH",
"609 2011 OFFCURVE",
"523 1927 OFFCURVE",
"523 1796 CURVE SMOOTH",
"523 1663 OFFCURVE",
"609 1579 OFFCURVE",
"746 1579 CURVE SMOOTH",
"882 1579 OFFCURVE",
"973 1663 OFFCURVE",
"973 1798 CURVE SMOOTH"
);
},
{
closed = 1;
nodes = (
"860 1724 OFFCURVE",
"814 1681 OFFCURVE",
"746 1681 CURVE SMOOTH",
"671 1681 OFFCURVE",
"631 1724 OFFCURVE",
"631 1796 CURVE SMOOTH",
"631 1868 OFFCURVE",
"679 1911 OFFCURVE",
"746 1911 CURVE SMOOTH",
"811 1911 OFFCURVE",
"860 1868 OFFCURVE",
"860 1796 CURVE SMOOTH"
);
}
);
};
components = (
{
name = U;
},
{
name = ringcomb;
transform = "{1, 0, 0, 1, 212, 300}";
}
);
layerId = "6418A72B-B7AF-4A99-B2A7-67092BA5BFD7";
width = 605;
}
);
leftKerningGroup = U;
note = Uring;
rightKerningGroup = U;
unicode = 016E;
},
{
glyphname = Utilde;
lastChange = "2016-07-13 21:35:07 +0000";
layers = (
{
background = {
paths = (
{
closed = 1;
nodes = (
"1128 516 LINE SMOOTH",
"1128 272 OFFCURVE",
"993 139 OFFCURVE",
"752 139 CURVE SMOOTH",
"496 139 OFFCURVE",
"369 275 OFFCURVE",
"369 514 CURVE SMOOTH",
"369 1462 LINE",
"184 1462 LINE",
"184 520 LINE SMOOTH",
"184 185 OFFCURVE",
"388 -20 OFFCURVE",
"741 -20 CURVE SMOOTH",
"1098 -20 OFFCURVE",
"1311 183 OFFCURVE",
"1311 516 CURVE SMOOTH",
"1311 1462 LINE",
"1128 1462 LINE"
);
},
{
closed = 1;
nodes = (
"1029 1581 OFFCURVE",
"1109 1684 OFFCURVE",
"1125 1843 CURVE",
"1022 1843 LINE",
"1002 1763 OFFCURVE",
"974 1724 OFFCURVE",
"910 1724 CURVE SMOOTH",
"867 1724 OFFCURVE",
"819 1754 OFFCURVE",
"767 1783 CURVE SMOOTH",
"715 1811 OFFCURVE",
"658 1841 OFFCURVE",
"598 1841 CURVE SMOOTH",
"469 1841 OFFCURVE",
"389 1742 OFFCURVE",
"373 1579 CURVE",
"477 1579 LINE",
"496 1659 OFFCURVE",
"525 1698 OFFCURVE",
"590 1698 CURVE SMOOTH",
"635 1698 OFFCURVE",
"684 1668 OFFCURVE",
"737 1640 CURVE SMOOTH",
"789 1611 OFFCURVE",
"844 1581 OFFCURVE",
"901 1581 CURVE SMOOTH"
);
}
);
};
components = (
{
name = U;
},
{
name = tildecomb;
transform = "{1, 0, 0, 1, 117, 300}";
}
);
layerId = "6418A72B-B7AF-4A99-B2A7-67092BA5BFD7";
width = 605;
}
);
leftKerningGroup = U;
note = Utilde;
rightKerningGroup = U;
unicode = 0168;
},
{
glyphname = V;
lastChange = "2016-07-14 00:51:39 +0000";
layers = (
{
background = {
paths = (
{
closed = 1;
nodes = (
"707 0 LINE",
"1229 1462 LINE",
"1034 1462 LINE",
"707 528 LINE SMOOTH",
"662 397 OFFCURVE",
"631 289 OFFCURVE",
"614 205 CURVE",
"595 299 OFFCURVE",
"564 405 OFFCURVE",
"522 524 CURVE SMOOTH",
"193 1462 LINE",
"0 1462 LINE",
"522 0 LINE"
);
}
);
};
layerId = "6418A72B-B7AF-4A99-B2A7-67092BA5BFD7";
paths = (
{
closed = 1;
nodes = (
"686 750 LINE",
"652 750 LINE",
"338 42 LINE",
"357 34 LINE",
"36 750 LINE",
"0 750 LINE",
"343 -17 LINE"
);
}
);
width = 686;
}
);
leftKerningGroup = V;
note = V;
rightKerningGroup = V;
unicode = 0056;
},
{
glyphname = W;
lastChange = "2016-07-14 00:51:39 +0000";
layers = (
{
anchors = (
{
name = bottom;
position = "{490, 0}";
},
{
name = top;
position = "{490, 750}";
}
);
background = {
paths = (
{
closed = 1;
nodes = (
"1686 1462 LINE",
"1460 571 LINE SMOOTH",
"1423 430 OFFCURVE",
"1400 313 OFFCURVE",
"1389 221 CURVE",
"1370 340 OFFCURVE",
"1344 458 OFFCURVE",
"1309 573 CURVE SMOOTH",
"1040 1462 LINE",
"850 1462 LINE",
"592 580 LINE SMOOTH",
"555 450 OFFCURVE",
"529 330 OFFCURVE",
"514 221 CURVE",
"498 336 OFFCURVE",
"475 452 OFFCURVE",
"444 569 CURVE SMOOTH",
"217 1462 LINE",
"25 1462 LINE",
"412 0 LINE",
"598 0 LINE",
"874 952 LINE SMOOTH",
"910 1072 OFFCURVE",
"933 1170 OFFCURVE",
"944 1247 CURVE",
"951 1197 OFFCURVE",
"976 1101 OFFCURVE",
"1018 958 CURVE SMOOTH",
"1303 0 LINE",
"1489 0 LINE",
"1878 1462 LINE"
);
}
);
};
layerId = "6418A72B-B7AF-4A99-B2A7-67092BA5BFD7";
paths = (
{
closed = 1;
nodes = (
"980 750 LINE",
"945 750 LINE",
"641 47 LINE",
"657 47 LINE",
"352 750 LINE",
"318 750 LINE",
"647 -13 LINE"
);
},
{
closed = 1;
nodes = (
"492 362 LINE",
"473 397 LINE",
"322 50 LINE",
"338 50 LINE",
"35 750 LINE",
"0 750 LINE",
"329 -13 LINE"
);
},
{
closed = 1;
nodes = (
"664 750 LINE",
"633 750 LINE",
"486 413 LINE",
"504 381 LINE"
);
}
);
width = 980;
}
);
leftKerningGroup = V;
note = W;
rightKerningGroup = V;
unicode = 0057;
},
{
glyphname = Wacute;
lastChange = "2016-07-13 21:35:07 +0000";
layers = (
{
background = {
paths = (
{
closed = 1;
nodes = (
"1686 1462 LINE",
"1460 571 LINE SMOOTH",
"1423 430 OFFCURVE",
"1400 313 OFFCURVE",
"1389 221 CURVE",
"1370 340 OFFCURVE",
"1344 458 OFFCURVE",
"1309 573 CURVE SMOOTH",
"1040 1462 LINE",
"850 1462 LINE",
"592 580 LINE SMOOTH",
"555 450 OFFCURVE",
"529 330 OFFCURVE",
"514 221 CURVE",
"498 336 OFFCURVE",
"475 452 OFFCURVE",
"444 569 CURVE SMOOTH",
"217 1462 LINE",
"25 1462 LINE",
"412 0 LINE",
"598 0 LINE",
"874 952 LINE SMOOTH",
"910 1072 OFFCURVE",
"933 1170 OFFCURVE",
"944 1247 CURVE",
"951 1197 OFFCURVE",
"976 1101 OFFCURVE",
"1018 958 CURVE SMOOTH",
"1303 0 LINE",
"1489 0 LINE",
"1878 1462 LINE"
);
},
{
closed = 1;
nodes = (
"938 1579 LINE",
"1022 1644 OFFCURVE",
"1172 1801 OFFCURVE",
"1231 1886 CURVE",
"1231 1907 LINE",
"1014 1907 LINE",
"961 1803 OFFCURVE",
"870 1668 OFFCURVE",
"819 1604 CURVE",
"819 1579 LINE"
);
}
);
};
components = (
{
name = W;
},
{
name = acutecomb.case;
transform = "{1, 0, 0, 1, 406, 0}";
}
);
layerId = "6418A72B-B7AF-4A99-B2A7-67092BA5BFD7";
width = 980;
}
);
leftKerningGroup = V;
note = Wacute;
rightKerningGroup = V;
unicode = 1E82;
},
{
glyphname = Wcircumflex;
lastChange = "2016-07-13 21:35:07 +0000";
layers = (
{
background = {
paths = (
{
closed = 1;
nodes = (
"1686 1462 LINE",
"1460 571 LINE SMOOTH",
"1423 430 OFFCURVE",
"1400 313 OFFCURVE",
"1389 221 CURVE",
"1370 340 OFFCURVE",
"1344 458 OFFCURVE",
"1309 573 CURVE SMOOTH",
"1040 1462 LINE",
"850 1462 LINE",
"592 580 LINE SMOOTH",
"555 450 OFFCURVE",
"529 330 OFFCURVE",
"514 221 CURVE",
"498 336 OFFCURVE",
"475 452 OFFCURVE",
"444 569 CURVE SMOOTH",
"217 1462 LINE",
"25 1462 LINE",
"412 0 LINE",
"598 0 LINE",
"874 952 LINE SMOOTH",
"910 1072 OFFCURVE",
"933 1170 OFFCURVE",
"944 1247 CURVE",
"951 1197 OFFCURVE",
"976 1101 OFFCURVE",
"1018 958 CURVE SMOOTH",
"1303 0 LINE",
"1489 0 LINE",
"1878 1462 LINE"
);
},
{
closed = 1;
nodes = (
"725 1579 LINE",
"784 1616 OFFCURVE",
"857 1678 OFFCURVE",
"944 1763 CURVE",
"1033 1676 OFFCURVE",
"1107 1614 OFFCURVE",
"1167 1579 CURVE",
"1294 1579 LINE",
"1294 1602 LINE",
"1158 1738 OFFCURVE",
"1073 1840 OFFCURVE",
"1038 1907 CURVE",
"854 1907 LINE",
"838 1878 OFFCURVE",
"813 1843 OFFCURVE",
"779 1800 CURVE SMOOTH",
"744 1757 OFFCURVE",
"685 1691 OFFCURVE",
"602 1602 CURVE",
"602 1579 LINE"
);
}
);
};
components = (
{
name = W;
},
{
name = circumflexcomb;
transform = "{1, 0, 0, 1, 292, 300}";
}
);
layerId = "6418A72B-B7AF-4A99-B2A7-67092BA5BFD7";
width = 980;
}
);
leftKerningGroup = V;
note = Wcircumflex;
rightKerningGroup = V;
unicode = 0174;
},
{
glyphname = Wdieresis;
lastChange = "2016-07-13 21:35:07 +0000";
layers = (
{
background = {
paths = (
{
closed = 1;
nodes = (
"1686 1462 LINE",
"1460 571 LINE SMOOTH",
"1423 430 OFFCURVE",
"1400 313 OFFCURVE",
"1389 221 CURVE",
"1370 340 OFFCURVE",
"1344 458 OFFCURVE",
"1309 573 CURVE SMOOTH",
"1040 1462 LINE",
"850 1462 LINE",
"592 580 LINE SMOOTH",
"555 450 OFFCURVE",
"529 330 OFFCURVE",
"514 221 CURVE",
"498 336 OFFCURVE",
"475 452 OFFCURVE",
"444 569 CURVE SMOOTH",
"217 1462 LINE",
"25 1462 LINE",
"412 0 LINE",
"598 0 LINE",
"874 952 LINE SMOOTH",
"910 1072 OFFCURVE",
"933 1170 OFFCURVE",
"944 1247 CURVE",
"951 1197 OFFCURVE",
"976 1101 OFFCURVE",
"1018 958 CURVE SMOOTH",
"1303 0 LINE",
"1489 0 LINE",
"1878 1462 LINE"
);
},
{
closed = 1;
nodes = (
"661 1662 OFFCURVE",
"704 1630 OFFCURVE",
"757 1630 CURVE SMOOTH",
"809 1630 OFFCURVE",
"854 1662 OFFCURVE",
"854 1733 CURVE SMOOTH",
"854 1804 OFFCURVE",
"809 1833 OFFCURVE",
"757 1833 CURVE SMOOTH",
"704 1833 OFFCURVE",
"661 1804 OFFCURVE",
"661 1733 CURVE SMOOTH"
);
},
{
closed = 1;
nodes = (
"1046 1662 OFFCURVE",
"1089 1630 OFFCURVE",
"1140 1630 CURVE SMOOTH",
"1192 1630 OFFCURVE",
"1237 1662 OFFCURVE",
"1237 1733 CURVE SMOOTH",
"1237 1804 OFFCURVE",
"1192 1833 OFFCURVE",
"1140 1833 CURVE SMOOTH",
"1089 1833 OFFCURVE",
"1046 1804 OFFCURVE",
"1046 1733 CURVE SMOOTH"
);
}
);
};
components = (
{
name = W;
},
{
name = dieresiscomb.case;
transform = "{1, 0, 0, 1, 359, 0}";
}
);
layerId = "6418A72B-B7AF-4A99-B2A7-67092BA5BFD7";
width = 980;
}
);
leftKerningGroup = V;
note = Wdieresis;
rightKerningGroup = V;
unicode = 1E84;
},
{
glyphname = Wgrave;
lastChange = "2016-07-13 21:35:07 +0000";
layers = (
{
background = {
paths = (
{
closed = 1;
nodes = (
"1686 1462 LINE",
"1460 571 LINE SMOOTH",
"1423 430 OFFCURVE",
"1400 313 OFFCURVE",
"1389 221 CURVE",
"1370 340 OFFCURVE",
"1344 458 OFFCURVE",
"1309 573 CURVE SMOOTH",
"1040 1462 LINE",
"850 1462 LINE",
"592 580 LINE SMOOTH",
"555 450 OFFCURVE",
"529 330 OFFCURVE",
"514 221 CURVE",
"498 336 OFFCURVE",
"475 452 OFFCURVE",
"444 569 CURVE SMOOTH",
"217 1462 LINE",
"25 1462 LINE",
"412 0 LINE",
"598 0 LINE",
"874 952 LINE SMOOTH",
"910 1072 OFFCURVE",
"933 1170 OFFCURVE",
"944 1247 CURVE",
"951 1197 OFFCURVE",
"976 1101 OFFCURVE",
"1018 958 CURVE SMOOTH",
"1303 0 LINE",
"1489 0 LINE",
"1878 1462 LINE"
);
},
{
closed = 1;
nodes = (
"1010 1676 OFFCURVE",
"919 1819 OFFCURVE",
"876 1907 CURVE",
"661 1907 LINE",
"661 1886 LINE",
"710 1811 OFFCURVE",
"852 1659 OFFCURVE",
"952 1579 CURVE",
"1073 1579 LINE",
"1073 1604 LINE"
);
}
);
};
components = (
{
name = W;
},
{
name = gravecomb.case;
transform = "{1, 0, 0, 1, 349, 0}";
}
);
layerId = "6418A72B-B7AF-4A99-B2A7-67092BA5BFD7";
width = 980;
}
);
leftKerningGroup = V;
note = Wgrave;
rightKerningGroup = V;
unicode = 1E80;
},
{
glyphname = X;
lastChange = "2016-07-14 00:51:39 +0000";
layers = (
{
anchors = (
{
name = bottom;
position = "{243, 0}";
},
{
name = bottomright;
position = "{443, 0}";
},
{
name = top;
position = "{243, 750}";
}
);
background = {
paths = (
{
closed = 1;
nodes = (
"1157 1462 LINE",
"963 1462 LINE",
"602 889 LINE",
"244 1462 LINE",
"39 1462 LINE",
"494 762 LINE",
"8 0 LINE",
"203 0 LINE",
"596 635 LINE",
"983 0 LINE",
"1192 0 LINE",
"705 766 LINE"
);
}
);
};
layerId = "6418A72B-B7AF-4A99-B2A7-67092BA5BFD7";
paths = (
{
closed = 1;
nodes = (
"466 0 LINE",
"257 428 LINE",
"243 445 LINE",
"94 750 LINE",
"56 750 LINE",
"225 411 LINE",
"238 393 LINE",
"429 0 LINE"
);
},
{
closed = 1;
nodes = (
"52 0 LINE",
"244 393 LINE",
"226 427 LINE",
"19 0 LINE"
);
},
{
closed = 1;
nodes = (
"420 750 LINE",
"385 750 LINE",
"234 440 LINE",
"255 412 LINE"
);
}
);
width = 487;
}
);
leftKerningGroup = X;
note = X;
rightKerningGroup = X;
unicode = 0058;
},
{
glyphname = Y;
lastChange = "2016-07-14 00:51:39 +0000";
layers = (
{
anchors = (
{
name = bottom;
position = "{242, 0}";
},
{
name = top;
position = "{242, 750}";
},
{
name = topleft;
position = "{20, 750}";
}
);
background = {
paths = (
{
closed = 1;
nodes = (
"0 1462 LINE",
"487 559 LINE",
"487 0 LINE",
"672 0 LINE",
"672 567 LINE",
"1159 1462 LINE",
"961 1462 LINE",
"580 743 LINE",
"201 1462 LINE"
);
}
);
};
layerId = "6418A72B-B7AF-4A99-B2A7-67092BA5BFD7";
paths = (
{
closed = 1;
nodes = (
"261 0 LINE",
"261 300 LINE",
"484 750 LINE",
"450 750 LINE",
"236 322 LINE",
"256 317 LINE",
"36 750 LINE",
"0 750 LINE",
"228 300 LINE",
"228 0 LINE"
);
}
);
width = 484;
}
);
leftKerningGroup = Y;
note = Y;
rightKerningGroup = Y;
unicode = 0059;
},
{
glyphname = Yacute;
lastChange = "2016-07-13 21:35:07 +0000";
layers = (
{
background = {
paths = (
{
closed = 1;
nodes = (
"0 1462 LINE",
"487 559 LINE",
"487 0 LINE",
"672 0 LINE",
"672 567 LINE",
"1159 1462 LINE",
"961 1462 LINE",
"580 743 LINE",
"201 1462 LINE"
);
},
{
closed = 1;
nodes = (
"561 1579 LINE",
"645 1644 OFFCURVE",
"795 1801 OFFCURVE",
"854 1886 CURVE",
"854 1907 LINE",
"637 1907 LINE",
"584 1803 OFFCURVE",
"493 1668 OFFCURVE",
"442 1604 CURVE",
"442 1579 LINE"
);
}
);
};
components = (
{
name = Y;
},
{
name = acutecomb.case;
transform = "{1, 0, 0, 1, 158, 0}";
}
);
layerId = "6418A72B-B7AF-4A99-B2A7-67092BA5BFD7";
width = 484;
}
);
leftKerningGroup = Y;
note = Yacute;
rightKerningGroup = Y;
unicode = 00DD;
},
{
glyphname = Ycircumflex;
lastChange = "2016-07-13 21:35:07 +0000";
layers = (
{
background = {
paths = (
{
closed = 1;
nodes = (
"0 1462 LINE",
"487 559 LINE",
"487 0 LINE",
"672 0 LINE",
"672 567 LINE",
"1159 1462 LINE",
"961 1462 LINE",
"580 743 LINE",
"201 1462 LINE"
);
},
{
closed = 1;
nodes = (
"357 1579 LINE",
"416 1616 OFFCURVE",
"489 1678 OFFCURVE",
"576 1763 CURVE",
"665 1676 OFFCURVE",
"739 1614 OFFCURVE",
"799 1579 CURVE",
"926 1579 LINE",
"926 1602 LINE",
"790 1738 OFFCURVE",
"705 1840 OFFCURVE",
"670 1907 CURVE",
"486 1907 LINE",
"470 1878 OFFCURVE",
"445 1843 OFFCURVE",
"411 1800 CURVE SMOOTH",
"376 1757 OFFCURVE",
"317 1691 OFFCURVE",
"234 1602 CURVE",
"234 1579 LINE"
);
}
);
};
components = (
{
name = Y;
},
{
name = circumflexcomb;
transform = "{1, 0, 0, 1, 44, 300}";
}
);
layerId = "6418A72B-B7AF-4A99-B2A7-67092BA5BFD7";
width = 484;
}
);
leftKerningGroup = Y;
note = Ycircumflex;
rightKerningGroup = Y;
unicode = 0176;
},
{
glyphname = Ydieresis;
lastChange = "2016-07-13 21:35:07 +0000";
layers = (
{
background = {
paths = (
{
closed = 1;
nodes = (
"0 1462 LINE",
"487 559 LINE",
"487 0 LINE",
"672 0 LINE",
"672 567 LINE",
"1159 1462 LINE",
"961 1462 LINE",
"580 743 LINE",
"201 1462 LINE"
);
},
{
closed = 1;
nodes = (
"294 1662 OFFCURVE",
"337 1630 OFFCURVE",
"390 1630 CURVE SMOOTH",
"442 1630 OFFCURVE",
"487 1662 OFFCURVE",
"487 1733 CURVE SMOOTH",
"487 1804 OFFCURVE",
"442 1833 OFFCURVE",
"390 1833 CURVE SMOOTH",
"337 1833 OFFCURVE",
"294 1804 OFFCURVE",
"294 1733 CURVE SMOOTH"
);
},
{
closed = 1;
nodes = (
"679 1662 OFFCURVE",
"722 1630 OFFCURVE",
"773 1630 CURVE SMOOTH",
"825 1630 OFFCURVE",
"870 1662 OFFCURVE",
"870 1733 CURVE SMOOTH",
"870 1804 OFFCURVE",
"825 1833 OFFCURVE",
"773 1833 CURVE SMOOTH",
"722 1833 OFFCURVE",
"679 1804 OFFCURVE",
"679 1733 CURVE SMOOTH"
);
}
);
};
components = (
{
name = Y;
},
{
name = dieresiscomb.case;
transform = "{1, 0, 0, 1, 111, 0}";
}
);
layerId = "6418A72B-B7AF-4A99-B2A7-67092BA5BFD7";
width = 484;
}
);
leftKerningGroup = Y;
note = Ydieresis;
rightKerningGroup = Y;
unicode = 0178;
},
{
glyphname = Ygrave;
lastChange = "2016-07-13 21:35:07 +0000";
layers = (
{
background = {
paths = (
{
closed = 1;
nodes = (
"0 1462 LINE",
"487 559 LINE",
"487 0 LINE",
"672 0 LINE",
"672 567 LINE",
"1159 1462 LINE",
"961 1462 LINE",
"580 743 LINE",
"201 1462 LINE"
);
},
{
closed = 1;
nodes = (
"626 1676 OFFCURVE",
"535 1819 OFFCURVE",
"492 1907 CURVE",
"277 1907 LINE",
"277 1886 LINE",
"326 1811 OFFCURVE",
"468 1659 OFFCURVE",
"568 1579 CURVE",
"689 1579 LINE",
"689 1604 LINE"
);
}
);
};
components = (
{
name = Y;
},
{
name = gravecomb.case;
transform = "{1, 0, 0, 1, 101, 0}";
}
);
layerId = "6418A72B-B7AF-4A99-B2A7-67092BA5BFD7";
width = 484;
}
);
leftKerningGroup = Y;
note = Ygrave;
rightKerningGroup = Y;
unicode = 1EF2;
},
{
glyphname = Z;
lastChange = "2016-07-14 00:51:39 +0000";
layers = (
{
anchors = (
{
name = bottom;
position = "{215, 0}";
},
{
name = top;
position = "{237, 750}";
}
);
background = {
paths = (
{
closed = 1;
nodes = (
"301 164 LINE",
"1071 1323 LINE",
"1071 1462 LINE",
"102 1462 LINE",
"102 1298 LINE",
"848 1298 LINE",
"78 139 LINE",
"78 0 LINE",
"1092 0 LINE",
"1092 164 LINE"
);
}
);
};
layerId = "6418A72B-B7AF-4A99-B2A7-67092BA5BFD7";
paths = (
{
closed = 1;
nodes = (
"403 0 LINE",
"403 29 LINE",
"75 29 LINE",
"406 750 LINE",
"26 750 LINE",
"26 721 LINE",
"356 721 LINE",
"26 0 LINE"
);
}
);
width = 429;
}
);
leftKerningGroup = Z;
note = Z;
rightKerningGroup = Z;
unicode = 005A;
},
{
glyphname = Zacute;
lastChange = "2016-07-13 21:35:07 +0000";
layers = (
{
background = {
paths = (
{
closed = 1;
nodes = (
"301 164 LINE",
"1071 1323 LINE",
"1071 1462 LINE",
"102 1462 LINE",
"102 1298 LINE",
"848 1298 LINE",
"78 139 LINE",
"78 0 LINE",
"1092 0 LINE",
"1092 164 LINE"
);
},
{
closed = 1;
nodes = (
"572 1579 LINE",
"656 1644 OFFCURVE",
"806 1801 OFFCURVE",
"865 1886 CURVE",
"865 1907 LINE",
"648 1907 LINE",
"595 1803 OFFCURVE",
"504 1668 OFFCURVE",
"453 1604 CURVE",
"453 1579 LINE"
);
}
);
};
components = (
{
name = Z;
},
{
name = acutecomb.case;
transform = "{1, 0, 0, 1, 153, 0}";
}
);
layerId = "6418A72B-B7AF-4A99-B2A7-67092BA5BFD7";
width = 429;
}
);
leftKerningGroup = Z;
note = Zacute;
rightKerningGroup = Z;
unicode = 0179;
},
{
glyphname = Zcaron;
lastChange = "2016-07-13 21:35:07 +0000";
layers = (
{
background = {
paths = (
{
closed = 1;
nodes = (
"301 164 LINE",
"1071 1323 LINE",
"1071 1462 LINE",
"102 1462 LINE",
"102 1298 LINE",
"848 1298 LINE",
"78 139 LINE",
"78 0 LINE",
"1092 0 LINE",
"1092 164 LINE"
);
},
{
closed = 1;
nodes = (
"371 1747 OFFCURVE",
"455 1647 OFFCURVE",
"495 1579 CURVE",
"679 1579 LINE",
"713 1643 OFFCURVE",
"798 1743 OFFCURVE",
"935 1880 CURVE",
"935 1907 LINE",
"808 1907 LINE",
"743 1865 OFFCURVE",
"669 1802 OFFCURVE",
"585 1718 CURVE",
"515 1795 OFFCURVE",
"442 1858 OFFCURVE",
"366 1907 CURVE",
"243 1907 LINE",
"243 1880 LINE"
);
}
);
};
components = (
{
name = Z;
},
{
name = caroncomb;
transform = "{1, 0, 0, 1, 71, 300}";
}
);
layerId = "6418A72B-B7AF-4A99-B2A7-67092BA5BFD7";
width = 429;
}
);
leftKerningGroup = Z;
note = Zcaron;
rightKerningGroup = Z;
unicode = 017D;
},
{
glyphname = Zdotaccent;
lastChange = "2016-07-13 21:35:07 +0000";
layers = (
{
background = {
paths = (
{
closed = 1;
nodes = (
"301 164 LINE",
"1071 1323 LINE",
"1071 1462 LINE",
"102 1462 LINE",
"102 1298 LINE",
"848 1298 LINE",
"78 139 LINE",
"78 0 LINE",
"1092 0 LINE",
"1092 164 LINE"
);
},
{
closed = 1;
nodes = (
"477 1654 OFFCURVE",
"523 1618 OFFCURVE",
"583 1618 CURVE SMOOTH",
"639 1618 OFFCURVE",
"688 1654 OFFCURVE",
"688 1733 CURVE SMOOTH",
"688 1813 OFFCURVE",
"639 1847 OFFCURVE",
"583 1847 CURVE SMOOTH",
"523 1847 OFFCURVE",
"477 1813 OFFCURVE",
"477 1733 CURVE SMOOTH"
);
}
);
};
components = (
{
name = Z;
},
{
name = dotaccentcomb;
transform = "{1, 0, 0, 1, 193, 300}";
}
);
layerId = "6418A72B-B7AF-4A99-B2A7-67092BA5BFD7";
width = 429;
}
);
leftKerningGroup = Z;
note = Zdotaccent;
rightKerningGroup = Z;
unicode = 017B;
},
{
glyphname = a;
lastChange = "2016-07-14 00:51:39 +0000";
layers = (
{
anchors = (
{
name = bottom;
position = "{275, 0}";
},
{
name = ogonek;
position = "{514, 10}";
},
{
name = top;
position = "{294, 450}";
}
);
background = {
paths = (
{
closed = 1;
nodes = (
"983 748 LINE SMOOTH",
"983 1004 OFFCURVE",
"855 1116 OFFCURVE",
"590 1116 CURVE SMOOTH",
"462 1116 OFFCURVE",
"326 1081 OFFCURVE",
"215 1022 CURVE",
"270 887 LINE",
"361 930 OFFCURVE",
"464 971 OFFCURVE",
"580 971 CURVE SMOOTH",
"739 971 OFFCURVE",
"807 894 OFFCURVE",
"807 727 CURVE SMOOTH",
"807 662 LINE",
"621 655 LINE SMOOTH",
"270 644 OFFCURVE",
"94 528 OFFCURVE",
"94 305 CURVE SMOOTH",
"94 98 OFFCURVE",
"224 -20 OFFCURVE",
"440 -20 CURVE SMOOTH",
"605 -20 OFFCURVE",
"700 19 OFFCURVE",
"809 156 CURVE",
"817 156 LINE",
"852 0 LINE",
"983 0 LINE"
);
},
{
closed = 1;
nodes = (
"354 125 OFFCURVE",
"281 188 OFFCURVE",
"281 303 CURVE SMOOTH",
"281 455 OFFCURVE",
"391 521 OFFCURVE",
"643 530 CURVE SMOOTH",
"805 537 LINE",
"805 438 LINE SMOOTH",
"805 238 OFFCURVE",
"682 125 OFFCURVE",
"481 125 CURVE SMOOTH"
);
}
);
};
layerId = "6418A72B-B7AF-4A99-B2A7-67092BA5BFD7";
paths = (
{
closed = 1;
nodes = (
"360 -11 OFFCURVE",
"442 36 OFFCURVE",
"479 112 CURVE",
"479 0 LINE",
"511 0 LINE",
"511 450 LINE",
"479 450 LINE",
"479 337 LINE",
"448 412 OFFCURVE",
"360 461 OFFCURVE",
"275 461 CURVE SMOOTH",
"144 461 OFFCURVE",
"37 354 OFFCURVE",
"37 225 CURVE SMOOTH",
"37 96 OFFCURVE",
"144 -11 OFFCURVE",
"275 -11 CURVE SMOOTH"
);
},
{
closed = 1;
nodes = (
"164 17 OFFCURVE",
"69 112 OFFCURVE",
"69 224 CURVE SMOOTH",
"69 336 OFFCURVE",
"164 433 OFFCURVE",
"276 433 CURVE SMOOTH",
"388 433 OFFCURVE",
"481 337 OFFCURVE",
"481 225 CURVE SMOOTH",
"481 112 OFFCURVE",
"389 17 OFFCURVE",
"277 17 CURVE SMOOTH"
);
}
);
width = 574;
}
);
leftKerningGroup = a;
note = a;
rightKerningGroup = n;
unicode = 0061;
},
{
glyphname = aacute;
lastChange = "2016-07-13 21:35:07 +0000";
layers = (
{
background = {
paths = (
{
closed = 1;
nodes = (
"983 748 LINE SMOOTH",
"983 1004 OFFCURVE",
"855 1116 OFFCURVE",
"590 1116 CURVE SMOOTH",
"462 1116 OFFCURVE",
"326 1081 OFFCURVE",
"215 1022 CURVE",
"270 887 LINE",
"361 930 OFFCURVE",
"464 971 OFFCURVE",
"580 971 CURVE SMOOTH",
"739 971 OFFCURVE",
"807 894 OFFCURVE",
"807 727 CURVE SMOOTH",
"807 662 LINE",
"621 655 LINE SMOOTH",
"270 644 OFFCURVE",
"94 528 OFFCURVE",
"94 305 CURVE SMOOTH",
"94 98 OFFCURVE",
"224 -20 OFFCURVE",
"440 -20 CURVE SMOOTH",
"605 -20 OFFCURVE",
"700 19 OFFCURVE",
"809 156 CURVE",
"817 156 LINE",
"852 0 LINE",
"983 0 LINE"
);
},
{
closed = 1;
nodes = (
"354 125 OFFCURVE",
"281 188 OFFCURVE",
"281 303 CURVE SMOOTH",
"281 455 OFFCURVE",
"391 521 OFFCURVE",
"643 530 CURVE SMOOTH",
"805 537 LINE",
"805 438 LINE SMOOTH",
"805 238 OFFCURVE",
"682 125 OFFCURVE",
"481 125 CURVE SMOOTH"
);
},
{
closed = 1;
nodes = (
"555 1241 LINE",
"639 1306 OFFCURVE",
"789 1463 OFFCURVE",
"848 1548 CURVE",
"848 1569 LINE",
"631 1569 LINE",
"578 1465 OFFCURVE",
"487 1330 OFFCURVE",
"436 1266 CURVE",
"436 1241 LINE"
);
}
);
};
components = (
{
name = a;
},
{
name = acutecomb;
transform = "{1, 0, 0, 1, 188, 0}";
}
);
layerId = "6418A72B-B7AF-4A99-B2A7-67092BA5BFD7";
width = 574;
}
);
leftKerningGroup = a;
note = aacute;
rightKerningGroup = n;
unicode = 00E1;
},
{
glyphname = abreve;
lastChange = "2016-07-13 21:35:07 +0000";
layers = (
{
background = {
paths = (
{
closed = 1;
nodes = (
"983 748 LINE SMOOTH",
"983 1004 OFFCURVE",
"855 1116 OFFCURVE",
"590 1116 CURVE SMOOTH",
"462 1116 OFFCURVE",
"326 1081 OFFCURVE",
"215 1022 CURVE",
"270 887 LINE",
"361 930 OFFCURVE",
"464 971 OFFCURVE",
"580 971 CURVE SMOOTH",
"739 971 OFFCURVE",
"807 894 OFFCURVE",
"807 727 CURVE SMOOTH",
"807 662 LINE",
"621 655 LINE SMOOTH",
"270 644 OFFCURVE",
"94 528 OFFCURVE",
"94 305 CURVE SMOOTH",
"94 98 OFFCURVE",
"224 -20 OFFCURVE",
"440 -20 CURVE SMOOTH",
"605 -20 OFFCURVE",
"700 19 OFFCURVE",
"809 156 CURVE",
"817 156 LINE",
"852 0 LINE",
"983 0 LINE"
);
},
{
closed = 1;
nodes = (
"354 125 OFFCURVE",
"281 188 OFFCURVE",
"281 303 CURVE SMOOTH",
"281 455 OFFCURVE",
"391 521 OFFCURVE",
"643 530 CURVE SMOOTH",
"805 537 LINE",
"805 438 LINE SMOOTH",
"805 238 OFFCURVE",
"682 125 OFFCURVE",
"481 125 CURVE SMOOTH"
);
},
{
closed = 1;
nodes = (
"761 1241 OFFCURVE",
"883 1341 OFFCURVE",
"900 1516 CURVE",
"787 1516 LINE",
"776 1427 OFFCURVE",
"715 1386 OFFCURVE",
"580 1386 CURVE SMOOTH",
"427 1386 OFFCURVE",
"384 1421 OFFCURVE",
"373 1516 CURVE",
"263 1516 LINE",
"275 1333 OFFCURVE",
"388 1241 OFFCURVE",
"576 1241 CURVE SMOOTH"
);
}
);
};
components = (
{
name = a;
},
{
name = brevecomb;
transform = "{1, 0, 0, 1, 154, 0}";
}
);
layerId = "6418A72B-B7AF-4A99-B2A7-67092BA5BFD7";
width = 574;
}
);
leftKerningGroup = a;
note = abreve;
rightKerningGroup = n;
unicode = 0103;
},
{
glyphname = acircumflex;
lastChange = "2016-07-13 21:35:07 +0000";
layers = (
{
background = {
paths = (
{
closed = 1;
nodes = (
"983 748 LINE SMOOTH",
"983 1004 OFFCURVE",
"855 1116 OFFCURVE",
"590 1116 CURVE SMOOTH",
"462 1116 OFFCURVE",
"326 1081 OFFCURVE",
"215 1022 CURVE",
"270 887 LINE",
"361 930 OFFCURVE",
"464 971 OFFCURVE",
"580 971 CURVE SMOOTH",
"739 971 OFFCURVE",
"807 894 OFFCURVE",
"807 727 CURVE SMOOTH",
"807 662 LINE",
"621 655 LINE SMOOTH",
"270 644 OFFCURVE",
"94 528 OFFCURVE",
"94 305 CURVE SMOOTH",
"94 98 OFFCURVE",
"224 -20 OFFCURVE",
"440 -20 CURVE SMOOTH",
"605 -20 OFFCURVE",
"700 19 OFFCURVE",
"809 156 CURVE",
"817 156 LINE",
"852 0 LINE",
"983 0 LINE"
);
},
{
closed = 1;
nodes = (
"354 125 OFFCURVE",
"281 188 OFFCURVE",
"281 303 CURVE SMOOTH",
"281 455 OFFCURVE",
"391 521 OFFCURVE",
"643 530 CURVE SMOOTH",
"805 537 LINE",
"805 438 LINE SMOOTH",
"805 238 OFFCURVE",
"682 125 OFFCURVE",
"481 125 CURVE SMOOTH"
);
},
{
closed = 1;
nodes = (
"347 1241 LINE",
"406 1278 OFFCURVE",
"479 1340 OFFCURVE",
"566 1425 CURVE",
"655 1338 OFFCURVE",
"729 1276 OFFCURVE",
"789 1241 CURVE",
"916 1241 LINE",
"916 1264 LINE",
"780 1400 OFFCURVE",
"695 1502 OFFCURVE",
"660 1569 CURVE",
"476 1569 LINE",
"460 1540 OFFCURVE",
"435 1505 OFFCURVE",
"401 1462 CURVE SMOOTH",
"366 1419 OFFCURVE",
"307 1353 OFFCURVE",
"224 1264 CURVE",
"224 1241 LINE"
);
}
);
};
components = (
{
name = a;
},
{
name = circumflexcomb;
transform = "{1, 0, 0, 1, 96, 0}";
}
);
layerId = "6418A72B-B7AF-4A99-B2A7-67092BA5BFD7";
width = 574;
}
);
leftKerningGroup = a;
note = acircumflex;
rightKerningGroup = n;
unicode = 00E2;
},
{
glyphname = adieresis;
lastChange = "2016-07-13 21:35:07 +0000";
layers = (
{
background = {
paths = (
{
closed = 1;
nodes = (
"983 748 LINE SMOOTH",
"983 1004 OFFCURVE",
"855 1116 OFFCURVE",
"590 1116 CURVE SMOOTH",
"462 1116 OFFCURVE",
"326 1081 OFFCURVE",
"215 1022 CURVE",
"270 887 LINE",
"361 930 OFFCURVE",
"464 971 OFFCURVE",
"580 971 CURVE SMOOTH",
"739 971 OFFCURVE",
"807 894 OFFCURVE",
"807 727 CURVE SMOOTH",
"807 662 LINE",
"621 655 LINE SMOOTH",
"270 644 OFFCURVE",
"94 528 OFFCURVE",
"94 305 CURVE SMOOTH",
"94 98 OFFCURVE",
"224 -20 OFFCURVE",
"440 -20 CURVE SMOOTH",
"605 -20 OFFCURVE",
"700 19 OFFCURVE",
"809 156 CURVE",
"817 156 LINE",
"852 0 LINE",
"983 0 LINE"
);
},
{
closed = 1;
nodes = (
"354 125 OFFCURVE",
"281 188 OFFCURVE",
"281 303 CURVE SMOOTH",
"281 455 OFFCURVE",
"391 521 OFFCURVE",
"643 530 CURVE SMOOTH",
"805 537 LINE",
"805 438 LINE SMOOTH",
"805 238 OFFCURVE",
"682 125 OFFCURVE",
"481 125 CURVE SMOOTH"
);
},
{
closed = 1;
nodes = (
"279 1324 OFFCURVE",
"322 1292 OFFCURVE",
"375 1292 CURVE SMOOTH",
"427 1292 OFFCURVE",
"472 1324 OFFCURVE",
"472 1395 CURVE SMOOTH",
"472 1466 OFFCURVE",
"427 1495 OFFCURVE",
"375 1495 CURVE SMOOTH",
"322 1495 OFFCURVE",
"279 1466 OFFCURVE",
"279 1395 CURVE SMOOTH"
);
},
{
closed = 1;
nodes = (
"664 1324 OFFCURVE",
"707 1292 OFFCURVE",
"758 1292 CURVE SMOOTH",
"810 1292 OFFCURVE",
"855 1324 OFFCURVE",
"855 1395 CURVE SMOOTH",
"855 1466 OFFCURVE",
"810 1495 OFFCURVE",
"758 1495 CURVE SMOOTH",
"707 1495 OFFCURVE",
"664 1466 OFFCURVE",
"664 1395 CURVE SMOOTH"
);
}
);
};
components = (
{
name = a;
},
{
name = dieresiscomb;
transform = "{1, 0, 0, 1, 163, 0}";
}
);
layerId = "6418A72B-B7AF-4A99-B2A7-67092BA5BFD7";
width = 574;
}
);
leftKerningGroup = a;
note = adieresis;
rightKerningGroup = n;
unicode = 00E4;
},
{
glyphname = agrave;
lastChange = "2016-07-13 21:35:07 +0000";
layers = (
{
background = {
paths = (
{
closed = 1;
nodes = (
"983 748 LINE SMOOTH",
"983 1004 OFFCURVE",
"855 1116 OFFCURVE",
"590 1116 CURVE SMOOTH",
"462 1116 OFFCURVE",
"326 1081 OFFCURVE",
"215 1022 CURVE",
"270 887 LINE",
"361 930 OFFCURVE",
"464 971 OFFCURVE",
"580 971 CURVE SMOOTH",
"739 971 OFFCURVE",
"807 894 OFFCURVE",
"807 727 CURVE SMOOTH",
"807 662 LINE",
"621 655 LINE SMOOTH",
"270 644 OFFCURVE",
"94 528 OFFCURVE",
"94 305 CURVE SMOOTH",
"94 98 OFFCURVE",
"224 -20 OFFCURVE",
"440 -20 CURVE SMOOTH",
"605 -20 OFFCURVE",
"700 19 OFFCURVE",
"809 156 CURVE",
"817 156 LINE",
"852 0 LINE",
"983 0 LINE"
);
},
{
closed = 1;
nodes = (
"354 125 OFFCURVE",
"281 188 OFFCURVE",
"281 303 CURVE SMOOTH",
"281 455 OFFCURVE",
"391 521 OFFCURVE",
"643 530 CURVE SMOOTH",
"805 537 LINE",
"805 438 LINE SMOOTH",
"805 238 OFFCURVE",
"682 125 OFFCURVE",
"481 125 CURVE SMOOTH"
);
},
{
closed = 1;
nodes = (
"624 1338 OFFCURVE",
"533 1481 OFFCURVE",
"490 1569 CURVE",
"275 1569 LINE",
"275 1548 LINE",
"324 1473 OFFCURVE",
"466 1321 OFFCURVE",
"566 1241 CURVE",
"687 1241 LINE",
"687 1266 LINE"
);
}
);
};
components = (
{
name = a;
},
{
name = gravecomb;
transform = "{1, 0, 0, 1, 188, 0}";
}
);
layerId = "6418A72B-B7AF-4A99-B2A7-67092BA5BFD7";
width = 574;
}
);
leftKerningGroup = a;
note = agrave;
rightKerningGroup = n;
unicode = 00E0;
},
{
glyphname = amacron;
lastChange = "2016-07-13 21:35:07 +0000";
layers = (
{
background = {
paths = (
{
closed = 1;
nodes = (
"983 748 LINE SMOOTH",
"983 1004 OFFCURVE",
"855 1116 OFFCURVE",
"590 1116 CURVE SMOOTH",
"462 1116 OFFCURVE",
"326 1081 OFFCURVE",
"215 1022 CURVE",
"270 887 LINE",
"361 930 OFFCURVE",
"464 971 OFFCURVE",
"580 971 CURVE SMOOTH",
"739 971 OFFCURVE",
"807 894 OFFCURVE",
"807 727 CURVE SMOOTH",
"807 662 LINE",
"621 655 LINE SMOOTH",
"270 644 OFFCURVE",
"94 528 OFFCURVE",
"94 305 CURVE SMOOTH",
"94 98 OFFCURVE",
"224 -20 OFFCURVE",
"440 -20 CURVE SMOOTH",
"605 -20 OFFCURVE",
"700 19 OFFCURVE",
"809 156 CURVE",
"817 156 LINE",
"852 0 LINE",
"983 0 LINE"
);
},
{
closed = 1;
nodes = (
"354 125 OFFCURVE",
"281 188 OFFCURVE",
"281 303 CURVE SMOOTH",
"281 455 OFFCURVE",
"391 521 OFFCURVE",
"643 530 CURVE SMOOTH",
"805 537 LINE",
"805 438 LINE SMOOTH",
"805 238 OFFCURVE",
"682 125 OFFCURVE",
"481 125 CURVE SMOOTH"
);
},
{
closed = 1;
nodes = (
"900 1241 LINE",
"900 1386 LINE",
"292 1386 LINE",
"292 1241 LINE"
);
}
);
};
components = (
{
name = a;
},
{
name = macroncomb;
transform = "{1, 0, 0, 1, 145, 0}";
}
);
layerId = "6418A72B-B7AF-4A99-B2A7-67092BA5BFD7";
width = 574;
}
);
leftKerningGroup = a;
note = amacron;
rightKerningGroup = n;
unicode = 0101;
},
{
glyphname = aogonek;
lastChange = "2016-07-13 21:35:07 +0000";
layers = (
{
background = {
paths = (
{
closed = 1;
nodes = (
"983 748 LINE SMOOTH",
"983 1004 OFFCURVE",
"855 1116 OFFCURVE",
"590 1116 CURVE SMOOTH",
"462 1116 OFFCURVE",
"326 1081 OFFCURVE",
"215 1022 CURVE",
"270 887 LINE",
"361 930 OFFCURVE",
"464 971 OFFCURVE",
"580 971 CURVE SMOOTH",
"739 971 OFFCURVE",
"807 894 OFFCURVE",
"807 727 CURVE SMOOTH",
"807 662 LINE",
"621 655 LINE SMOOTH",
"270 644 OFFCURVE",
"94 528 OFFCURVE",
"94 305 CURVE SMOOTH",
"94 98 OFFCURVE",
"224 -20 OFFCURVE",
"440 -20 CURVE SMOOTH",
"605 -20 OFFCURVE",
"700 19 OFFCURVE",
"809 156 CURVE",
"817 156 LINE",
"852 0 LINE",
"983 0 LINE"
);
},
{
closed = 1;
nodes = (
"354 125 OFFCURVE",
"281 188 OFFCURVE",
"281 303 CURVE SMOOTH",
"281 455 OFFCURVE",
"391 521 OFFCURVE",
"643 530 CURVE SMOOTH",
"805 537 LINE",
"805 438 LINE SMOOTH",
"805 238 OFFCURVE",
"682 125 OFFCURVE",
"481 125 CURVE SMOOTH"
);
},
{
closed = 1;
nodes = (
"839 -154 OFFCURVE",
"886 -88 OFFCURVE",
"979 0 CURVE",
"852 0 LINE",
"745 -79 OFFCURVE",
"692 -165 OFFCURVE",
"692 -258 CURVE SMOOTH",
"692 -387 OFFCURVE",
"762 -451 OFFCURVE",
"903 -451 CURVE SMOOTH",
"942 -451 OFFCURVE",
"984 -445 OFFCURVE",
"1030 -432 CURVE",
"1030 -317 LINE",
"993 -326 OFFCURVE",
"960 -330 OFFCURVE",
"931 -330 CURVE SMOOTH",
"874 -330 OFFCURVE",
"839 -299 OFFCURVE",
"839 -238 CURVE SMOOTH"
);
}
);
};
components = (
{
name = a;
},
{
alignment = -1;
name = ogonekcomb;
transform = "{1, 0, 0, 1, 381, 0}";
}
);
layerId = "6418A72B-B7AF-4A99-B2A7-67092BA5BFD7";
width = 572;
}
);
leftKerningGroup = a;
note = aogonek;
rightKerningGroup = n;
unicode = 0105;
},
{
glyphname = aring;
lastChange = "2016-07-13 21:35:07 +0000";
layers = (
{
background = {
paths = (
{
closed = 1;
nodes = (
"983 748 LINE SMOOTH",
"983 1004 OFFCURVE",
"855 1116 OFFCURVE",
"590 1116 CURVE SMOOTH",
"462 1116 OFFCURVE",
"326 1081 OFFCURVE",
"215 1022 CURVE",
"270 887 LINE",
"361 930 OFFCURVE",
"464 971 OFFCURVE",
"580 971 CURVE SMOOTH",
"739 971 OFFCURVE",
"807 894 OFFCURVE",
"807 727 CURVE SMOOTH",
"807 662 LINE",
"621 655 LINE SMOOTH",
"270 644 OFFCURVE",
"94 528 OFFCURVE",
"94 305 CURVE SMOOTH",
"94 98 OFFCURVE",
"224 -20 OFFCURVE",
"440 -20 CURVE SMOOTH",
"605 -20 OFFCURVE",
"700 19 OFFCURVE",
"809 156 CURVE",
"817 156 LINE",
"852 0 LINE",
"983 0 LINE"
);
},
{
closed = 1;
nodes = (
"354 125 OFFCURVE",
"281 188 OFFCURVE",
"281 303 CURVE SMOOTH",
"281 455 OFFCURVE",
"391 521 OFFCURVE",
"643 530 CURVE SMOOTH",
"805 537 LINE",
"805 438 LINE SMOOTH",
"805 238 OFFCURVE",
"682 125 OFFCURVE",
"481 125 CURVE SMOOTH"
);
},
{
closed = 1;
nodes = (
"812 1587 OFFCURVE",
"720 1673 OFFCURVE",
"585 1673 CURVE SMOOTH",
"448 1673 OFFCURVE",
"362 1589 OFFCURVE",
"362 1458 CURVE SMOOTH",
"362 1325 OFFCURVE",
"448 1241 OFFCURVE",
"585 1241 CURVE SMOOTH",
"721 1241 OFFCURVE",
"812 1325 OFFCURVE",
"812 1460 CURVE SMOOTH"
);
},
{
closed = 1;
nodes = (
"699 1386 OFFCURVE",
"653 1343 OFFCURVE",
"585 1343 CURVE SMOOTH",
"510 1343 OFFCURVE",
"470 1386 OFFCURVE",
"470 1458 CURVE SMOOTH",
"470 1530 OFFCURVE",
"518 1573 OFFCURVE",
"585 1573 CURVE SMOOTH",
"650 1573 OFFCURVE",
"699 1530 OFFCURVE",
"699 1458 CURVE SMOOTH"
);
}
);
};
components = (
{
name = a;
},
{
name = ringcomb;
transform = "{1, 0, 0, 1, 203, 0}";
}
);
layerId = "6418A72B-B7AF-4A99-B2A7-67092BA5BFD7";
width = 574;
}
);
leftKerningGroup = a;
note = aring;
rightKerningGroup = n;
unicode = 00E5;
},
{
glyphname = aringacute;
lastChange = "2016-07-13 22:59:54 +0000";
layers = (
{
background = {
paths = (
{
closed = 1;
nodes = (
"983 748 LINE SMOOTH",
"983 1004 OFFCURVE",
"855 1116 OFFCURVE",
"590 1116 CURVE SMOOTH",
"462 1116 OFFCURVE",
"326 1081 OFFCURVE",
"215 1022 CURVE",
"270 887 LINE",
"361 930 OFFCURVE",
"464 971 OFFCURVE",
"580 971 CURVE SMOOTH",
"739 971 OFFCURVE",
"807 894 OFFCURVE",
"807 727 CURVE SMOOTH",
"807 662 LINE",
"621 655 LINE SMOOTH",
"270 644 OFFCURVE",
"94 528 OFFCURVE",
"94 305 CURVE SMOOTH",
"94 98 OFFCURVE",
"224 -20 OFFCURVE",
"440 -20 CURVE SMOOTH",
"605 -20 OFFCURVE",
"700 19 OFFCURVE",
"809 156 CURVE",
"817 156 LINE",
"852 0 LINE",
"983 0 LINE"
);
},
{
closed = 1;
nodes = (
"354 125 OFFCURVE",
"281 188 OFFCURVE",
"281 303 CURVE SMOOTH",
"281 455 OFFCURVE",
"391 521 OFFCURVE",
"643 530 CURVE SMOOTH",
"805 537 LINE",
"805 438 LINE SMOOTH",
"805 238 OFFCURVE",
"682 125 OFFCURVE",
"481 125 CURVE SMOOTH"
);
},
{
closed = 1;
nodes = (
"811 1587 OFFCURVE",
"719 1673 OFFCURVE",
"584 1673 CURVE SMOOTH",
"445 1673 OFFCURVE",
"360 1587 OFFCURVE",
"360 1458 CURVE SMOOTH",
"360 1326 OFFCURVE",
"447 1241 OFFCURVE",
"584 1241 CURVE SMOOTH",
"720 1241 OFFCURVE",
"811 1325 OFFCURVE",
"811 1460 CURVE SMOOTH"
);
},
{
closed = 1;
nodes = (
"698 1386 OFFCURVE",
"652 1343 OFFCURVE",
"584 1343 CURVE SMOOTH",
"509 1343 OFFCURVE",
"469 1386 OFFCURVE",
"469 1458 CURVE SMOOTH",
"469 1530 OFFCURVE",
"517 1573 OFFCURVE",
"584 1573 CURVE SMOOTH",
"649 1573 OFFCURVE",
"698 1530 OFFCURVE",
"698 1458 CURVE SMOOTH"
);
},
{
closed = 1;
nodes = (
"685 1798 OFFCURVE",
"755 1839 OFFCURVE",
"810 1874 CURVE SMOOTH",
"865 1909 OFFCURVE",
"899 1934 OFFCURVE",
"913 1950 CURVE",
"913 1962 LINE",
"645 1962 LINE",
"616 1921 OFFCURVE",
"532 1825 OFFCURVE",
"471 1769 CURVE",
"471 1753 LINE",
"600 1753 LINE"
);
}
);
};
components = (
{
name = a;
},
{
name = ringcomb;
transform = "{1, 0, 0, 1, 203, 0}";
},
{
name = acutecomb.i;
transform = "{1, 0, 0, 1, 222, 154}";
}
);
layerId = "6418A72B-B7AF-4A99-B2A7-67092BA5BFD7";
width = 574;
}
);
leftKerningGroup = a;
rightKerningGroup = n;
unicode = 01FB;
},
{
glyphname = atilde;
lastChange = "2016-07-13 21:35:07 +0000";
layers = (
{
background = {
paths = (
{
closed = 1;
nodes = (
"983 748 LINE SMOOTH",
"983 1004 OFFCURVE",
"855 1116 OFFCURVE",
"590 1116 CURVE SMOOTH",
"462 1116 OFFCURVE",
"326 1081 OFFCURVE",
"215 1022 CURVE",
"270 887 LINE",
"361 930 OFFCURVE",
"464 971 OFFCURVE",
"580 971 CURVE SMOOTH",
"739 971 OFFCURVE",
"807 894 OFFCURVE",
"807 727 CURVE SMOOTH",
"807 662 LINE",
"621 655 LINE SMOOTH",
"270 644 OFFCURVE",
"94 528 OFFCURVE",
"94 305 CURVE SMOOTH",
"94 98 OFFCURVE",
"224 -20 OFFCURVE",
"440 -20 CURVE SMOOTH",
"605 -20 OFFCURVE",
"700 19 OFFCURVE",
"809 156 CURVE",
"817 156 LINE",
"852 0 LINE",
"983 0 LINE"
);
},
{
closed = 1;
nodes = (
"354 125 OFFCURVE",
"281 188 OFFCURVE",
"281 303 CURVE SMOOTH",
"281 455 OFFCURVE",
"391 521 OFFCURVE",
"643 530 CURVE SMOOTH",
"805 537 LINE",
"805 438 LINE SMOOTH",
"805 238 OFFCURVE",
"682 125 OFFCURVE",
"481 125 CURVE SMOOTH"
);
},
{
closed = 1;
nodes = (
"856 1243 OFFCURVE",
"936 1346 OFFCURVE",
"952 1505 CURVE",
"849 1505 LINE",
"829 1425 OFFCURVE",
"801 1386 OFFCURVE",
"737 1386 CURVE SMOOTH",
"694 1386 OFFCURVE",
"646 1416 OFFCURVE",
"594 1445 CURVE SMOOTH",
"542 1473 OFFCURVE",
"485 1503 OFFCURVE",
"425 1503 CURVE SMOOTH",
"296 1503 OFFCURVE",
"216 1404 OFFCURVE",
"200 1241 CURVE",
"304 1241 LINE",
"323 1321 OFFCURVE",
"352 1360 OFFCURVE",
"417 1360 CURVE SMOOTH",
"462 1360 OFFCURVE",
"511 1330 OFFCURVE",
"564 1302 CURVE SMOOTH",
"616 1273 OFFCURVE",
"671 1243 OFFCURVE",
"728 1243 CURVE SMOOTH"
);
}
);
};
components = (
{
name = a;
},
{
name = tildecomb;
transform = "{1, 0, 0, 1, 108, 0}";
}
);
layerId = "6418A72B-B7AF-4A99-B2A7-67092BA5BFD7";
width = 574;
}
);
leftKerningGroup = a;
note = atilde;
rightKerningGroup = n;
unicode = 00E3;
},
{
glyphname = ae;
lastChange = "2016-07-14 00:51:39 +0000";
layers = (
{
anchors = (
{
name = bottom;
position = "{468, 0}";
},
{
name = top;
position = "{468, 450}";
}
);
background = {
paths = (
{
closed = 1;
nodes = (
"94 100 OFFCURVE",
"223 -20 OFFCURVE",
"442 -20 CURVE SMOOTH",
"623 -20 OFFCURVE",
"749 46 OFFCURVE",
"858 211 CURVE",
"941 57 OFFCURVE",
"1080 -20 OFFCURVE",
"1274 -20 CURVE SMOOTH",
"1410 -20 OFFCURVE",
"1499 -1 OFFCURVE",
"1616 51 CURVE",
"1616 209 LINE",
"1491 152 OFFCURVE",
"1397 133 OFFCURVE",
"1280 133 CURVE SMOOTH",
"1074 133 OFFCURVE",
"968 261 OFFCURVE",
"963 516 CURVE",
"1665 516 LINE",
"1665 627 LINE SMOOTH",
"1665 922 OFFCURVE",
"1498 1118 OFFCURVE",
"1235 1118 CURVE SMOOTH",
"1086 1118 OFFCURVE",
"971 1053 OFFCURVE",
"899 940 CURVE",
"842 1064 OFFCURVE",
"734 1116 OFFCURVE",
"563 1116 CURVE SMOOTH",
"426 1116 OFFCURVE",
"281 1075 OFFCURVE",
"186 1022 CURVE",
"242 887 LINE",
"354 943 OFFCURVE",
"456 971 OFFCURVE",
"549 971 CURVE SMOOTH",
"704 971 OFFCURVE",
"778 894 OFFCURVE",
"778 731 CURVE SMOOTH",
"778 662 LINE",
"594 655 LINE SMOOTH",
"261 644 OFFCURVE",
"94 528 OFFCURVE",
"94 305 CURVE SMOOTH"
);
},
{
closed = 1;
nodes = (
"281 455 OFFCURVE",
"385 521 OFFCURVE",
"621 530 CURVE SMOOTH",
"774 537 LINE",
"774 438 LINE SMOOTH",
"774 238 OFFCURVE",
"658 125 OFFCURVE",
"471 125 CURVE SMOOTH",
"356 125 OFFCURVE",
"281 180 OFFCURVE",
"281 303 CURVE SMOOTH"
);
},
{
closed = 1;
nodes = (
"1389 971 OFFCURVE",
"1475 860 OFFCURVE",
"1475 657 CURVE",
"967 657 LINE",
"982 861 OFFCURVE",
"1074 971 OFFCURVE",
"1233 971 CURVE SMOOTH"
);
}
);
};
layerId = "6418A72B-B7AF-4A99-B2A7-67092BA5BFD7";
paths = (
{
closed = 1;
nodes = (
"360 -11 OFFCURVE",
"442 36 OFFCURVE",
"479 112 CURVE",
"479 0 LINE",
"511 0 LINE",
"511 255 LINE",
"485 384 OFFCURVE",
"406 461 OFFCURVE",
"275 461 CURVE SMOOTH",
"140 461 OFFCURVE",
"37 364 OFFCURVE",
"37 225 CURVE SMOOTH",
"37 96 OFFCURVE",
"144 -11 OFFCURVE",
"275 -11 CURVE SMOOTH"
);
},
{
closed = 1;
nodes = (
"164 17 OFFCURVE",
"69 112 OFFCURVE",
"69 224 CURVE SMOOTH",
"69 346 OFFCURVE",
"152 433 OFFCURVE",
"276 433 CURVE SMOOTH",
"408 433 OFFCURVE",
"481 337 OFFCURVE",
"481 225 CURVE SMOOTH",
"481 112 OFFCURVE",
"389 17 OFFCURVE",
"277 17 CURVE SMOOTH"
);
},
{
closed = 1;
nodes = (
"724 -12 LINE SMOOTH",
"791 -12 OFFCURVE",
"849 14 OFFCURVE",
"896 66 CURVE",
"896 117 LINE",
"851 47 OFFCURVE",
"800 16 OFFCURVE",
"710 16 CURVE SMOOTH",
"670 16 OFFCURVE",
"628 33 OFFCURVE",
"585 68 CURVE",
"899 378 LINE",
"850 433 OFFCURVE",
"791 460 OFFCURVE",
"722 460 CURVE SMOOTH",
"578 460 OFFCURVE",
"483 353 OFFCURVE",
"483 226 CURVE SMOOTH",
"483 99 OFFCURVE",
"590 -12 OFFCURVE",
"715 -12 CURVE SMOOTH"
);
},
{
closed = 1;
nodes = (
"571 81 LINE",
"531 123 OFFCURVE",
"511 173 OFFCURVE",
"511 229 CURVE SMOOTH",
"511 336 OFFCURVE",
"613 432 OFFCURVE",
"714 432 CURVE SMOOTH",
"767 432 OFFCURVE",
"814 415 OFFCURVE",
"857 376 CURVE",
"559 80 LINE"
);
}
);
width = 936;
},
{
associatedMasterId = "6418A72B-B7AF-4A99-B2A7-67092BA5BFD7";
layerId = "C0D35BA5-26A5-4B71-8F2C-5712906F408B";
name = "Regular Jul 8 16, 11:53";
paths = (
{
closed = 1;
nodes = (
"789 -11 OFFCURVE",
"847 15 OFFCURVE",
"894 67 CURVE",
"894 118 LINE",
"853 57 OFFCURVE",
"788 17 OFFCURVE",
"708 17 CURVE SMOOTH",
"668 17 OFFCURVE",
"626 34 OFFCURVE",
"583 69 CURVE",
"897 379 LINE",
"848 434 OFFCURVE",
"787 461 OFFCURVE",
"715 461 CURVE SMOOTH",
"627 461 OFFCURVE",
"549 412 OFFCURVE",
"508 339 CURVE",
"508 450 LINE",
"482 450 LINE",
"482 345 LINE",
"439 417 OFFCURVE",
"361 461 OFFCURVE",
"278 461 CURVE SMOOTH",
"147 461 OFFCURVE",
"40 354 OFFCURVE",
"40 225 CURVE SMOOTH",
"40 96 OFFCURVE",
"147 -11 OFFCURVE",
"278 -11 CURVE SMOOTH",
"361 -11 OFFCURVE",
"439 33 OFFCURVE",
"482 105 CURVE",
"482 0 LINE",
"508 0 LINE",
"508 112 LINE",
"549 39 OFFCURVE",
"624 -11 OFFCURVE",
"707 -11 CURVE SMOOTH",
"722 -11 LINE SMOOTH"
);
},
{
closed = 1;
nodes = (
"72 336 OFFCURVE",
"167 433 OFFCURVE",
"279 433 CURVE SMOOTH",
"391 433 OFFCURVE",
"484 337 OFFCURVE",
"484 225 CURVE SMOOTH",
"484 112 OFFCURVE",
"392 17 OFFCURVE",
"280 17 CURVE SMOOTH",
"167 17 OFFCURVE",
"72 112 OFFCURVE",
"72 224 CURVE SMOOTH"
);
},
{
closed = 1;
nodes = (
"764 433 OFFCURVE",
"812 415 OFFCURVE",
"853 379 CURVE",
"562 90 LINE",
"526 131 OFFCURVE",
"508 178 OFFCURVE",
"508 231 CURVE SMOOTH",
"508 337 OFFCURVE",
"604 433 OFFCURVE",
"711 433 CURVE SMOOTH"
);
}
);
width = 932;
}
);
leftKerningGroup = a;
leftMetricsKey = a;
note = ae;
rightKerningGroup = e;
rightMetricsKey = e;
unicode = 00E6;
},
{
glyphname = aeacute;
lastChange = "2016-07-13 21:35:07 +0000";
layers = (
{
background = {
paths = (
{
closed = 1;
nodes = (
"94 100 OFFCURVE",
"223 -20 OFFCURVE",
"442 -20 CURVE SMOOTH",
"623 -20 OFFCURVE",
"749 46 OFFCURVE",
"858 211 CURVE",
"941 57 OFFCURVE",
"1080 -20 OFFCURVE",
"1274 -20 CURVE SMOOTH",
"1410 -20 OFFCURVE",
"1499 -1 OFFCURVE",
"1616 51 CURVE",
"1616 209 LINE",
"1491 152 OFFCURVE",
"1397 133 OFFCURVE",
"1280 133 CURVE SMOOTH",
"1074 133 OFFCURVE",
"968 261 OFFCURVE",
"963 516 CURVE",
"1665 516 LINE",
"1665 627 LINE SMOOTH",
"1665 922 OFFCURVE",
"1498 1118 OFFCURVE",
"1235 1118 CURVE SMOOTH",
"1086 1118 OFFCURVE",
"971 1053 OFFCURVE",
"899 940 CURVE",
"842 1064 OFFCURVE",
"734 1116 OFFCURVE",
"563 1116 CURVE SMOOTH",
"426 1116 OFFCURVE",
"281 1075 OFFCURVE",
"186 1022 CURVE",
"242 887 LINE",
"354 943 OFFCURVE",
"456 971 OFFCURVE",
"549 971 CURVE SMOOTH",
"704 971 OFFCURVE",
"778 894 OFFCURVE",
"778 731 CURVE SMOOTH",
"778 662 LINE",
"594 655 LINE SMOOTH",
"261 644 OFFCURVE",
"94 528 OFFCURVE",
"94 305 CURVE SMOOTH"
);
},
{
closed = 1;
nodes = (
"281 455 OFFCURVE",
"385 521 OFFCURVE",
"621 530 CURVE SMOOTH",
"774 537 LINE",
"774 438 LINE SMOOTH",
"774 238 OFFCURVE",
"658 125 OFFCURVE",
"471 125 CURVE SMOOTH",
"356 125 OFFCURVE",
"281 180 OFFCURVE",
"281 303 CURVE SMOOTH"
);
},
{
closed = 1;
nodes = (
"1389 971 OFFCURVE",
"1475 860 OFFCURVE",
"1475 657 CURVE",
"967 657 LINE",
"982 861 OFFCURVE",
"1074 971 OFFCURVE",
"1233 971 CURVE SMOOTH"
);
},
{
closed = 1;
nodes = (
"901 1241 LINE",
"985 1306 OFFCURVE",
"1135 1463 OFFCURVE",
"1194 1548 CURVE",
"1194 1569 LINE",
"977 1569 LINE",
"924 1465 OFFCURVE",
"833 1330 OFFCURVE",
"782 1266 CURVE",
"782 1241 LINE"
);
}
);
};
components = (
{
name = ae;
},
{
name = acutecomb;
transform = "{1, 0, 0, 1, 362, 0}";
}
);
layerId = "6418A72B-B7AF-4A99-B2A7-67092BA5BFD7";
width = 936;
}
);
leftKerningGroup = a;
note = aeacute;
rightKerningGroup = e;
unicode = 01FD;
},
{
glyphname = b;
lastChange = "2016-07-14 00:51:39 +0000";
layers = (
{
background = {
paths = (
{
closed = 1;
nodes = (
"541 1116 OFFCURVE",
"428 1061 OFFCURVE",
"354 952 CURVE",
"344 952 LINE",
"351 1027 OFFCURVE",
"354 1103 OFFCURVE",
"354 1178 CURVE SMOOTH",
"354 1556 LINE",
"174 1556 LINE",
"174 0 LINE",
"303 0 LINE",
"307 13 OFFCURVE",
"319 59 OFFCURVE",
"340 139 CURVE",
"354 139 LINE",
"427 34 OFFCURVE",
"546 -20 OFFCURVE",
"694 -20 CURVE SMOOTH",
"978 -20 OFFCURVE",
"1147 186 OFFCURVE",
"1147 549 CURVE SMOOTH",
"1147 906 OFFCURVE",
"983 1116 OFFCURVE",
"694 1116 CURVE SMOOTH"
);
},
{
closed = 1;
nodes = (
"865 967 OFFCURVE",
"961 828 OFFCURVE",
"961 551 CURVE SMOOTH",
"961 278 OFFCURVE",
"865 129 OFFCURVE",
"668 129 CURVE SMOOTH",
"445 129 OFFCURVE",
"354 247 OFFCURVE",
"354 547 CURVE SMOOTH",
"354 555 LINE SMOOTH",
"354 854 OFFCURVE",
"443 967 OFFCURVE",
"664 967 CURVE SMOOTH"
);
}
);
};
layerId = "6418A72B-B7AF-4A99-B2A7-67092BA5BFD7";
paths = (
{
closed = 1;
nodes = (
"431 -11 OFFCURVE",
"537 96 OFFCURVE",
"537 225 CURVE SMOOTH",
"537 354 OFFCURVE",
"431 461 OFFCURVE",
"299 461 CURVE SMOOTH",
"216 461 OFFCURVE",
"131 413 OFFCURVE",
"95 336 CURVE",
"95 750 LINE",
"63 750 LINE",
"63 0 LINE",
"95 0 LINE",
"95 109 LINE",
"135 36 OFFCURVE",
"219 -11 OFFCURVE",
"299 -11 CURVE SMOOTH"
);
},
{
closed = 1;
nodes = (
"188 17 OFFCURVE",
"93 112 OFFCURVE",
"93 224 CURVE SMOOTH",
"93 336 OFFCURVE",
"188 433 OFFCURVE",
"300 433 CURVE SMOOTH",
"412 433 OFFCURVE",
"505 337 OFFCURVE",
"505 225 CURVE SMOOTH",
"505 112 OFFCURVE",
"413 17 OFFCURVE",
"301 17 CURVE SMOOTH"
);
}
);
width = 574;
}
);
leftKerningGroup = h;
note = b;
rightKerningGroup = o;
unicode = 0062;
},
{
glyphname = c;
lastChange = "2016-07-13 21:35:07 +0000";
layers = (
{
anchors = (
{
name = bottom;
position = "{260, 0}";
},
{
name = top;
position = "{280, 450}";
}
);
background = {
paths = (
{
closed = 1;
nodes = (
"727 -20 OFFCURVE",
"821 0 OFFCURVE",
"897 39 CURVE",
"897 199 LINE",
"804 156 OFFCURVE",
"709 135 OFFCURVE",
"612 135 CURVE SMOOTH",
"405 135 OFFCURVE",
"299 280 OFFCURVE",
"299 545 CURVE SMOOTH",
"299 821 OFFCURVE",
"402 961 OFFCURVE",
"623 961 CURVE SMOOTH",
"688 961 OFFCURVE",
"767 944 OFFCURVE",
"860 909 CURVE",
"915 1059 LINE",
"847 1094 OFFCURVE",
"734 1118 OFFCURVE",
"627 1118 CURVE SMOOTH",
"298 1118 OFFCURVE",
"113 911 OFFCURVE",
"113 543 CURVE SMOOTH",
"113 180 OFFCURVE",
"298 -20 OFFCURVE",
"614 -20 CURVE SMOOTH"
);
}
);
};
layerId = "6418A72B-B7AF-4A99-B2A7-67092BA5BFD7";
paths = (
{
closed = 1;
nodes = (
"348 -13 OFFCURVE",
"405 11 OFFCURVE",
"453 62 CURVE",
"453 116 LINE",
"412 53 OFFCURVE",
"354 15 OFFCURVE",
"275 15 CURVE SMOOTH",
"164 15 OFFCURVE",
"69 100 OFFCURVE",
"69 223 CURVE SMOOTH",
"69 336 OFFCURVE",
"168 431 OFFCURVE",
"279 431 CURVE SMOOTH",
"363 431 OFFCURVE",
"412 392 OFFCURVE",
"453 331 CURVE",
"453 385 LINE",
"405 433 OFFCURVE",
"357 459 OFFCURVE",
"279 459 CURVE SMOOTH",
"143 459 OFFCURVE",
"37 352 OFFCURVE",
"37 225 CURVE SMOOTH",
"37 87 OFFCURVE",
"143 -13 OFFCURVE",
"275 -13 CURVE SMOOTH"
);
}
);
width = 479;
}
);
leftKerningGroup = o;
note = c;
rightKerningGroup = c;
unicode = 0063;
},
{
glyphname = cacute;
lastChange = "2016-07-13 21:35:07 +0000";
layers = (
{
background = {
paths = (
{
closed = 1;
nodes = (
"727 -20 OFFCURVE",
"821 0 OFFCURVE",
"897 39 CURVE",
"897 199 LINE",
"804 156 OFFCURVE",
"709 135 OFFCURVE",
"612 135 CURVE SMOOTH",
"405 135 OFFCURVE",
"299 280 OFFCURVE",
"299 545 CURVE SMOOTH",
"299 821 OFFCURVE",
"402 961 OFFCURVE",
"623 961 CURVE SMOOTH",
"688 961 OFFCURVE",
"767 944 OFFCURVE",
"860 909 CURVE",
"915 1059 LINE",
"847 1094 OFFCURVE",
"734 1118 OFFCURVE",
"627 1118 CURVE SMOOTH",
"298 1118 OFFCURVE",
"113 911 OFFCURVE",
"113 543 CURVE SMOOTH",
"113 180 OFFCURVE",
"298 -20 OFFCURVE",
"614 -20 CURVE SMOOTH"
);
},
{
closed = 1;
nodes = (
"578 1241 LINE",
"662 1306 OFFCURVE",
"812 1463 OFFCURVE",
"871 1548 CURVE",
"871 1569 LINE",
"654 1569 LINE",
"601 1465 OFFCURVE",
"510 1330 OFFCURVE",
"459 1266 CURVE",
"459 1241 LINE"
);
}
);
};
components = (
{
name = c;
},
{
name = acutecomb;
transform = "{1, 0, 0, 1, 174, 0}";
}
);
layerId = "6418A72B-B7AF-4A99-B2A7-67092BA5BFD7";
width = 479;
}
);
leftKerningGroup = o;
note = cacute;
rightKerningGroup = c;
unicode = 0107;
},
{
glyphname = ccaron;
lastChange = "2016-07-13 21:35:07 +0000";
layers = (
{
background = {
paths = (
{
closed = 1;
nodes = (
"727 -20 OFFCURVE",
"821 0 OFFCURVE",
"897 39 CURVE",
"897 199 LINE",
"804 156 OFFCURVE",
"709 135 OFFCURVE",
"612 135 CURVE SMOOTH",
"405 135 OFFCURVE",
"299 280 OFFCURVE",
"299 545 CURVE SMOOTH",
"299 821 OFFCURVE",
"402 961 OFFCURVE",
"623 961 CURVE SMOOTH",
"688 961 OFFCURVE",
"767 944 OFFCURVE",
"860 909 CURVE",
"915 1059 LINE",
"847 1094 OFFCURVE",
"734 1118 OFFCURVE",
"627 1118 CURVE SMOOTH",
"298 1118 OFFCURVE",
"113 911 OFFCURVE",
"113 543 CURVE SMOOTH",
"113 180 OFFCURVE",
"298 -20 OFFCURVE",
"614 -20 CURVE SMOOTH"
);
},
{
closed = 1;
nodes = (
"377 1409 OFFCURVE",
"461 1309 OFFCURVE",
"501 1241 CURVE",
"685 1241 LINE",
"719 1305 OFFCURVE",
"804 1405 OFFCURVE",
"941 1542 CURVE",
"941 1569 LINE",
"814 1569 LINE",
"749 1527 OFFCURVE",
"675 1464 OFFCURVE",
"591 1380 CURVE",
"521 1457 OFFCURVE",
"448 1520 OFFCURVE",
"372 1569 CURVE",
"249 1569 LINE",
"249 1542 LINE"
);
}
);
};
components = (
{
name = c;
},
{
name = caroncomb;
transform = "{1, 0, 0, 1, 114, 0}";
}
);
layerId = "6418A72B-B7AF-4A99-B2A7-67092BA5BFD7";
width = 479;
}
);
leftKerningGroup = o;
note = ccaron;
rightKerningGroup = c;
unicode = 010D;
},
{
glyphname = ccedilla;
lastChange = "2016-07-13 21:35:07 +0000";
layers = (
{
background = {
paths = (
{
closed = 1;
nodes = (
"727 -20 OFFCURVE",
"821 0 OFFCURVE",
"897 39 CURVE",
"897 199 LINE",
"804 156 OFFCURVE",
"709 135 OFFCURVE",
"612 135 CURVE SMOOTH",
"405 135 OFFCURVE",
"299 280 OFFCURVE",
"299 545 CURVE SMOOTH",
"299 821 OFFCURVE",
"402 961 OFFCURVE",
"623 961 CURVE SMOOTH",
"688 961 OFFCURVE",
"767 944 OFFCURVE",
"860 909 CURVE",
"915 1059 LINE",
"847 1094 OFFCURVE",
"734 1118 OFFCURVE",
"627 1118 CURVE SMOOTH",
"298 1118 OFFCURVE",
"113 911 OFFCURVE",
"113 543 CURVE SMOOTH",
"113 180 OFFCURVE",
"298 -20 OFFCURVE",
"614 -20 CURVE SMOOTH"
);
},
{
closed = 1;
nodes = (
"766 -193 OFFCURVE",
"707 -134 OFFCURVE",
"588 -109 CURVE",
"641 0 LINE",
"522 0 LINE",
"434 -176 LINE",
"559 -192 OFFCURVE",
"621 -230 OFFCURVE",
"621 -289 CURVE SMOOTH",
"621 -357 OFFCURVE",
"569 -379 OFFCURVE",
"469 -379 CURVE SMOOTH",
"421 -379 OFFCURVE",
"385 -376 OFFCURVE",
"361 -369 CURVE",
"361 -481 LINE",
"386 -488 OFFCURVE",
"420 -492 OFFCURVE",
"463 -492 CURVE SMOOTH",
"666 -492 OFFCURVE",
"766 -417 OFFCURVE",
"766 -285 CURVE SMOOTH"
);
}
);
};
components = (
{
name = c;
},
{
name = cedillacomb;
transform = "{1, 0, 0, 1, 188, 0}";
}
);
layerId = "6418A72B-B7AF-4A99-B2A7-67092BA5BFD7";
width = 479;
}
);
leftKerningGroup = o;
note = ccedilla;
rightKerningGroup = c;
unicode = 00E7;
},
{
glyphname = ccircumflex;
lastChange = "2016-07-13 21:35:07 +0000";
layers = (
{
background = {
paths = (
{
closed = 1;
nodes = (
"727 -20 OFFCURVE",
"821 0 OFFCURVE",
"897 39 CURVE",
"897 199 LINE",
"804 156 OFFCURVE",
"709 135 OFFCURVE",
"612 135 CURVE SMOOTH",
"405 135 OFFCURVE",
"299 280 OFFCURVE",
"299 545 CURVE SMOOTH",
"299 821 OFFCURVE",
"402 961 OFFCURVE",
"623 961 CURVE SMOOTH",
"688 961 OFFCURVE",
"767 944 OFFCURVE",
"860 909 CURVE",
"915 1059 LINE",
"847 1094 OFFCURVE",
"734 1118 OFFCURVE",
"627 1118 CURVE SMOOTH",
"298 1118 OFFCURVE",
"113 911 OFFCURVE",
"113 543 CURVE SMOOTH",
"113 180 OFFCURVE",
"298 -20 OFFCURVE",
"614 -20 CURVE SMOOTH"
);
},
{
closed = 1;
nodes = (
"364 1241 LINE",
"423 1278 OFFCURVE",
"496 1340 OFFCURVE",
"583 1425 CURVE",
"672 1338 OFFCURVE",
"746 1276 OFFCURVE",
"806 1241 CURVE",
"933 1241 LINE",
"933 1264 LINE",
"797 1400 OFFCURVE",
"712 1502 OFFCURVE",
"677 1569 CURVE",
"493 1569 LINE",
"477 1540 OFFCURVE",
"452 1505 OFFCURVE",
"418 1462 CURVE SMOOTH",
"383 1419 OFFCURVE",
"324 1353 OFFCURVE",
"241 1264 CURVE",
"241 1241 LINE"
);
}
);
};
components = (
{
name = c;
},
{
name = circumflexcomb;
transform = "{1, 0, 0, 1, 82, 0}";
}
);
layerId = "6418A72B-B7AF-4A99-B2A7-67092BA5BFD7";
width = 479;
}
);
leftKerningGroup = o;
note = ccircumflex;
rightKerningGroup = c;
unicode = 0109;
},
{
glyphname = cdotaccent;
lastChange = "2016-07-13 21:35:07 +0000";
layers = (
{
background = {
paths = (
{
closed = 1;
nodes = (
"727 -20 OFFCURVE",
"821 0 OFFCURVE",
"897 39 CURVE",
"897 199 LINE",
"804 156 OFFCURVE",
"709 135 OFFCURVE",
"612 135 CURVE SMOOTH",
"405 135 OFFCURVE",
"299 280 OFFCURVE",
"299 545 CURVE SMOOTH",
"299 821 OFFCURVE",
"402 961 OFFCURVE",
"623 961 CURVE SMOOTH",
"688 961 OFFCURVE",
"767 944 OFFCURVE",
"860 909 CURVE",
"915 1059 LINE",
"847 1094 OFFCURVE",
"734 1118 OFFCURVE",
"627 1118 CURVE SMOOTH",
"298 1118 OFFCURVE",
"113 911 OFFCURVE",
"113 543 CURVE SMOOTH",
"113 180 OFFCURVE",
"298 -20 OFFCURVE",
"614 -20 CURVE SMOOTH"
);
},
{
closed = 1;
nodes = (
"494 1316 OFFCURVE",
"540 1280 OFFCURVE",
"600 1280 CURVE SMOOTH",
"656 1280 OFFCURVE",
"705 1316 OFFCURVE",
"705 1395 CURVE SMOOTH",
"705 1475 OFFCURVE",
"656 1509 OFFCURVE",
"600 1509 CURVE SMOOTH",
"540 1509 OFFCURVE",
"494 1475 OFFCURVE",
"494 1395 CURVE SMOOTH"
);
}
);
};
components = (
{
name = c;
},
{
name = dotaccentcomb;
transform = "{1, 0, 0, 1, 236, 0}";
}
);
layerId = "6418A72B-B7AF-4A99-B2A7-67092BA5BFD7";
width = 479;
}
);
leftKerningGroup = o;
note = cdotaccent;
rightKerningGroup = c;
unicode = 010B;
},
{
glyphname = d;
lastChange = "2016-07-14 00:51:39 +0000";
layers = (
{
anchors = (
{
name = bottom;
position = "{287, 0}";
},
{
name = center;
position = "{287, 225}";
},
{
name = top;
position = "{287, 450}";
},
{
name = topright;
position = "{594, 450}";
}
);
background = {
paths = (
{
closed = 1;
nodes = (
"714 -20 OFFCURVE",
"828 36 OFFCURVE",
"905 147 CURVE",
"913 147 LINE",
"940 0 LINE",
"1085 0 LINE",
"1085 1556 LINE",
"905 1556 LINE",
"905 1118 LINE SMOOTH",
"905 1090 OFFCURVE",
"914 983 OFFCURVE",
"918 956 CURVE",
"905 956 LINE",
"826 1064 OFFCURVE",
"712 1118 OFFCURVE",
"565 1118 CURVE SMOOTH",
"278 1118 OFFCURVE",
"113 906 OFFCURVE",
"113 547 CURVE SMOOTH",
"113 186 OFFCURVE",
"278 -20 OFFCURVE",
"563 -20 CURVE SMOOTH"
);
},
{
closed = 1;
nodes = (
"403 129 OFFCURVE",
"299 271 OFFCURVE",
"299 543 CURVE SMOOTH",
"299 816 OFFCURVE",
"405 969 OFFCURVE",
"590 969 CURVE SMOOTH",
"809 969 OFFCURVE",
"907 850 OFFCURVE",
"907 545 CURVE SMOOTH",
"907 512 LINE SMOOTH",
"907 240 OFFCURVE",
"811 129 OFFCURVE",
"592 129 CURVE SMOOTH"
);
}
);
};
layerId = "6418A72B-B7AF-4A99-B2A7-67092BA5BFD7";
paths = (
{
closed = 1;
nodes = (
"355 -11 OFFCURVE",
"439 36 OFFCURVE",
"479 109 CURVE",
"479 0 LINE",
"511 0 LINE",
"511 750 LINE",
"479 750 LINE",
"479 340 LINE",
"443 413 OFFCURVE",
"358 461 OFFCURVE",
"275 461 CURVE SMOOTH",
"143 461 OFFCURVE",
"37 354 OFFCURVE",
"37 225 CURVE SMOOTH",
"37 96 OFFCURVE",
"143 -11 OFFCURVE",
"275 -11 CURVE SMOOTH"
);
},
{
closed = 1;
nodes = (
"161 17 OFFCURVE",
"69 112 OFFCURVE",
"69 225 CURVE SMOOTH",
"69 337 OFFCURVE",
"162 433 OFFCURVE",
"274 433 CURVE SMOOTH",
"386 433 OFFCURVE",
"481 336 OFFCURVE",
"481 224 CURVE SMOOTH",
"481 112 OFFCURVE",
"386 17 OFFCURVE",
"274 17 CURVE SMOOTH"
);
}
);
width = 574;
}
);
leftKerningGroup = o;
note = d;
rightKerningGroup = i;
unicode = 0064;
},
{
glyphname = eth;
lastChange = "2016-07-14 00:51:39 +0000";
layers = (
{
background = {
paths = (
{
closed = 1;
nodes = (
"1109 871 OFFCURVE",
"993 1142 OFFCURVE",
"792 1329 CURVE",
"995 1446 LINE",
"917 1556 LINE",
"681 1419 LINE",
"613 1469 OFFCURVE",
"527 1518 OFFCURVE",
"423 1567 CURVE",
"350 1444 LINE",
"415 1410 OFFCURVE",
"477 1374 OFFCURVE",
"534 1335 CURVE",
"305 1204 LINE",
"382 1092 LINE",
"649 1245 LINE",
"779 1127 OFFCURVE",
"864 997 OFFCURVE",
"903 854 CURVE",
"894 850 LINE",
"831 929 OFFCURVE",
"725 969 OFFCURVE",
"575 969 CURVE SMOOTH",
"279 969 OFFCURVE",
"94 782 OFFCURVE",
"94 477 CURVE SMOOTH",
"94 176 OFFCURVE",
"297 -20 OFFCURVE",
"597 -20 CURVE SMOOTH",
"925 -20 OFFCURVE",
"1109 187 OFFCURVE",
"1109 563 CURVE SMOOTH"
);
},
{
closed = 1;
nodes = (
"927 262 OFFCURVE",
"827 127 OFFCURVE",
"602 127 CURVE SMOOTH",
"391 127 OFFCURVE",
"276 251 OFFCURVE",
"276 471 CURVE SMOOTH",
"276 710 OFFCURVE",
"381 823 OFFCURVE",
"602 823 CURVE SMOOTH",
"802 823 OFFCURVE",
"927 705 OFFCURVE",
"927 514 CURVE SMOOTH"
);
}
);
};
components = (
{
name = o;
transform = "{-1, 0, 0, 1, 550, 0}";
}
);
layerId = "6418A72B-B7AF-4A99-B2A7-67092BA5BFD7";
paths = (
{
closed = 1;
nodes = (
"513 254 LINE SMOOTH",
"513 535 OFFCURVE",
"450 638 OFFCURVE",
"299 712 CURVE SMOOTH",
"181 762 LINE",
"181 733 LINE",
"284 689 LINE SMOOTH",
"414 624 OFFCURVE",
"482 521 OFFCURVE",
"482 300 CURVE SMOOTH",
"482 295 LINE",
"513 225 LINE"
);
},
{
closed = 1;
nodes = (
"490 716 LINE",
"490 747 LINE",
"189 620 LINE",
"189 591 LINE"
);
}
);
width = 550;
}
);
leftKerningGroup = o;
leftMetricsKey = o;
note = eth;
rightKerningGroup = o;
rightMetricsKey = o;
unicode = 00F0;
},
{
glyphname = dcaron;
lastChange = "2016-07-14 00:45:29 +0000";
layers = (
{
background = {
paths = (
{
closed = 1;
nodes = (
"714 -20 OFFCURVE",
"828 36 OFFCURVE",
"905 147 CURVE",
"913 147 LINE",
"940 0 LINE",
"1085 0 LINE",
"1085 1556 LINE",
"905 1556 LINE",
"905 1118 LINE SMOOTH",
"905 1090 OFFCURVE",
"914 983 OFFCURVE",
"918 956 CURVE",
"905 956 LINE",
"826 1064 OFFCURVE",
"712 1118 OFFCURVE",
"565 1118 CURVE SMOOTH",
"278 1118 OFFCURVE",
"113 906 OFFCURVE",
"113 547 CURVE SMOOTH",
"113 186 OFFCURVE",
"278 -20 OFFCURVE",
"563 -20 CURVE SMOOTH"
);
},
{
closed = 1;
nodes = (
"403 129 OFFCURVE",
"299 271 OFFCURVE",
"299 543 CURVE SMOOTH",
"299 816 OFFCURVE",
"405 969 OFFCURVE",
"590 969 CURVE SMOOTH",
"809 969 OFFCURVE",
"907 850 OFFCURVE",
"907 545 CURVE SMOOTH",
"907 512 LINE SMOOTH",
"907 240 OFFCURVE",
"811 129 OFFCURVE",
"592 129 CURVE SMOOTH"
);
},
{
closed = 1;
nodes = (
"1275 1229 LINE",
"1340 1325 OFFCURVE",
"1406 1467 OFFCURVE",
"1423 1538 CURVE",
"1423 1556 LINE",
"1245 1556 LINE",
"1237 1488 OFFCURVE",
"1208 1341 OFFCURVE",
"1177 1253 CURVE",
"1177 1229 LINE"
);
}
);
};
components = (
{
name = d;
},
{
alignment = -1;
name = caroncomb.alt;
transform = "{1, 0, 0, 1, 493, 0}";
}
);
layerId = "6418A72B-B7AF-4A99-B2A7-67092BA5BFD7";
width = 676;
}
);
leftKerningGroup = o;
note = dcaron;
rightKerningGroup = d;
unicode = 010F;
},
{
glyphname = dcroat;
lastChange = "2016-07-14 00:51:39 +0000";
layers = (
{
background = {
paths = (
{
closed = 1;
nodes = (
"713 -20 OFFCURVE",
"826 36 OFFCURVE",
"903 147 CURVE",
"911 147 LINE",
"938 0 LINE",
"1085 0 LINE",
"1085 1239 LINE",
"1241 1239 LINE",
"1241 1374 LINE",
"1085 1374 LINE",
"1085 1556 LINE",
"905 1556 LINE",
"905 1374 LINE",
"469 1374 LINE",
"469 1239 LINE",
"905 1239 LINE",
"905 1114 LINE SMOOTH",
"905 1061 OFFCURVE",
"914 969 OFFCURVE",
"918 950 CURVE",
"905 950 LINE",
"826 1058 OFFCURVE",
"712 1112 OFFCURVE",
"563 1112 CURVE SMOOTH",
"276 1112 OFFCURVE",
"113 904 OFFCURVE",
"113 543 CURVE SMOOTH",
"113 184 OFFCURVE",
"278 -20 OFFCURVE",
"563 -20 CURVE SMOOTH"
);
},
{
closed = 1;
nodes = (
"395 129 OFFCURVE",
"301 278 OFFCURVE",
"301 541 CURVE SMOOTH",
"301 818 OFFCURVE",
"403 963 OFFCURVE",
"590 963 CURVE SMOOTH",
"810 963 OFFCURVE",
"907 850 OFFCURVE",
"907 543 CURVE SMOOTH",
"907 508 LINE SMOOTH",
"907 239 OFFCURVE",
"811 129 OFFCURVE",
"594 129 CURVE SMOOTH"
);
}
);
};
layerId = "6418A72B-B7AF-4A99-B2A7-67092BA5BFD7";
paths = (
{
closed = 1;
nodes = (
"355 -11 OFFCURVE",
"439 36 OFFCURVE",
"479 109 CURVE",
"479 0 LINE",
"511 0 LINE",
"511 566 LINE",
"578 566 LINE",
"578 595 LINE",
"511 595 LINE",
"511 750 LINE",
"479 750 LINE",
"479 595 LINE",
"262 595 LINE",
"262 566 LINE",
"479 566 LINE",
"479 340 LINE",
"443 413 OFFCURVE",
"358 461 OFFCURVE",
"275 461 CURVE SMOOTH",
"143 461 OFFCURVE",
"37 354 OFFCURVE",
"37 225 CURVE SMOOTH",
"37 96 OFFCURVE",
"143 -11 OFFCURVE",
"275 -11 CURVE SMOOTH"
);
},
{
closed = 1;
nodes = (
"161 17 OFFCURVE",
"69 112 OFFCURVE",
"69 225 CURVE SMOOTH",
"69 337 OFFCURVE",
"162 433 OFFCURVE",
"274 433 CURVE SMOOTH",
"386 433 OFFCURVE",
"481 336 OFFCURVE",
"481 224 CURVE SMOOTH",
"481 112 OFFCURVE",
"386 17 OFFCURVE",
"274 17 CURVE SMOOTH"
);
}
);
width = 598;
}
);
leftKerningGroup = o;
note = dcroat;
rightKerningGroup = d;
unicode = 0111;
},
{
glyphname = e;
lastChange = "2016-07-26 19:58:37 +0000";
layers = (
{
anchors = (
{
name = bottom;
position = "{278, 0}";
},
{
name = ogonek;
position = "{385, 10}";
},
{
name = top;
position = "{270, 450}";
}
);
layerId = "6418A72B-B7AF-4A99-B2A7-67092BA5BFD7";
paths = (
{
closed = 1;
nodes = (
"351 -12 OFFCURVE",
"409 10 OFFCURVE",
"459 66 CURVE",
"459 117 LINE",
"418 56 OFFCURVE",
"353 16 OFFCURVE",
"282 16 CURVE SMOOTH",
"229 16 OFFCURVE",
"191 33 OFFCURVE",
"148 68 CURVE",
"462 378 LINE",
"413 433 OFFCURVE",
"354 460 OFFCURVE",
"285 460 CURVE SMOOTH",
"148 460 OFFCURVE",
"42 363 OFFCURVE",
"42 226 CURVE SMOOTH",
"42 99 OFFCURVE",
"151 -12 OFFCURVE",
"278 -12 CURVE SMOOTH"
);
},
{
closed = 1;
nodes = (
"134 81 LINE",
"94 123 OFFCURVE",
"74 173 OFFCURVE",
"74 229 CURVE SMOOTH",
"74 346 OFFCURVE",
"161 432 OFFCURVE",
"284 432 CURVE SMOOTH",
"342 432 OFFCURVE",
"379 416 OFFCURVE",
"422 378 CURVE",
"122 80 LINE"
);
}
);
width = 499;
}
);
leftKerningGroup = o;
note = e;
rightKerningGroup = e;
unicode = 0065;
},
{
glyphname = eacute;
lastChange = "2016-07-13 21:35:07 +0000";
layers = (
{
background = {
paths = (
{
closed = 1;
nodes = (
"786 -20 OFFCURVE",
"880 -1 OFFCURVE",
"1001 51 CURVE",
"1001 209 LINE",
"860 149 OFFCURVE",
"766 133 OFFCURVE",
"649 133 CURVE SMOOTH",
"429 133 OFFCURVE",
"306 265 OFFCURVE",
"299 514 CURVE",
"1051 514 LINE",
"1051 623 LINE SMOOTH",
"1051 927 OFFCURVE",
"874 1118 OFFCURVE",
"598 1118 CURVE SMOOTH",
"301 1118 OFFCURVE",
"113 893 OFFCURVE",
"113 541 CURVE SMOOTH",
"113 192 OFFCURVE",
"312 -20 OFFCURVE",
"641 -20 CURVE SMOOTH"
);
},
{
closed = 1;
nodes = (
"764 971 OFFCURVE",
"859 862 OFFCURVE",
"862 657 CURVE",
"303 657 LINE",
"322 854 OFFCURVE",
"424 971 OFFCURVE",
"596 971 CURVE SMOOTH"
);
},
{
closed = 1;
nodes = (
"586 1241 LINE",
"670 1306 OFFCURVE",
"820 1463 OFFCURVE",
"879 1548 CURVE",
"879 1569 LINE",
"662 1569 LINE",
"609 1465 OFFCURVE",
"518 1330 OFFCURVE",
"467 1266 CURVE",
"467 1241 LINE"
);
}
);
};
components = (
{
name = e;
},
{
name = acutecomb;
transform = "{1, 0, 0, 1, 164, 0}";
}
);
layerId = "6418A72B-B7AF-4A99-B2A7-67092BA5BFD7";
width = 499;
}
);
leftKerningGroup = o;
note = eacute;
rightKerningGroup = e;
unicode = 00E9;
},
{
glyphname = ebreve;
lastChange = "2016-07-13 21:35:07 +0000";
layers = (
{
background = {
paths = (
{
closed = 1;
nodes = (
"786 -20 OFFCURVE",
"880 -1 OFFCURVE",
"1001 51 CURVE",
"1001 209 LINE",
"860 149 OFFCURVE",
"766 133 OFFCURVE",
"649 133 CURVE SMOOTH",
"429 133 OFFCURVE",
"306 265 OFFCURVE",
"299 514 CURVE",
"1051 514 LINE",
"1051 623 LINE SMOOTH",
"1051 927 OFFCURVE",
"874 1118 OFFCURVE",
"598 1118 CURVE SMOOTH",
"301 1118 OFFCURVE",
"113 893 OFFCURVE",
"113 541 CURVE SMOOTH",
"113 192 OFFCURVE",
"312 -20 OFFCURVE",
"641 -20 CURVE SMOOTH"
);
},
{
closed = 1;
nodes = (
"764 971 OFFCURVE",
"859 862 OFFCURVE",
"862 657 CURVE",
"303 657 LINE",
"322 854 OFFCURVE",
"424 971 OFFCURVE",
"596 971 CURVE SMOOTH"
);
},
{
closed = 1;
nodes = (
"782 1241 OFFCURVE",
"904 1341 OFFCURVE",
"921 1516 CURVE",
"808 1516 LINE",
"797 1427 OFFCURVE",
"736 1386 OFFCURVE",
"601 1386 CURVE SMOOTH",
"448 1386 OFFCURVE",
"405 1421 OFFCURVE",
"394 1516 CURVE",
"284 1516 LINE",
"296 1333 OFFCURVE",
"409 1241 OFFCURVE",
"597 1241 CURVE SMOOTH"
);
}
);
};
components = (
{
name = e;
},
{
name = brevecomb;
transform = "{1, 0, 0, 1, 130, 0}";
}
);
layerId = "6418A72B-B7AF-4A99-B2A7-67092BA5BFD7";
width = 499;
}
);
leftKerningGroup = o;
note = ebreve;
rightKerningGroup = e;
unicode = 0115;
},
{
glyphname = ecaron;
lastChange = "2016-07-13 21:35:07 +0000";
layers = (
{
background = {
paths = (
{
closed = 1;
nodes = (
"786 -20 OFFCURVE",
"880 -1 OFFCURVE",
"1001 51 CURVE",
"1001 209 LINE",
"860 149 OFFCURVE",
"766 133 OFFCURVE",
"649 133 CURVE SMOOTH",
"429 133 OFFCURVE",
"306 265 OFFCURVE",
"299 514 CURVE",
"1051 514 LINE",
"1051 623 LINE SMOOTH",
"1051 927 OFFCURVE",
"874 1118 OFFCURVE",
"598 1118 CURVE SMOOTH",
"301 1118 OFFCURVE",
"113 893 OFFCURVE",
"113 541 CURVE SMOOTH",
"113 192 OFFCURVE",
"312 -20 OFFCURVE",
"641 -20 CURVE SMOOTH"
);
},
{
closed = 1;
nodes = (
"764 971 OFFCURVE",
"859 862 OFFCURVE",
"862 657 CURVE",
"303 657 LINE",
"322 854 OFFCURVE",
"424 971 OFFCURVE",
"596 971 CURVE SMOOTH"
);
},
{
closed = 1;
nodes = (
"385 1409 OFFCURVE",
"469 1309 OFFCURVE",
"509 1241 CURVE",
"693 1241 LINE",
"727 1305 OFFCURVE",
"812 1405 OFFCURVE",
"949 1542 CURVE",
"949 1569 LINE",
"822 1569 LINE",
"757 1527 OFFCURVE",
"683 1464 OFFCURVE",
"599 1380 CURVE",
"529 1457 OFFCURVE",
"456 1520 OFFCURVE",
"380 1569 CURVE",
"257 1569 LINE",
"257 1542 LINE"
);
}
);
};
components = (
{
name = e;
},
{
name = caroncomb;
transform = "{1, 0, 0, 1, 104, 0}";
}
);
layerId = "6418A72B-B7AF-4A99-B2A7-67092BA5BFD7";
width = 499;
}
);
leftKerningGroup = o;
note = ecaron;
rightKerningGroup = e;
unicode = 011B;
},
{
glyphname = ecircumflex;
lastChange = "2016-07-13 21:35:07 +0000";
layers = (
{
background = {
paths = (
{
closed = 1;
nodes = (
"786 -20 OFFCURVE",
"880 -1 OFFCURVE",
"1001 51 CURVE",
"1001 209 LINE",
"860 149 OFFCURVE",
"766 133 OFFCURVE",
"649 133 CURVE SMOOTH",
"429 133 OFFCURVE",
"306 265 OFFCURVE",
"299 514 CURVE",
"1051 514 LINE",
"1051 623 LINE SMOOTH",
"1051 927 OFFCURVE",
"874 1118 OFFCURVE",
"598 1118 CURVE SMOOTH",
"301 1118 OFFCURVE",
"113 893 OFFCURVE",
"113 541 CURVE SMOOTH",
"113 192 OFFCURVE",
"312 -20 OFFCURVE",
"641 -20 CURVE SMOOTH"
);
},
{
closed = 1;
nodes = (
"764 971 OFFCURVE",
"859 862 OFFCURVE",
"862 657 CURVE",
"303 657 LINE",
"322 854 OFFCURVE",
"424 971 OFFCURVE",
"596 971 CURVE SMOOTH"
);
},
{
closed = 1;
nodes = (
"376 1241 LINE",
"435 1278 OFFCURVE",
"508 1340 OFFCURVE",
"595 1425 CURVE",
"684 1338 OFFCURVE",
"758 1276 OFFCURVE",
"818 1241 CURVE",
"945 1241 LINE",
"945 1264 LINE",
"809 1400 OFFCURVE",
"724 1502 OFFCURVE",
"689 1569 CURVE",
"505 1569 LINE",
"489 1540 OFFCURVE",
"464 1505 OFFCURVE",
"430 1462 CURVE SMOOTH",
"395 1419 OFFCURVE",
"336 1353 OFFCURVE",
"253 1264 CURVE",
"253 1241 LINE"
);
}
);
};
components = (
{
name = e;
},
{
name = circumflexcomb;
transform = "{1, 0, 0, 1, 72, 0}";
}
);
layerId = "6418A72B-B7AF-4A99-B2A7-67092BA5BFD7";
width = 499;
}
);
leftKerningGroup = o;
note = ecircumflex;
rightKerningGroup = e;
unicode = 00EA;
},
{
glyphname = edieresis;
lastChange = "2016-07-13 21:35:07 +0000";
layers = (
{
background = {
paths = (
{
closed = 1;
nodes = (
"786 -20 OFFCURVE",
"880 -1 OFFCURVE",
"1001 51 CURVE",
"1001 209 LINE",
"860 149 OFFCURVE",
"766 133 OFFCURVE",
"649 133 CURVE SMOOTH",
"429 133 OFFCURVE",
"306 265 OFFCURVE",
"299 514 CURVE",
"1051 514 LINE",
"1051 623 LINE SMOOTH",
"1051 927 OFFCURVE",
"874 1118 OFFCURVE",
"598 1118 CURVE SMOOTH",
"301 1118 OFFCURVE",
"113 893 OFFCURVE",
"113 541 CURVE SMOOTH",
"113 192 OFFCURVE",
"312 -20 OFFCURVE",
"641 -20 CURVE SMOOTH"
);
},
{
closed = 1;
nodes = (
"764 971 OFFCURVE",
"859 862 OFFCURVE",
"862 657 CURVE",
"303 657 LINE",
"322 854 OFFCURVE",
"424 971 OFFCURVE",
"596 971 CURVE SMOOTH"
);
},
{
closed = 1;
nodes = (
"315 1324 OFFCURVE",
"358 1292 OFFCURVE",
"411 1292 CURVE SMOOTH",
"463 1292 OFFCURVE",
"508 1324 OFFCURVE",
"508 1395 CURVE SMOOTH",
"508 1466 OFFCURVE",
"463 1495 OFFCURVE",
"411 1495 CURVE SMOOTH",
"358 1495 OFFCURVE",
"315 1466 OFFCURVE",
"315 1395 CURVE SMOOTH"
);
},
{
closed = 1;
nodes = (
"700 1324 OFFCURVE",
"743 1292 OFFCURVE",
"794 1292 CURVE SMOOTH",
"846 1292 OFFCURVE",
"891 1324 OFFCURVE",
"891 1395 CURVE SMOOTH",
"891 1466 OFFCURVE",
"846 1495 OFFCURVE",
"794 1495 CURVE SMOOTH",
"743 1495 OFFCURVE",
"700 1466 OFFCURVE",
"700 1395 CURVE SMOOTH"
);
}
);
};
components = (
{
name = e;
},
{
name = dieresiscomb;
transform = "{1, 0, 0, 1, 139, 0}";
}
);
layerId = "6418A72B-B7AF-4A99-B2A7-67092BA5BFD7";
width = 499;
}
);
leftKerningGroup = o;
note = edieresis;
rightKerningGroup = e;
unicode = 00EB;
},
{
glyphname = edotaccent;
lastChange = "2016-07-13 21:35:07 +0000";
layers = (
{
background = {
paths = (
{
closed = 1;
nodes = (
"786 -20 OFFCURVE",
"880 -1 OFFCURVE",
"1001 51 CURVE",
"1001 209 LINE",
"860 149 OFFCURVE",
"766 133 OFFCURVE",
"649 133 CURVE SMOOTH",
"429 133 OFFCURVE",
"306 265 OFFCURVE",
"299 514 CURVE",
"1051 514 LINE",
"1051 623 LINE SMOOTH",
"1051 927 OFFCURVE",
"874 1118 OFFCURVE",
"598 1118 CURVE SMOOTH",
"301 1118 OFFCURVE",
"113 893 OFFCURVE",
"113 541 CURVE SMOOTH",
"113 192 OFFCURVE",
"312 -20 OFFCURVE",
"641 -20 CURVE SMOOTH"
);
},
{
closed = 1;
nodes = (
"764 971 OFFCURVE",
"859 862 OFFCURVE",
"862 657 CURVE",
"303 657 LINE",
"322 854 OFFCURVE",
"424 971 OFFCURVE",
"596 971 CURVE SMOOTH"
);
},
{
closed = 1;
nodes = (
"498 1316 OFFCURVE",
"544 1280 OFFCURVE",
"604 1280 CURVE SMOOTH",
"660 1280 OFFCURVE",
"709 1316 OFFCURVE",
"709 1395 CURVE SMOOTH",
"709 1475 OFFCURVE",
"660 1509 OFFCURVE",
"604 1509 CURVE SMOOTH",
"544 1509 OFFCURVE",
"498 1475 OFFCURVE",
"498 1395 CURVE SMOOTH"
);
}
);
};
components = (
{
name = e;
},
{
name = dotaccentcomb;
transform = "{1, 0, 0, 1, 226, 0}";
}
);
layerId = "6418A72B-B7AF-4A99-B2A7-67092BA5BFD7";
width = 499;
}
);
leftKerningGroup = o;
note = edotaccent;
rightKerningGroup = e;
unicode = 0117;
},
